<?xml version="1.0" encoding="UTF-8" standalone="no"?>
<!-- Created with Inkscape (http://www.inkscape.org/) -->

<svg
   version="1.1"
   id="svg1"
   width="5333.3335"
   height="5333.3335"
   viewBox="0 0 5333.3335 5333.3335"
   sodipodi:docname="coin.svg"
   inkscape:version="1.4.2 (f4327f4, 2025-05-13)"
   xmlns:inkscape="http://www.inkscape.org/namespaces/inkscape"
   xmlns:sodipodi="http://sodipodi.sourceforge.net/DTD/sodipodi-0.dtd"
   xmlns="http://www.w3.org/2000/svg"
   xmlns:svg="http://www.w3.org/2000/svg">
  <defs
     id="defs1" />
  <sodipodi:namedview
     id="namedview1"
     pagecolor="#ffffff"
     bordercolor="#000000"
     borderopacity="0.25"
     inkscape:showpageshadow="2"
     inkscape:pageopacity="0.0"
     inkscape:pagecheckerboard="0"
     inkscape:deskcolor="#d1d1d1"
     inkscape:zoom="0.34031249"
     inkscape:cx="2665.1975"
     inkscape:cy="2666.6667"
     inkscape:window-width="3840"
     inkscape:window-height="2054"
     inkscape:window-x="-11"
     inkscape:window-y="-11"
     inkscape:window-maximized="1"
     inkscape:current-layer="g1">
    <inkscape:page
       x="0"
       y="0"
       inkscape:label="1"
       id="page1"
       width="5333.3335"
       height="5333.3335"
       margin="0"
       bleed="0" />
  </sodipodi:namedview>
  <g
     id="g1"
     inkscape:groupmode="layer"
     inkscape:label="1">
    <g
       id="group-R5">
      <path
         id="path2"
         d="M 0,0 H 40000 V 40000 H 0 Z"
         style="fill:#ffcaec;fill-opacity:1;fill-rule:nonzero;stroke:none"
         transform="matrix(0.13333333,0,0,-0.13333333,0,5333.3333)" />
      <path
         id="path3"
         d="m 17977.1,8949.2 c 457.9,-648.3 3736.3,-2817.2 6777.1,-935.8 688.5,-750.8 1452.2,-594.4 1817.4,-313 673.7,519.1 304.1,1707.3 231.4,1922 -272.7,805.7 -588,1486.4 -1433.5,1390.4 -766.2,-47.3 -1982.7,-569.2 -2596.8,365"
         style="fill:#ffffff;fill-opacity:1;fill-rule:nonzero;stroke:none"
         transform="matrix(0.13333333,0,0,-0.13333333,0,5333.3333)" />
      <path
         id="path4"
         d="m 26967.5,8586.7 c -14.2,-332.4 -113,-668.7 -395.8,-886.5 C 26206.2,7419 25442.6,7262.7 24754.2,8013.3 21713.5,6132 18434.9,8300.8 17977.3,8949 l 3836.6,1943.2 959,485.6 c 613.9,-934.2 1830.5,-412.4 2596.4,-365.1 845.6,96.1 1161,-584.4 1433.6,-1390.2 42.1,-124.5 184.3,-576.6 164.6,-1035.8"
         style="fill:#f9c9ca;fill-opacity:1;fill-rule:nonzero;stroke:none"
         transform="matrix(0.13333333,0,0,-0.13333333,0,5333.3333)" />
      <path
         id="path5"
         d="m 26967.5,8586.7 c -14.2,-332.4 -113,-668.7 -395.8,-886.5 C 26206.2,7419 25442.6,7262.7 24754.2,8013.3 21713.5,6132 18434.9,8300.8 17977.3,8949 l 3836.6,1943.2 658.5,-742.8 c 0,0 -341.9,-1187 747.8,-1317.7 1157.1,-139 2315.7,775.8 2315.7,775.8 0,0 246.6,-1077.9 859.4,-1189.7 276,-50.4 457.2,47.6 572.2,168.9"
         style="fill:#f9b2b2;fill-opacity:1;fill-rule:nonzero;stroke:none"
         transform="matrix(0.13333333,0,0,-0.13333333,0,5333.3333)" />
      <path
         id="path6"
         d="m 26967.5,8586.7 c -14.2,-332.4 -113,-668.7 -395.8,-886.5 -365.5,-281.2 -1129.1,-437.5 -1817.5,313.1 -8.7,-5.5 -17.3,-10.6 -26,-15.7 365.1,388.3 713.6,906.2 749.4,1566.2 37.8,27.6 58.3,43.7 58.3,43.7 0,0 246.6,-1077.9 859.4,-1189.7 276,-50.4 457.2,47.6 572.2,168.9"
         style="fill:#595959;fill-opacity:1;fill-rule:nonzero;stroke:none"
         transform="matrix(0.13333333,0,0,-0.13333333,0,5333.3333)" />
      <path
         id="path7"
         d="m 26571.7,7700.2 c -365.5,-281.2 -1129.1,-437.5 -1817.5,313.1 -8.7,-5.5 -17.3,-10.6 -26,-15.7 595.1,632.8 1145.2,1609.9 373.7,2984.8 93.8,14.1 183.2,25.2 267.4,30.3 845.6,96.1 1161,-584.4 1433.6,-1390.2 72.8,-214.6 442.2,-1403.2 -231.2,-1922.3"
         style="fill:#f9c9ca;fill-opacity:1;fill-rule:nonzero;stroke:none"
         transform="matrix(0.13333333,0,0,-0.13333333,0,5333.3333)" />
      <path
         id="path8"
         d="m 26967.5,8586.7 c -14.2,-332.4 -113,-668.7 -395.8,-886.5 -365.5,-281.2 -1129.1,-437.5 -1817.5,313.1 -8.7,-5.5 -17.3,-10.6 -26,-15.7 365.1,388.3 713.6,906.2 749.4,1566.2 37.8,27.6 58.3,43.7 58.3,43.7 0,0 246.6,-1077.9 859.4,-1189.7 276,-50.4 457.2,47.6 572.2,168.9"
         style="fill:#f9b2b2;fill-opacity:1;fill-rule:nonzero;stroke:none"
         transform="matrix(0.13333333,0,0,-0.13333333,0,5333.3333)" />
      <path
         id="path9"
         d="m 22122.8,7117.1 c -667.2,0 -1273.5,123.3 -1768.7,276.2 -1270.8,392.4 -2240.8,1110.2 -2496.1,1471.8 l 238.2,168.3 c 200.9,-284.4 1094.6,-975.7 2343.9,-1361.4 1060.6,-327.4 2656.7,-512.5 4237.3,465.4 59.7,36.9 137,26.2 184.3,-25.4 656.6,-716.1 1347.3,-506.8 1620.9,-296.1 587.1,452.4 254.9,1545.3 182.3,1759.8 -303.9,897.7 -597.7,1369.4 -1279,1292.2 -2.5,-0.3 -5,-0.5 -7.5,-0.6 -164.9,-10.2 -357,-44.4 -560.2,-80.7 -730.4,-130.2 -1639.4,-292.2 -2167.4,511 l 243.8,160.3 c 422.4,-642.5 1192.7,-505.3 1872.4,-384.1 210.3,37.5 409,72.9 589.7,84.4 961.3,106.9 1309.6,-676.9 1584.5,-1489 117.6,-347.6 445,-1525.3 -280.5,-2084.3 -463.8,-357.5 -1253.4,-422.8 -1930.7,243.5 -899.1,-529.9 -1798,-711.3 -2607.2,-711.3"
         style="fill:#650000;fill-opacity:1;fill-rule:nonzero;stroke:none"
         transform="matrix(0.13333333,0,0,-0.13333333,0,5333.3333)" />
      <path
         id="path10"
         d="m 25305,8219.5 c 337.7,-380.9 961.2,-513.5 1380.6,-198.5 l 145.6,-252.8 c -271.6,-128 -595.3,-158.1 -875.7,-55.7 -264.9,94.3 -505.9,267.8 -650.5,507"
         style="fill:#650000;fill-opacity:1;fill-rule:nonzero;stroke:none"
         transform="matrix(0.13333333,0,0,-0.13333333,0,5333.3333)" />
      <path
         id="path11"
         d="m 24450.1,8003.6 c 349.5,194.6 628.8,497.2 854.9,828 -109.2,-292.7 -262.2,-576.8 -459.3,-824.8 -67.2,-85 -143.6,-164.5 -226.3,-240.8 l -169.3,237.6"
         style="fill:#650000;fill-opacity:1;fill-rule:nonzero;stroke:none"
         transform="matrix(0.13333333,0,0,-0.13333333,0,5333.3333)" />
      <path
         id="path12"
         d="m 19829.7,17407.1 c -1664.9,-314.6 -4272.6,-1867.2 -6770.5,-1547.2 -944.4,95.3 -2286.5,716.4 -2055.5,2683.9 204.2,1413.1 949.2,2096.3 949.2,2096.3 l 2836.2,-494.8 c 1835.4,27.9 2497.4,376.1 4365.5,398.3 l 675.1,-3136.5"
         style="fill:#c97043;fill-opacity:1;fill-rule:nonzero;stroke:none"
         transform="matrix(0.13333333,0,0,-0.13333333,0,5333.3333)" />
      <path
         id="path13"
         d="m 19829.7,17407.2 c -712.4,-134.5 -1597.8,-495.9 -2573.6,-840.5 -1130.3,-399.1 -2381.9,-775.3 -3626.2,-748.5 -190.6,3.6 -381.1,17.2 -570.8,41.7 -944.2,95.2 -2286.2,716.4 -2055.3,2684 204.1,1412.9 949,2096.2 949,2096.2 l 2836.2,-494.8 c 1835.5,28.1 2497.5,376.3 4365.5,398.3 l 675.2,-3136.4"
         style="fill:#c97043;fill-opacity:1;fill-rule:nonzero;stroke:none"
         transform="matrix(0.13333333,0,0,-0.13333333,0,5333.3333)" />
      <path
         id="path14"
         d="m 19829.9,17407.2 c -712.6,-134.5 -1598.1,-495.9 -2573.7,-840.4 -1130.4,-399 -2381.9,-775.3 -3626.4,-748.7 -190.5,3.6 -381,17.3 -570.7,41.6 -944.2,95.2 -2286.3,716.5 -2055.5,2684.2 204.3,1413 949.4,2096.2 949.4,2096.2 l 2835.8,-494.7 c 643.2,9.8 1142.6,58.8 1600,119.6 847.8,112.5 1552.2,264.5 2765.7,278.7 l 215.2,-999.6 460.2,-2136.9"
         style="fill:#f9c9ca;fill-opacity:1;fill-rule:nonzero;stroke:none"
         transform="matrix(0.13333333,0,0,-0.13333333,0,5333.3333)" />
      <path
         id="path15"
         d="m 11420.1,19837.5 c -121.4,-559.6 349.5,-1233.9 735.9,-1203.6 318.7,24.9 162.5,792.5 162.5,792.5 l -396.3,275.7 -502.1,135.4"
         style="fill:#f9c9ca;fill-opacity:1;fill-rule:nonzero;stroke:none"
         transform="matrix(0.13333333,0,0,-0.13333333,0,5333.3333)" />
      <path
         id="path16"
         d="m 19369.7,19544.1 c -278.3,13 -567.9,40.8 -876,86.3 -544.5,80.7 -1504.8,330.4 -2104.9,634.6 847.8,112.5 1552.2,264.5 2765.7,278.7 l 215.2,-999.6"
         style="fill:#f9b2b2;fill-opacity:1;fill-rule:nonzero;stroke:none"
         transform="matrix(0.13333333,0,0,-0.13333333,0,5333.3333)" />
      <path
         id="path17"
         d="M 24480.1,20094.1 C 22917,19940.4 21849.7,19706 20825.5,19596.3 l -313.6,258.3 c 1284.5,22.3 2693.2,267.7 3968.2,239.5"
         style="fill:#b25b36;fill-opacity:1;fill-rule:nonzero;stroke:none"
         transform="matrix(0.13333333,0,0,-0.13333333,0,5333.3333)" />
      <path
         id="path18"
         d="m 22508.2,19837.7 c -1477,-228.5 -2527,-428 -4014.5,-207.3 -270.5,40 -643.2,121.9 -1023.8,231.6 229.3,339.5 596.5,756.5 1102.2,949 926.6,352.7 3697.4,-568.4 3697.4,-568.4 79.1,-127 158.7,-262.2 238.7,-404.9"
         style="fill:#b25b36;fill-opacity:1;fill-rule:nonzero;stroke:none"
         transform="matrix(0.13333333,0,0,-0.13333333,0,5333.3333)" />
      <path
         id="path19"
         d="m 16940.6,18808.6 315.5,-2241.9 c -1130.3,-399.1 -2381.9,-775.3 -3626.2,-748.5 -915.4,184.1 -1698.7,584.4 -1862,1309.2 -248.2,1101.1 267,1372.9 59.2,1702.7 826.1,-14.4 2110.5,107.7 2709.3,75.3 43.2,-506.2 226,-960.5 603.1,-991.4 865.5,-71 1801.1,894.6 1801.1,894.6"
         style="fill:#f9b2b2;fill-opacity:1;fill-rule:nonzero;stroke:none"
         transform="matrix(0.13333333,0,0,-0.13333333,0,5333.3333)" />
      <path
         id="path20"
         d="m 13746.5,15671.4 c -235.9,0 -471.5,13.8 -705.9,43.8 -332.8,33.5 -1174.9,186.1 -1721.7,867 -400.8,499.1 -555.6,1164.8 -460.1,1978.7 209.8,1451.7 963.5,2157.3 995.5,2186.7 33.3,30.6 79.1,44 123.6,36.1 l 2822.7,-492.3 c 891,14.4 1514.4,106.9 2117.6,196.5 629.7,93.5 1280.8,190.2 2234.7,201.5 l 3.4,-291.7 c -934,-11.1 -1575.2,-106.3 -2195.3,-198.4 -615.5,-91.4 -1252.1,-185.9 -2169.7,-199.8 -9.4,-0.3 -18.3,0.6 -27.2,2.2 l -2760.6,481.5 c -162.5,-176.6 -691.7,-826.8 -855.5,-1960.2 -85.5,-729.5 48.3,-1322.3 398.3,-1758.2 477.7,-594.8 1227.4,-729.5 1527.5,-759.8 1647.7,-210.8 3323.2,400.6 4801.5,940.1 704.4,257.1 1369.8,499.9 1927.3,605.3 l 54.2,-286.6 c -534.1,-101 -1188.6,-339.8 -1881.5,-592.8 -1238.7,-452 -2738.9,-999.6 -4228.8,-999.6"
         style="fill:#650000;fill-opacity:1;fill-rule:nonzero;stroke:none"
         transform="matrix(0.13333333,0,0,-0.13333333,0,5333.3333)" />
      <path
         id="path21"
         d="m 14786,18583.6 c 202.9,-373.8 170.2,-839.8 -21.4,-1209.4 -50.6,-94 -114.8,-191.3 -177.9,-276.2 25.2,57 52.4,112.4 75.2,169.3 106.1,272.9 138.9,589.1 41.9,867.6 -34.7,101.2 -81.6,200.7 -149.7,282 -81.2,31.9 -121,123.6 -89,204.7 42.6,119 217.2,133.9 280.4,26.2 l 40.5,-64.2"
         style="fill:#650000;fill-opacity:1;fill-rule:nonzero;stroke:none"
         transform="matrix(0.13333333,0,0,-0.13333333,0,5333.3333)" />
      <path
         id="path22"
         d="M 23748.9,10604.8 C 23022.6,9443 21532.7,8737.9 20285.1,8500.4 c -216.4,-41.2 -425.3,-68.2 -622,-81.2 -1091.3,-47.4 -2861.8,1189.2 -3808,2048.8 -345.7,314 -581.2,577.8 -633.4,709.9 -894.4,2270.6 80,4322.9 1010.1,6148.3 361.4,709.5 716.1,1384.4 952.1,2024.9 0,0 461.3,1107.3 1388.3,1460.1 926.6,352.7 3697.4,-568.4 3697.4,-568.4 823.1,-1321.7 1704.7,-3518.3 2002.6,-5611.7 216.7,-1522.4 124.6,-2989.9 -523.3,-4026.3"
         style="fill:#f9c9ca;fill-opacity:1;fill-rule:nonzero;stroke:none"
         transform="matrix(0.13333333,0,0,-0.13333333,0,5333.3333)" />
      <path
         id="path23"
         d="m 22508.2,19837.7 c -1477,-228.5 -2527,-428 -4014.5,-207.3 -270.5,40 -643.2,121.9 -1023.8,231.6 229.3,339.5 596.5,756.5 1102.2,949 926.6,352.7 3697.4,-568.4 3697.4,-568.4 79.1,-127 158.7,-262.2 238.7,-404.9"
         style="fill:#f9b2b2;fill-opacity:1;fill-rule:nonzero;stroke:none"
         transform="matrix(0.13333333,0,0,-0.13333333,0,5333.3333)" />
      <path
         id="path24"
         d="m 23749,10604.7 c -726.3,-1161.8 -2216.2,-1866.9 -3463.8,-2104.5 -18.8,584.5 -214.2,1509.2 -214.2,1509.2 0,0 -1368.2,2594.9 225.5,6584.4 544,1388.4 3626.9,-1869.2 3975.8,-1962.9 216.7,-1522.4 124.6,-2989.9 -523.3,-4026.2"
         style="fill:#f9b2b2;fill-opacity:1;fill-rule:nonzero;stroke:none"
         transform="matrix(0.13333333,0,0,-0.13333333,0,5333.3333)" />
      <path
         id="path25"
         d="m 18819.8,11726.4 c -184.6,-670.6 -432.4,-1174.3 -1005.4,-1269.9 -729.4,-121.5 -1389.1,-107.8 -1959.4,11.3 -345.7,314 -581.3,577.8 -633.4,709.9 -233.7,593.4 -340.3,1172.4 -352.8,1736 792.2,-449.6 1694.1,-216 3049.5,-72.5 598.5,63.5 829.8,-495.9 901.5,-1114.8"
         style="fill:#ffb6b8;fill-opacity:1;fill-rule:nonzero;stroke:none"
         transform="matrix(0.13333333,0,0,-0.13333333,0,5333.3333)" />
      <path
         id="path26"
         d="m 17184,19351 c -360,-1152.6 -977.5,-2211.9 -1438.5,-3320.7 -655,-1513.3 -1019.3,-3126 -401.9,-4714.3 l 19.3,-51.3 9.7,-25.7 c 43.2,-88.9 115.4,-168.9 184.2,-247.7 397,-430 868.3,-811.6 1341.3,-1161.5 715.5,-509.8 1478.2,-1010.9 2335,-1216.1 719.9,-156.8 1865.8,211.5 2528.1,520.6 790,374.8 1522.4,923.2 1949.5,1693.9 934,1767.2 446.5,4236.8 -113.6,6069.1 -362,1135.7 -828.5,2252.1 -1451.2,3268.3 l 247.6,154.2 c 639.1,-1043.4 1111,-2173.2 1481.8,-3334.9 585,-1917.5 1073.4,-4440.8 90.8,-6297.9 -456.2,-825.1 -1244.6,-1422.1 -2078,-1820.3 -725.6,-340.8 -1923.6,-723.2 -2718.2,-554 -912.9,211.4 -1712.6,725.4 -2462.2,1256.4 -496.1,367.1 -969.7,748.3 -1392.7,1205 -111.7,124.6 -224.6,259.4 -276.2,427.5 -637.5,1631.7 -260.5,3403.4 474.3,4932.1 509.3,1102.8 1175.1,2110.7 1670.9,3217.3"
         style="fill:#650000;fill-opacity:1;fill-rule:nonzero;stroke:none"
         transform="matrix(0.13333333,0,0,-0.13333333,0,5333.3333)" />
      <path
         id="path27"
         d="m 19114.4,12952.2 c -690.8,-49 -2481.9,-149.5 -3627.6,-1069.4 -1115.1,-895.4 -2031.4,-2575.9 -2031.4,-2575.9 -853.8,-171.6 -1177.1,-645.8 -1306.7,-889.3 -119,-223.4 -324.9,-970.8 320.9,-1364.6 2333.8,-1601.8 3149.7,-1190.7 3598.9,-788.5 476.1,345.2 1011,1223 1536.9,1641.1 726.5,577.7 1778.1,304.6 3187,710.8"
         style="fill:#ffffff;fill-opacity:1;fill-rule:nonzero;stroke:none"
         transform="matrix(0.13333333,0,0,-0.13333333,0,5333.3333)" />
      <path
         id="path28"
         d="m 20792.3,8616.3 c -1408.7,-406.1 -2460.2,-133.1 -3186.8,-710.5 -526.2,-418.2 -1061,-1296.1 -1537.1,-1641.4 -449,-402.1 -1265,-813.3 -3598.8,788.8 -645.8,393.4 -439.9,1140.9 -320.9,1364.6 10.6,19.7 22.4,41.3 35.8,63.8 150,254.8 486.8,667.9 1270.9,825.4 0,0 916.4,1680.5 2031.3,2575.6 1145.7,920 2936.8,1020.4 3627.5,1069.7 l 1234.7,-3190.4 443.4,-1145.6"
         style="fill:#ffffff;fill-opacity:1;fill-rule:nonzero;stroke:none"
         transform="matrix(0.13333333,0,0,-0.13333333,0,5333.3333)" />
      <path
         id="path29"
         d="m 20792.3,8616.3 c -1408.7,-406.1 -2460.2,-133.1 -3186.8,-710.5 -367.8,-292.6 -740,-809.7 -1093.3,-1212.2 -152,-173.3 -300.5,-325.7 -443.8,-429.2 -449,-402.1 -1265,-813.3 -3598.8,788.8 -645.8,393.4 -439.9,1140.9 -320.9,1364.6 10.6,19.7 22.4,41.3 35.8,63.8 134.7,228.8 419.8,584.8 1043.6,769.1 71.3,21.3 146.9,40.2 227.3,56.3 0,0 916.4,1680.5 2031.3,2575.6 1145.7,920 2936.8,1020.4 3627.5,1069.7 l 1234.7,-3190.4 443.4,-1145.6"
         style="fill:#f9c9ca;fill-opacity:1;fill-rule:nonzero;stroke:none"
         transform="matrix(0.13333333,0,0,-0.13333333,0,5333.3333)" />
      <path
         id="path30"
         d="m 20792.3,8616.3 c -1408.7,-406.1 -2460.2,-133.1 -3186.8,-710.5 -526.2,-418.2 -1061,-1296.1 -1537.1,-1641.4 -449,-402.1 -1265,-813.3 -3598.8,788.8 -645.8,393.4 -439.9,1140.9 -320.9,1364.6 10.6,19.7 22.4,41.3 35.8,63.8 -6.7,-166.2 67.7,-427.3 266.6,-585.6 823.1,-686.1 2175.5,-1391.8 2985.6,-1058.6 1304.3,536.7 1120,1741.1 2168.8,2208.1 575.8,256.7 1701.9,442.2 1881.6,1326.1 93.7,461.3 -562.5,1689.8 -310.3,2419 l 1615.5,-4174.3"
         style="fill:#f9b2b2;fill-opacity:1;fill-rule:nonzero;stroke:none"
         transform="matrix(0.13333333,0,0,-0.13333333,0,5333.3333)" />
      <path
         id="path31"
         d="m 16512.2,6693.6 c -152,-173.3 -300.5,-325.7 -443.8,-429.2 -449,-402.1 -1265,-813.3 -3598.8,788.8 -645.8,393.4 -439.9,1140.9 -320.9,1364.6 10.6,19.7 22.4,41.3 35.8,63.8 -6.7,-166.2 67.7,-427.3 266.6,-585.6 823.1,-686.1 2175.5,-1391.8 2985.6,-1058.6 160.7,66.1 298.9,142.1 419.4,226.4 229.6,-220.1 429.7,-330.4 656.1,-370.2"
         style="fill:#595959;fill-opacity:1;fill-rule:nonzero;stroke:none"
         transform="matrix(0.13333333,0,0,-0.13333333,0,5333.3333)" />
      <path
         id="path32"
         d="m 16512.2,6693.6 c -152,-173.3 -300.5,-325.7 -443.8,-429.2 -449,-402.1 -1265,-813.3 -3598.8,788.8 -645.8,393.4 -439.9,1140.9 -320.9,1364.6 10.6,19.7 22.4,41.3 35.8,63.8 134.7,228.8 419.8,584.8 1043.6,769.1 593.9,-121.7 1264.2,-437.9 1913.6,-1323.2 612,-834.5 944.4,-1159.1 1370.5,-1233.9"
         style="fill:#f9c9ca;fill-opacity:1;fill-rule:nonzero;stroke:none"
         transform="matrix(0.13333333,0,0,-0.13333333,0,5333.3333)" />
      <path
         id="path33"
         d="m 16512.2,6693.6 c -152,-173.3 -300.5,-325.7 -443.8,-429.2 -449,-402.1 -1265,-813.3 -3598.8,788.8 -645.8,393.4 -439.9,1140.9 -320.9,1364.6 10.6,19.7 22.4,41.3 35.8,63.8 -6.7,-166.2 67.7,-427.3 266.6,-585.6 823.1,-686.1 2175.5,-1391.8 2985.6,-1058.6 160.7,66.1 298.9,142.1 419.4,226.4 229.6,-220.1 429.7,-330.4 656.1,-370.2"
         style="fill:#f9b2b2;fill-opacity:1;fill-rule:nonzero;stroke:none"
         transform="matrix(0.13333333,0,0,-0.13333333,0,5333.3333)" />
      <path
         id="path34"
         d="m 19114.4,12952.2 c -1423.3,-193.9 -2967.4,-482.3 -3969.6,-1601.8 -618,-651.8 -1133.4,-1406.2 -1597.3,-2172.8 -424.9,-79.8 -851.2,-258 -1123,-604.7 -333.5,-387.7 -381.2,-1077.2 83.2,-1370.6 755.2,-501.2 1819.8,-1204.2 2748.1,-1150.8 275.7,21.4 516.9,137.3 720.3,326.1 350,266.9 625.2,659.7 917.5,1000 577,694.1 907.5,960.3 1826.3,1069.2 684.5,76.2 1375.4,113.5 2032.1,309.8 l 80.8,-280.3 C 20154.1,8273.6 19449,8233.7 18756.3,8157.4 17905.5,8057.2 17649.1,7824.8 17117.2,7190.2 16699.4,6696.9 16329.8,6167.9 15759.4,5883.4 14713,5421.3 13295.7,6332.1 12438.7,6898 c -176.8,109 -342.9,249 -441.2,442.3 -195.2,381 -147.2,852.3 60.6,1213.8 283.6,496.5 821.6,789.9 1368.6,895.8 l -99.3,-73.2 c 141.2,271.3 295.7,526.7 459.7,780.3 504.3,756.8 1071.2,1493.5 1834.6,2010.4 1044.2,658 2294.5,794.4 3492.7,784.8"
         style="fill:#650000;fill-opacity:1;fill-rule:nonzero;stroke:none"
         transform="matrix(0.13333333,0,0,-0.13333333,0,5333.3333)" />
      <path
         id="path35"
         d="m 13418.8,8761.2 c -199.4,-69.9 -355.9,-222.5 -487,-382 -306.7,-369.8 -469,-956.9 -113.3,-1337.9 62.9,-69.1 136.2,-129.3 214.4,-183.9 L 12855.4,6626 c -383.5,315.4 -536.5,800.8 -343.1,1260.2 159.2,381.8 501.2,767.8 906.5,875"
         style="fill:#650000;fill-opacity:1;fill-rule:nonzero;stroke:none"
         transform="matrix(0.13333333,0,0,-0.13333333,0,5333.3333)" />
      <path
         id="path36"
         d="m 28284.9,13699.7 c 0,-1383.4 -3878.7,-4616.4 -3878.7,-4616.4 h -737.7 c -2549.6,0 -4616.4,2066.9 -4616.4,4616.4 0,2549.6 2066.8,4616.4 4616.4,4616.4 1243.4,0 628.4,0 628.4,0 0,0 3988,-3310.2 3988,-4616.4"
         style="fill:#ffb42e;fill-opacity:1;fill-rule:nonzero;stroke:none"
         transform="matrix(0.13333333,0,0,-0.13333333,0,5333.3333)" />
      <path
         id="path37"
         d="m 23668.5,18170.3 c -2465.1,0 -4470.6,-2005.5 -4470.6,-4470.6 0,-2465 2005.5,-4470.5 4470.6,-4470.5 h 684.8 c 1092,916.2 3785.8,3405.4 3785.8,4470.5 0,1002.9 -2772.5,3533.5 -3894.9,4470.6 h -575.7 M 24459,8937.5 h -790.5 c -2626,0 -4762.3,2136.3 -4762.3,4762.2 0,2626 2136.3,4762.3 4762.3,4762.3 h 780.5 v -83.1 c 229.4,-193.5 1092,-930.2 1944.8,-1777.7 1351.6,-1343.3 2037,-2319.5 2037,-2901.5 0,-1435.2 -3770.7,-4594.6 -3931.2,-4728.4 l -40.6,-33.8"
         style="fill:#650000;fill-opacity:1;fill-rule:nonzero;stroke:none"
         transform="matrix(0.13333333,0,0,-0.13333333,0,5333.3333)" />
      <path
         id="path38"
         d="m 29022.6,13699.7 c 0,-2549.5 -2066.8,-4616.4 -4616.4,-4616.4 -2549.6,0 -4616.4,2066.9 -4616.4,4616.4 0,2549.6 2066.8,4616.4 4616.4,4616.4 2549.6,0 4616.4,-2066.8 4616.4,-4616.4"
         style="fill:#ffd62c;fill-opacity:1;fill-rule:nonzero;stroke:none"
         transform="matrix(0.13333333,0,0,-0.13333333,0,5333.3333)" />
      <path
         id="path39"
         d="m 29022.4,13699.6 c 0,-2549.2 -2066.4,-4616.1 -4616.1,-4616.1 -1780.9,0 -3326.3,1008.2 -4096,2485.4 828.1,-1236.3 2237.6,-2049.8 3837.5,-2049.8 2549.6,0 4616.5,2066.9 4616.5,4616.6 0,766.8 -186.9,1490.5 -518.5,2126.8 490.6,-733 776.6,-1614.6 776.6,-2562.9"
         style="fill:#ffb42e;fill-opacity:1;fill-rule:nonzero;stroke:none"
         transform="matrix(0.13333333,0,0,-0.13333333,0,5333.3333)" />
      <path
         id="path40"
         d="m 19944.2,13420.9 c -5.7,92.2 -8.6,185.3 -8.6,278.8 0,2259.1 1684.4,4132.2 3863.3,4429.5 34.4,-12.6 67.9,-25.7 100.4,-39.2 0.4,-0.2 0.7,-0.3 1,-0.5 0.5,-0.1 0.7,-0.2 1.1,-0.4 331.1,-138.3 563.5,-324.2 725,-540.9 -79.2,-14.6 -164.4,-24.4 -253.4,-28.3 -27.6,-1.2 -54.9,-1.8 -81.8,-1.8 -390.1,0 -698.8,120.4 -705.7,282.4 v 1.5 C 21545.1,17364.5 20005,15577.4 19944.2,13420.9"
         style="fill:#fff3bf;fill-opacity:1;fill-rule:nonzero;stroke:none"
         transform="matrix(0.13333333,0,0,-0.13333333,0,5333.3333)" />
      <path
         id="path41"
         d="m 24406.2,18170.3 c -2465.1,0 -4470.6,-2005.5 -4470.6,-4470.6 0,-2465 2005.5,-4470.5 4470.6,-4470.5 2465.1,0 4470.6,2005.5 4470.6,4470.5 0,2465.1 -2005.5,4470.6 -4470.6,4470.6 m 0,-9232.8 c -2625.9,0 -4762.3,2136.3 -4762.3,4762.2 0,2626 2136.4,4762.3 4762.3,4762.3 2625.9,0 4762.3,-2136.3 4762.3,-4762.3 0,-2625.9 -2136.4,-4762.2 -4762.3,-4762.2"
         style="fill:#650000;fill-opacity:1;fill-rule:nonzero;stroke:none"
         transform="matrix(0.13333333,0,0,-0.13333333,0,5333.3333)" />
      <path
         id="path42"
         d="m 27876.2,13699.7 c 0,-1916.4 -1553.6,-3470 -3470,-3470 -1916.5,0 -3470,1553.6 -3470,3470 0,1916.5 1553.5,3470.1 3470,3470.1 1916.4,0 3470,-1553.6 3470,-3470.1"
         style="fill:#ff9c43;fill-opacity:1;fill-rule:nonzero;stroke:none"
         transform="matrix(0.13333333,0,0,-0.13333333,0,5333.3333)" />
      <path
         id="path43"
         d="m 27876.2,13699.7 c 0,-1916.4 -1553.6,-3470 -3470,-3470 -1916.5,0 -3470,1553.6 -3470,3470 0,1916.5 1553.5,3470.1 3470,3470.1 1916.4,0 3470,-1553.6 3470,-3470.1"
         style="fill:#ff9c43;fill-opacity:1;fill-rule:nonzero;stroke:none"
         transform="matrix(0.13333333,0,0,-0.13333333,0,5333.3333)" />
      <path
         id="path44"
         d="m 27876.3,13699.6 c 0,-1916.3 -1553.7,-3470.1 -3470,-3470.1 -1568.4,0 -2893.1,1040.1 -3322.8,2468.2 520.5,-1258.4 1760.3,-2143.9 3207,-2143.9 1916.8,0 3470.1,1553.7 3470.1,3470 0,348.4 -51.1,684.4 -146.7,1001.4 169.2,-408.2 262.4,-856.1 262.4,-1325.6"
         style="fill:#ff7a45;fill-opacity:1;fill-rule:nonzero;stroke:none"
         transform="matrix(0.13333333,0,0,-0.13333333,0,5333.3333)" />
      <path
         id="path45"
         d="m 20936.2,13699.7 c 0,1916.3 1553.7,3470.1 3470,3470.1 1568.4,0 2893.1,-1040.1 3322.8,-2468.3 -520.5,1258.4 -1760.2,2144 -3207,2144 -1916.8,0 -3470.1,-1553.8 -3470.1,-3470.1 0,-348.3 51.1,-684.3 146.7,-1001.3 -169.2,408.2 -262.4,856.1 -262.4,1325.6"
         style="fill:#ff7a45;fill-opacity:1;fill-rule:nonzero;stroke:none"
         transform="matrix(0.13333333,0,0,-0.13333333,0,5333.3333)" />
      <path
         id="path46"
         d="m 24911.1,14479.4 c 0,166.4 -194.2,305.1 -493.8,305.1 -394,0 -743.6,-344 -782.4,-388.4 l -438.4,444 c 38.8,38.8 416.2,416.1 898.9,543.8 v 565.9 h 621.5 v -554.9 c 477.2,-105.4 826.8,-460.5 826.8,-921.1 0,-954.4 -1642.5,-1048.7 -1642.5,-1548.2 0,-166.4 194.2,-316.2 493.9,-316.2 399.5,0 743.6,360.7 776.9,399.5 l 443.9,-443.9 c -38.9,-38.8 -416.2,-421.7 -899,-549.4 v -566 h -621.5 v 554.9 c -477.2,111 -832.3,466.1 -832.3,926.7 0,954.4 1648,1048.8 1648,1548.2"
         style="fill:#ffd62c;fill-opacity:1;fill-rule:nonzero;stroke:none"
         transform="matrix(0.13333333,0,0,-0.13333333,0,5333.3333)" />
      <path
         id="path47"
         d="m 16737.5,34806.1 c 297,-517 393.3,-1249.8 393.3,-1249.8 l -2009.7,-1914.4 -1130.3,2275.5 1245.3,1478.7 1501.4,-590"
         style="fill:#f9c9ca;fill-opacity:1;fill-rule:nonzero;stroke:none"
         transform="matrix(0.13333333,0,0,-0.13333333,0,5333.3333)" />
      <path
         id="path48"
         d="m 17130.8,33556.5 -2009.5,-1914.4 -37.1,74.4 -1093.4,2201.1 872.7,1036.3 372.7,442.5 1501.1,-590.3 c 297,-516.9 393.5,-1249.6 393.5,-1249.6"
         style="fill:#f9c9ca;fill-opacity:1;fill-rule:nonzero;stroke:none"
         transform="matrix(0.13333333,0,0,-0.13333333,0,5333.3333)" />
      <path
         id="path49"
         d="m 16598.6,33159 -1514.4,-1442.5 -1093.4,2201.1 872.7,1036.3 1367.7,-387.6 c 411.6,-561.7 367.4,-1407.3 367.4,-1407.3"
         style="fill:#f9b2b2;fill-opacity:1;fill-rule:nonzero;stroke:none"
         transform="matrix(0.13333333,0,0,-0.13333333,0,5333.3333)" />
      <path
         id="path50"
         d="m 15121.1,31496 c -8.4,0 -16.8,0.7 -25.3,2.2 -45.6,8 -84.7,37.3 -105.3,78.8 l -1130.4,2275.5 c -25.8,52 -18.3,114.4 19.1,158.8 l 1245.3,1478.8 223.2,-187.9 -1183.8,-1405.6 999.8,-2012.7 1811.3,1725.5 c -32.2,192.5 -137.8,730.4 -364,1124 l 253,145.4 c 307.8,-535.9 407.3,-1272.4 411.4,-1303.4 6.1,-46.2 -10.3,-92.6 -44,-124.7 l -2009.7,-1914.5 c -27.4,-26 -63.4,-40.2 -100.6,-40.2"
         style="fill:#650000;fill-opacity:1;fill-rule:nonzero;stroke:none"
         transform="matrix(0.13333333,0,0,-0.13333333,0,5333.3333)" />
      <path
         id="path51"
         d="m 20772.8,19920.1 c 5550.4,-422.9 7286.1,1758.4 7440.1,5273.8 580.4,3925.3 -395.8,6012.5 -1194.7,6825 -2842.4,2452.2 -7592.7,2883.3 -9776.7,2431.2 -1095.9,-245.2 -4535,-1204.4 -5153.3,-6656.4 -1412.4,-3755.5 7,-6610.6 5919.5,-7558.4 l 2765.1,-315.2"
         style="fill:#f9c9ca;fill-opacity:1;fill-rule:nonzero;stroke:none"
         transform="matrix(0.13333333,0,0,-0.13333333,0,5333.3333)" />
      <path
         id="path52"
         d="m 20772.8,19920.1 c 5550.4,-422.9 7286.1,1758.4 7440.1,5273.8 580.4,3925.3 -395.8,6012.5 -1194.7,6825 -2842.4,2452.2 -7592.7,2883.3 -9776.7,2431.2 -1095.9,-245.2 -4535,-1204.4 -5153.3,-6656.4 -1412.4,-3755.5 7,-6610.6 5919.5,-7558.4 l 2765.1,-315.2"
         style="fill:#f9c9ca;fill-opacity:1;fill-rule:nonzero;stroke:none"
         transform="matrix(0.13333333,0,0,-0.13333333,0,5333.3333)" />
      <path
         id="path53"
         d="m 26815.8,21349.5 c -1119.5,-1115.1 -3012.4,-1660.1 -6042.9,-1429.3 l -2765.4,314.9 c -3034.5,486.8 -4885.8,1475.8 -5777,2831 -846.5,1285.3 -829.5,2899.8 -142.2,4727.7 618.1,5452.1 4057.4,6411.1 5153,6656.5 2183.9,452.2 6934.7,20.6 9776.9,-2431.5 798.9,-812.5 1775.2,-2899.5 1194.9,-6824.8 -70.2,-1596.1 -465.9,-2917.5 -1397.3,-3844.5"
         style="fill:#f9c9ca;fill-opacity:1;fill-rule:nonzero;stroke:none"
         transform="matrix(0.13333333,0,0,-0.13333333,0,5333.3333)" />
      <path
         id="path54"
         d="m 26815.8,21349.5 c -1119.5,-1115.1 -3012.4,-1660.1 -6042.9,-1429.3 l -2765.4,314.9 c -3034.5,486.8 -4885.8,1475.8 -5777,2831 -846.5,1285.3 -829.5,2899.8 -142.2,4727.7 618.1,5452.1 4057.4,6411.1 5153,6656.5 1884.3,390.2 5680,122.2 8511.6,-1534.3 449.9,-262.8 875.4,-560.9 1265.3,-897.2 270.9,-275.9 562.4,-697.9 806.7,-1289.3 475.7,-1150.9 771.6,-2941.9 388.2,-5535.5 -70.2,-1596.1 -465.9,-2917.5 -1397.3,-3844.5"
         style="fill:#f9c9ca;fill-opacity:1;fill-rule:nonzero;stroke:none"
         transform="matrix(0.13333333,0,0,-0.13333333,0,5333.3333)" />
      <path
         id="path55"
         d="m 26815.8,21349.5 c -1119.5,-1115.1 -3012.4,-1660.1 -6042.9,-1429.3 l -2765.4,314.9 c -3034.5,486.8 -4885.8,1475.8 -5777,2831 -846.5,1285.3 -829.5,2899.8 -142.2,4727.7 174.1,1537 572.8,2716.9 1079.5,3624.4 890,1592.8 2113.5,2346.2 3046,2718.2 l 1.1,0.9 c 420.5,168.1 782,258.1 1026.4,313 1884.3,390.2 5680,122.2 8511.6,-1534.3 449.9,-262.8 875.4,-560.9 1265.3,-897.2 270.9,-275.9 562.4,-697.9 806.7,-1289.3 475.7,-1150.9 771.6,-2941.9 388.2,-5535.5 -70.2,-1596.1 -465.9,-2917.5 -1397.3,-3844.5"
         style="fill:#f9c9ca;fill-opacity:1;fill-rule:nonzero;stroke:none"
         transform="matrix(0.13333333,0,0,-0.13333333,0,5333.3333)" />
      <path
         id="path56"
         d="m 16213.8,34136.4 c -1269.8,-709.7 -1473,-3070.5 -2518.3,-3030.9 -255.9,9.5 -422.5,131.4 -527.7,312.7 890,1592.8 2113.5,2346.2 3046,2718.2"
         style="fill:#f9b2b2;fill-opacity:1;fill-rule:nonzero;stroke:none"
         transform="matrix(0.13333333,0,0,-0.13333333,0,5333.3333)" />
      <path
         id="path57"
         d="m 27824.9,30729.5 c -30.2,-46.3 -63.1,-90.3 -98.2,-131.1 -415.4,-483.8 -1934.3,-1387.4 -2559.5,-974 -578.8,383.3 -420.8,1287.6 -345.3,1509.1 l -159.9,674.1 1090.9,1108.4 c 449.9,-262.8 875.4,-560.9 1265.3,-897.2 270.9,-275.9 562.4,-697.9 806.7,-1289.3"
         style="fill:#f9b2b2;fill-opacity:1;fill-rule:nonzero;stroke:none"
         transform="matrix(0.13333333,0,0,-0.13333333,0,5333.3333)" />
      <path
         id="path58"
         d="m 26815.8,21349.5 c -1119.5,-1115.1 -3012.4,-1660.1 -6042.9,-1429.3 l -2765.4,314.9 c -3034.5,486.8 -4885.8,1475.8 -5777,2831 1642.2,-2005.3 9448.3,-3863.6 14585.3,-1716.6"
         style="fill:#f9b2b2;fill-opacity:1;fill-rule:nonzero;stroke:none"
         transform="matrix(0.13333333,0,0,-0.13333333,0,5333.3333)" />
      <path
         id="path59"
         d="m 27860.9,23640.4 c -148.3,-1309.6 -1330.2,-2251.1 -2639.9,-2102.7 -1309.6,148.3 -2251,1330.2 -2102.7,2639.9 148.3,1309.6 1330.3,2251 2639.9,2102.7 1309.6,-148.3 2251.1,-1330.3 2102.7,-2639.9"
         style="fill:#ff6982;fill-opacity:1;fill-rule:nonzero;stroke:none"
         transform="matrix(0.13333333,0,0,-0.13333333,0,5333.3333)" />
      <path
         id="path60"
         d="m 13619.3,25319.3 c -104.6,-921.2 -720.5,-1660.6 -1532.8,-1966.1 -710.1,1253.6 -625.2,2773 1.9,4440.6 l 3.2,27.3 c 998.5,-376.3 1653.4,-1393.1 1527.7,-2501.8"
         style="fill:#ff6982;fill-opacity:1;fill-rule:nonzero;stroke:none"
         transform="matrix(0.13333333,0,0,-0.13333333,0,5333.3333)" />
      <path
         id="path61"
         d="m 20772.8,19920.1 c 2464.1,-22.6 5639.1,168.1 6756.7,2763.3 347.4,786.9 489.5,1660.5 532.6,2532.8 79.1,584.5 151.5,1171.2 167,1760 25.4,423.6 6.2,897.4 -18.3,1322.2 -112.4,1280.2 -403.3,2649.4 -1296.6,3618.2 -1164.1,997.8 -2724.2,1695.5 -4250.3,2079.6 -1797.2,447.5 -4127.1,704.4 -5917.7,173.1 -2426.7,-730.5 -3829,-2809.9 -4317.5,-5210.3 -93.4,-400.6 -137.5,-811.8 -199.9,-1218.2 -405.6,-1090.2 -639.4,-2292.1 -365.4,-3437.3 670.7,-2643.6 3786.5,-3543.1 6144.3,-4068.3 -2458.3,272.2 -5607.9,1160.5 -6405.7,3810.9 -382.2,1215.1 -77.2,2750 336.9,3764.6 356.5,3222.8 1941.9,6084.9 5322.5,6791.5 2518.3,425.3 5475.9,-75.5 7782.4,-1147.6 743,-352.8 1449.7,-793.2 2077.7,-1332.8 221.2,-224.8 397.2,-481.8 549.7,-748.6 1023.6,-1875.1 963.7,-4143.1 692.7,-6201.6 -85,-2618.2 -1165.8,-4621.5 -3939.2,-5200.5 -1196.9,-255.3 -2445.4,-218.2 -3651.9,-51"
         style="fill:#650000;fill-opacity:1;fill-rule:nonzero;stroke:none"
         transform="matrix(0.13333333,0,0,-0.13333333,0,5333.3333)" />
      <path
         id="path62"
         d="m 15846.4,34384 c -1024.3,-173.2 -1960.2,-3230.1 -3036.5,-2743.6 -867.6,392.1 -949.8,2149.1 -308.8,3122.5 585.9,889.8 1517.2,664.2 1659.1,648.2 224.5,85.4 1699.2,800.7 2577.3,-605"
         style="fill:#f9c9ca;fill-opacity:1;fill-rule:nonzero;stroke:none"
         transform="matrix(0.13333333,0,0,-0.13333333,0,5333.3333)" />
      <path
         id="path63"
         d="m 16737.3,34806.1 -506.1,-239.8 -384.9,-182.4 c -1024,-173.2 -1960.1,-3229.8 -3036.4,-2743.5 -548.8,248.1 -783.7,1043.5 -719,1840.9 37.4,461.8 175.1,924.4 410.3,1281.8 585.7,889.7 1516.8,664 1659.1,648.2 224.3,85.5 1699.3,800.2 2577,-605.2"
         style="fill:#f9c9ca;fill-opacity:1;fill-rule:nonzero;stroke:none"
         transform="matrix(0.13333333,0,0,-0.13333333,0,5333.3333)" />
      <path
         id="path64"
         d="m 16231.2,34566.3 -384.9,-182.4 c -1024,-173.2 -1960.1,-3229.8 -3036.4,-2743.5 -548.8,248.1 -783.7,1043.5 -719,1840.9 60.7,-434.6 265.8,-1410 874,-1403.5 930.6,9.7 1602.9,2039.9 2299.2,2533 447.7,316.7 774,147.6 967.1,-44.5"
         style="fill:#f9b2b2;fill-opacity:1;fill-rule:nonzero;stroke:none"
         transform="matrix(0.13333333,0,0,-0.13333333,0,5333.3333)" />
      <path
         id="path65"
         d="m 15846.4,34384 c -374.6,-142.8 -593.8,-513.5 -814.3,-828.7 -332.8,-499.5 -634.2,-1036.3 -1018.8,-1509.7 -282.9,-358.4 -767.8,-786.8 -1264.1,-555.6 -606.8,280 -800.2,1012.7 -818.8,1623 -33.2,1312.7 665.6,2703.3 2177.1,2453.4 l 69.1,-10.4 -68.3,-8.6 c 469.8,200.9 988.6,330.2 1504.3,235.4 526,-86.9 979.6,-453 1248.6,-899.4 l -247.4,-154.6 c -122.1,194.8 -270.9,370.2 -449.6,503.4 -565.4,437 -1338.5,316.3 -1952,42.6 -46.6,-20.7 -106.6,-1.5 -148.5,3.3 l -70.7,9.8 c -1268.7,178.6 -1799.4,-1083.6 -1759,-2164.4 16.8,-367.2 99.2,-757.6 312.6,-1054.7 206.7,-282.9 504.7,-433.4 817.7,-201 788,531 1524.6,2427.3 2482.1,2516.2"
         style="fill:#650000;fill-opacity:1;fill-rule:nonzero;stroke:none"
         transform="matrix(0.13333333,0,0,-0.13333333,0,5333.3333)" />
      <path
         id="path66"
         d="m 27229.8,31238.3 c -909.2,-456 -1926.2,-1260.1 -2608.8,-872 -956.4,543.7 -493.6,3455.3 454.1,3957.9 871.2,462.1 1624.6,-207.4 1844.7,-834.1 0,0 1138.1,-162.3 1494.9,-965.9 315.5,-637.8 -166.3,-1507.3 -765.2,-1991.1 l -419.7,705.2"
         style="fill:#f9c9ca;fill-opacity:1;fill-rule:nonzero;stroke:none"
         transform="matrix(0.13333333,0,0,-0.13333333,0,5333.3333)" />
      <path
         id="path67"
         d="m 28461.7,31714.5 c -122.4,-444.3 -445.2,-885.6 -812.2,-1181.5 l -419.4,705.2 c -909.7,-455.8 -1926.4,-1259.9 -2609,-871.9 -393.5,223.8 -547.2,848.8 -524.9,1541.8 31.5,990.3 421.3,2120.3 978.9,2416 871.1,462.3 1624.4,-207.2 1844.8,-834 0,0 1138.2,-162.4 1494.6,-966.1 122.1,-246.7 124.6,-528.8 47.2,-809.5"
         style="fill:#f9c9ca;fill-opacity:1;fill-rule:nonzero;stroke:none"
         transform="matrix(0.13333333,0,0,-0.13333333,0,5333.3333)" />
      <path
         id="path68"
         d="m 28461.7,31714.5 c -122.4,-444.3 -445.2,-885.6 -812.2,-1181.5 l -419.4,705.2 c -909.7,-455.8 -1926.4,-1259.9 -2609,-871.9 -393.5,223.8 -547.2,848.8 -524.9,1541.8 58.4,-419.2 235.7,-1066.2 775.2,-1158.5 863.6,-148.2 2045.3,729.2 2670.8,1011.3 495.1,223.4 874.6,299.6 919.5,-46.4"
         style="fill:#f9b2b2;fill-opacity:1;fill-rule:nonzero;stroke:none"
         transform="matrix(0.13333333,0,0,-0.13333333,0,5333.3333)" />
      <path
         id="path69"
         d="m 27824.9,31476.4 c -932.1,-296.4 -1950.1,-1388 -2929.3,-1321.2 -521.4,44.2 -799.5,530.3 -891.3,995.3 -165.2,862.5 -7.1,1797.2 374.7,2582.6 153.1,297.9 376.7,618.8 704.4,759.8 821.7,393.9 1690.5,-151.5 1984.8,-950.6 l -126.2,103.6 c 365.8,-59.8 713,-183.1 1025.6,-386.6 488.7,-310 806.3,-902.1 637.4,-1478.1 -140.2,-520.9 -511.1,-968.4 -955.5,-1248.1 237.9,252.1 434.4,533.4 570.5,835.6 465,995.1 -145.5,1642.4 -1090.3,1911.3 -76.9,21.8 -160.6,42.1 -232.1,54.4 -59.7,8.3 -107.7,50.2 -126.2,103.6 -233.3,670.3 -958.6,1136.4 -1627.8,755 -228,-131.7 -370,-356.6 -491.8,-597.1 -264,-551.1 -385,-1175.1 -401.8,-1783.8 -0.8,-515.7 52.3,-1321.4 675.3,-1425.2 827.9,-102.9 2009.8,921.5 2899.6,1089.5"
         style="fill:#650000;fill-opacity:1;fill-rule:nonzero;stroke:none"
         transform="matrix(0.13333333,0,0,-0.13333333,0,5333.3333)" />
      <path
         id="path70"
         d="m 13459.3,34266.4 c 189.2,592.7 555.4,1164.8 1128.6,1450.7 l 107,-271.4 c -269.6,-84 -514.9,-247 -716.2,-450.9 -208.9,-211.9 -386.7,-459.6 -519.4,-728.4"
         style="fill:#650000;fill-opacity:1;fill-rule:nonzero;stroke:none"
         transform="matrix(0.13333333,0,0,-0.13333333,0,5333.3333)" />
      <path
         id="path71"
         d="m 18739.6,23330.2 c 309,-478.2 1009,-642.1 1488.4,-343.6 152.2,95.6 271,237.7 349.8,404.3 17.1,36.7 60.8,52.5 97.3,35.2 34.5,-16.3 50.1,-56.3 37.3,-91.3 -313.5,-878.2 -1646.5,-847.5 -1972.8,-4.6"
         style="fill:#650000;fill-opacity:1;fill-rule:nonzero;stroke:none"
         transform="matrix(0.13333333,0,0,-0.13333333,0,5333.3333)" />
      <path
         id="path72"
         d="m 20311.9,23492.8 c 192.8,88.7 443.8,-50.4 483.6,-256.2 16.5,-65.8 9.7,-134.9 -13.7,-197.7 -20.6,28.7 -32.3,56.5 -47.8,82.3 -92.2,180.1 -240.5,283.1 -422.1,371.6"
         style="fill:#650000;fill-opacity:1;fill-rule:nonzero;stroke:none"
         transform="matrix(0.13333333,0,0,-0.13333333,0,5333.3333)" />
      <path
         id="path73"
         d="m 23380.5,26649.2 c -81.4,-938.2 -805.9,-1641.6 -1618.3,-1571.2 -812.3,70.5 -1405,888.1 -1323.6,1826.2 81.3,938.2 805.8,1641.6 1618.2,1571.2 812.4,-70.5 1405,-888.1 1323.7,-1826.2"
         style="fill:#650000;fill-opacity:1;fill-rule:nonzero;stroke:none"
         transform="matrix(0.13333333,0,0,-0.13333333,0,5333.3333)" />
      <path
         id="path74"
         d="m 22946.7,26946.6 c -29.1,-335.3 -267.3,-588.5 -532.2,-565.6 -264.9,23 -456,313.4 -427,648.7 29.1,335.4 267.4,588.6 532.3,565.6 264.8,-23 456,-313.4 426.9,-648.7"
         style="fill:#ffffff;fill-opacity:1;fill-rule:nonzero;stroke:none"
         transform="matrix(0.13333333,0,0,-0.13333333,0,5333.3333)" />
      <path
         id="path75"
         d="m 21332.8,26172.8 c -5,0 -10.1,0.2 -15.1,0.6 -146.7,12.7 -249.7,207 -230,433.9 19,219.1 145.3,388.5 286.1,388.5 5,0 10.1,-0.2 15.1,-0.6 146.7,-12.8 249.7,-207 230,-433.9 -19,-219.1 -145.3,-388.5 -286.1,-388.5"
         style="fill:#843333;fill-opacity:1;fill-rule:nonzero;stroke:none"
         transform="matrix(0.13333333,0,0,-0.13333333,0,5333.3333)" />
      <path
         id="path76"
         d="m 16596.3,27733.5 c -81.4,-938.1 -805.9,-1641.5 -1618.3,-1571.1 -812.4,70.4 -1405,888 -1323.6,1826.2 81.3,938.1 805.8,1641.6 1618.2,1571.1 812.4,-70.4 1405,-888 1323.7,-1826.2"
         style="fill:#650000;fill-opacity:1;fill-rule:nonzero;stroke:none"
         transform="matrix(0.13333333,0,0,-0.13333333,0,5333.3333)" />
      <path
         id="path77"
         d="m 16162.5,28030.9 c -29.1,-335.3 -267.4,-588.5 -532.2,-565.5 -264.9,22.9 -456,313.4 -427,648.7 29.1,335.3 267.4,588.5 532.3,565.5 264.8,-22.9 456,-313.4 426.9,-648.7"
         style="fill:#ffffff;fill-opacity:1;fill-rule:nonzero;stroke:none"
         transform="matrix(0.13333333,0,0,-0.13333333,0,5333.3333)" />
      <path
         id="path78"
         d="m 14548.6,27257.1 c -5,0 -10.1,0.2 -15.1,0.7 -146.7,12.7 -249.7,206.9 -230,433.9 19,219 145.3,388.5 286.1,388.5 5,0 10,-0.2 15.1,-0.7 146.7,-12.7 249.7,-207 230,-433.9 -19,-219.1 -145.4,-388.5 -286.1,-388.5"
         style="fill:#843333;fill-opacity:1;fill-rule:nonzero;stroke:none"
         transform="matrix(0.13333333,0,0,-0.13333333,0,5333.3333)" />
      <path
         id="path79"
         d="m 20083.8,24964.6 c -215.4,-662.5 -1279.3,-1225.9 -2637.8,-968.6 -1305.1,247.1 -1787,1131.3 -1724.4,1759.3 71.9,721.2 839.9,1609.5 2331,1464.9 1295.1,-125.5 2388.3,-1157.3 2031.2,-2255.6"
         style="fill:#ed6882;fill-opacity:1;fill-rule:nonzero;stroke:none"
         transform="matrix(0.13333333,0,0,-0.13333333,0,5333.3333)" />
      <path
         id="path80"
         d="m 20084,24964.4 c -215.4,-662.4 -1279.5,-1225.8 -2638,-968.3 -1305.3,247 -1787,1131 -1724.1,1759 4.1,40 9.8,80.2 17.8,120.5 197.2,-496.2 709.1,-990.3 1632.8,-1165.6 1358.4,-256.9 2422.6,306.5 2637.9,968.9 22.2,67.6 38.3,135.3 49.5,202.4 109.2,-286.6 127.6,-599.1 24.1,-916.9"
         style="fill:#e8496b;fill-opacity:1;fill-rule:nonzero;stroke:none"
         transform="matrix(0.13333333,0,0,-0.13333333,0,5333.3333)" />
      <path
         id="path81"
         d="m 15759.8,25322.1 c -2.7,10.4 -5.3,20.8 -7.8,31.2 2.5,-10.3 5.1,-20.6 7.8,-31 0,0 0,-0.1 0,-0.2 M 19211,26838 c -0.6,0.3 -1.1,0.7 -1.7,1 0.6,-0.3 1.1,-0.7 1.7,-1 m -2.1,1.3 c -335.5,203.6 -735.2,340.1 -1156.3,380.9 -109,10.6 -213.9,15.7 -315.2,15.7 -410.1,0 -757.1,-82.9 -1041.5,-217.4 284.5,134.6 631.6,217.5 1041.8,217.5 101.2,0 206.1,-5 315,-15.6 421,-40.8 820.7,-177.5 1156.2,-381.1"
         style="fill:#fdefef;fill-opacity:1;fill-rule:nonzero;stroke:none"
         transform="matrix(0.13333333,0,0,-0.13333333,0,5333.3333)" />
      <path
         id="path82"
         d="m 15759.8,25322.3 c -2.7,10.4 -5.3,20.7 -7.8,31 -6.1,25.6 -11.4,51.1 -16,76.5 6.4,-35.6 14.3,-71.3 23.8,-107.3 0,0 0,-0.1 0,-0.2 m 76.8,354 c -38.1,65.7 -70.2,132.2 -96.7,198.8 85.2,423.9 402.3,881.6 956,1143.4 284.4,134.5 631.4,217.4 1041.5,217.4 101.3,0 206.2,-5.1 315.2,-15.7 421.1,-40.8 820.8,-177.3 1156.3,-380.9 0.1,-0.1 0.3,-0.2 0.4,-0.3 0.6,-0.3 1.1,-0.7 1.7,-1 396.9,-241.5 703.6,-576.7 848.8,-957.8 -11.2,-66.7 -27.3,-134 -49.4,-201.3 0,-0.1 0,-0.2 0,-0.2 -238,433.8 -688.4,790.7 -1229.9,988.6 -0.3,-2.3 -0.6,-4.5 -0.9,-6.7 -25.8,-128.2 -171.4,-211.6 -347.9,-211.6 -37.4,0 -76.3,3.8 -115.7,11.6 -224.9,45 -381.8,207.5 -351.1,362.8 0.8,3.4 1.5,6.8 2.3,9.6 -64.9,3.9 -128.6,5.8 -190.6,5.8 -1084.5,0 -1727.1,-579.6 -1940,-1162.5 m -114.7,78.8 c 1.6,17 3.7,34.1 6.2,51.3 -2.4,-17.1 -4.5,-34.2 -6.2,-51.3"
         style="fill:#fad1d9;fill-opacity:1;fill-rule:nonzero;stroke:none"
         transform="matrix(0.13333333,0,0,-0.13333333,0,5333.3333)" />
      <path
         id="path83"
         d="m 15759.8,25322.5 c -9.5,36 -17.4,71.7 -23.8,107.3 -20,112.7 -24.4,222.3 -14.1,325.3 v 0 c 1.7,17.1 3.8,34.2 6.2,51.3 3.2,22.8 7.2,45.7 11.8,68.7 26.5,-66.6 58.6,-133.1 96.7,-198.8 -39.1,-106.9 -63.7,-214 -73.9,-317.6 -1,-12 -2.4,-24.2 -2.9,-36.2 m 4390.7,4.8 c -31.1,121.3 -78.5,238.9 -140.1,351.4 0,0 0,0.1 0,0.2 22.1,67.3 38.2,134.6 49.4,201.3 67,-176 99.6,-362 90.7,-552.9"
         style="fill:#f8c8d2;fill-opacity:1;fill-rule:nonzero;stroke:none"
         transform="matrix(0.13333333,0,0,-0.13333333,0,5333.3333)" />
      <path
         id="path84"
         d="m 20083.8,24964.6 h 0.5 z m -2353.3,2125.8 c -1253.4,0 -1809.1,-801.1 -1863.8,-1349.5 -51,-511.9 334.7,-1360.8 1606.4,-1601.6 1273.6,-241.3 2274.8,264.1 2472,870.4 120.3,370 62.9,750.2 -165.9,1099.6 -343.9,525 -1010.9,895.1 -1740.6,965.8 -107,10.4 -209.7,15.3 -308.1,15.3 z m 369.3,-3303 c -217.3,0 -445.2,20.6 -681,65.3 -1310.2,248.1 -1918.6,1152.2 -1842.3,1917.1 70.1,703.4 807.7,1759.1 2490.2,1595.6 815.6,-79 1565.3,-499.1 1956.5,-1096.3 279,-425.9 347.9,-892.6 199.4,-1349.6 -196.6,-604.4 -1023.1,-1132.1 -2122.8,-1132.1"
         style="fill:#650000;fill-opacity:1;fill-rule:nonzero;stroke:none"
         transform="matrix(0.13333333,0,0,-0.13333333,0,5333.3333)" />
      <path
         id="path85"
         d="m 16965.8,25650.5 c -52.8,-341.7 -209.4,-601.2 -349.7,-579.5 -140.3,21.7 -211.3,316.3 -158.5,658.1 52.8,341.7 209.4,601.2 349.7,579.5 140.4,-21.6 211.3,-316.3 158.5,-658.1"
         style="fill:#650000;fill-opacity:1;fill-rule:nonzero;stroke:none"
         transform="matrix(0.13333333,0,0,-0.13333333,0,5333.3333)" />
      <path
         id="path86"
         d="m 18651.4,25390.1 c -52.8,-341.8 -209.4,-601.2 -349.7,-579.6 -140.4,21.7 -211.3,316.4 -158.5,658.1 52.8,341.8 209.4,601.3 349.7,579.6 140.3,-21.7 211.3,-316.3 158.5,-658.1"
         style="fill:#650000;fill-opacity:1;fill-rule:nonzero;stroke:none"
         transform="matrix(0.13333333,0,0,-0.13333333,0,5333.3333)" />
      <path
         id="path87"
         d="m 25805.1,32407.6 c 281.3,515.1 695.9,1074 1314.7,1183.1 l 21.6,-290.9 c -121.4,2.3 -249.5,-25.2 -373.4,-76.8 -387.7,-166.9 -706.1,-482.6 -962.9,-815.4"
         style="fill:#650000;fill-opacity:1;fill-rule:nonzero;stroke:none"
         transform="matrix(0.13333333,0,0,-0.13333333,0,5333.3333)" />
      <path
         id="path88"
         d="m 14198.1,18958.8 c 0,0 -373.6,-820.9 231.6,-1001.4 416.5,-124.1 1269.3,125.3 1406.7,555.2 209.1,654.1 -438.4,1458.6 -438.4,1458.6 l -1199.9,-1012.4"
         style="fill:#f9b2b2;fill-opacity:1;fill-rule:nonzero;stroke:none"
         transform="matrix(0.13333333,0,0,-0.13333333,0,5333.3333)" />
      <path
         id="path89"
         d="m 14316.1,18871.5 c -52.5,-129.9 -138.4,-424.7 -53.1,-611.3 37,-81 104.9,-135.3 207.6,-165.9 366.5,-109.3 1125.5,135.3 1229.8,461.8 139.8,437.3 -169.6,972.8 -327.9,1206.7 z m 367.3,-1088.7 c -108.6,0 -209.2,12.4 -294.5,37.8 -181.4,54.1 -314.9,165.4 -386.1,321.8 -161.9,355.8 41.6,823.4 65.3,875.6 8.8,19.2 21.8,36.3 37.9,50 l 1199.9,1012.4 c 29.4,24.7 67.4,36.7 105.8,32.9 38.3,-3.6 73.5,-22.6 97.5,-52.6 28.5,-35.3 693.1,-872.5 463.3,-1591.6 -138.2,-432.3 -796,-686.3 -1289.1,-686.3"
         style="fill:#650000;fill-opacity:1;fill-rule:nonzero;stroke:none"
         transform="matrix(0.13333333,0,0,-0.13333333,0,5333.3333)" />
      <path
         id="path90"
         d="m 11697.9,19056.7 c 169.4,-550.7 880.8,-605 991.3,-132.3 0,0 -488.8,1094.8 -775.7,1046.8 -286.8,-48 -215.6,-914.5 -215.6,-914.5"
         style="fill:#f9c9ca;fill-opacity:1;fill-rule:nonzero;stroke:none"
         transform="matrix(0.13333333,0,0,-0.13333333,0,5333.3333)" />
      <path
         id="path91"
         d="m 11697.9,19056.8 c 105.9,-282.2 484.6,-487.9 744,-302.1 66.4,50.8 99,122.4 105.2,202.9 19.8,193.3 304.1,171.4 293.9,-22.8 -169.7,-657.9 -1038.5,-479.1 -1143.1,122"
         style="fill:#650000;fill-opacity:1;fill-rule:nonzero;stroke:none"
         transform="matrix(0.13333333,0,0,-0.13333333,0,5333.3333)" />
      <path
         id="path92"
         d="m 11003.7,18543.8 c 471.7,3063.7 2989.4,3222.9 4046.7,2793.5 660.8,-268.4 987.6,-578.1 916.1,-1747.7 -26.4,-430.8 -232.8,-860.6 -1246.5,-954.4 -1791.1,-494.1 -2246.3,-254.6 -2727.5,1034.2 l -571.2,-164.2 c -153.8,-315.1 -209.2,-796.7 -417.6,-961.4"
         style="fill:#f9c9ca;fill-opacity:1;fill-rule:nonzero;stroke:none"
         transform="matrix(0.13333333,0,0,-0.13333333,0,5333.3333)" />
      <path
         id="path93"
         d="m 12414.1,21034 c 0.1,0 0.4,0.2 0.5,0.3 -0.1,-0.1 -0.4,-0.3 -0.5,-0.3 m 3.1,2.1 c 0.5,0.3 1.1,0.7 1.6,1 -0.5,-0.3 -1.1,-0.7 -1.6,-1 m 3.1,2 c 1,0.6 2,1.3 2.9,1.9 -1,-0.6 -1.9,-1.3 -2.9,-1.9 m 3.2,2.1 c 415.2,272.2 870.3,409.6 1300.7,455.2 0.1,-0.1 0,0 0.1,-0.1 -430.3,-45.5 -885.6,-183 -1300.8,-455.1"
         style="fill:#ffdcf3;fill-opacity:1;fill-rule:nonzero;stroke:none"
         transform="matrix(0.13333333,0,0,-0.13333333,0,5333.3333)" />
      <path
         id="path94"
         d="m 15528.3,21082 c -131.8,100.6 -291.6,179.6 -477.9,255.3 -217.6,88.3 -496.7,151.8 -807.4,170.1 l -0.2,0.1 c 310.6,-18.3 589.9,-81.7 807.4,-170.1 186.5,-75.7 346.3,-154.7 478.1,-255.4"
         style="fill:#fbcdcd;fill-opacity:1;fill-rule:nonzero;stroke:none"
         transform="matrix(0.13333333,0,0,-0.13333333,0,5333.3333)" />
      <path
         id="path95"
         d="m 13724.3,21495.3 c -0.1,0.1 0,0 -0.1,0.1 113.4,12 224.9,17.6 333.7,17.6 62.7,0 124.4,-1.9 184.9,-5.5 l 0.2,-0.1 c -60.6,3.6 -122.4,5.5 -185.2,5.5 -108.7,0 -220.2,-5.6 -333.5,-17.6"
         style="fill:#9b5959;fill-opacity:1;fill-rule:nonzero;stroke:none"
         transform="matrix(0.13333333,0,0,-0.13333333,0,5333.3333)" />
      <path
         id="path96"
         d="m 15529.8,21080.8 c -0.1,0.1 -0.2,0.2 -0.4,0.3 0.1,-0.1 0.3,-0.2 0.4,-0.3"
         style="fill:#fbcdcd;fill-opacity:1;fill-rule:nonzero;stroke:none"
         transform="matrix(0.13333333,0,0,-0.13333333,0,5333.3333)" />
      <path
         id="path97"
         d="m 11036.9,18736.2 c 221.4,1167.9 753.7,1885.4 1377.2,2297.8 0.1,0 0.4,0.2 0.5,0.3 0.9,0.6 1.7,1.1 2.6,1.8 0.5,0.3 1.1,0.7 1.6,1 0.5,0.4 1,0.6 1.5,1 1,0.6 1.9,1.3 2.9,1.9 0.1,0.1 0.2,0.1 0.3,0.2 415.2,272.1 870.5,409.6 1300.8,455.1 113.3,12 224.8,17.6 333.5,17.6 62.8,0 124.6,-1.9 185.2,-5.5 310.7,-18.3 589.8,-81.8 807.4,-170.1 186.3,-75.7 346.1,-154.7 477.9,-255.3 0.3,-0.3 0.7,-0.6 1.1,-0.9 0.2,-0.1 0.3,-0.2 0.4,-0.3 229.5,-175.9 373.7,-417.8 425,-823.3 -146.9,387.1 -435.1,571.2 -849.7,739.7 -270.1,109.8 -632.2,182.6 -1031.7,182.6 -1108.3,0 -2505.7,-559.8 -3036.5,-2443.6"
         style="fill:#fbdcdc;fill-opacity:1;fill-rule:nonzero;stroke:none"
         transform="matrix(0.13333333,0,0,-0.13333333,0,5333.3333)" />
      <path
         id="path98"
         d="m 12718.9,19216.7 c -47.3,-291.1 237.9,-497.8 877.2,-482.8 528.1,12.4 890.9,268.9 1067.8,250.3 176.8,-18.5 763.8,86.8 938.6,418.3 118.1,224.1 112.2,532.6 51,568.7 -61.2,36.1 -625.8,-344.6 -1123.9,-412.3 -490.9,-66.6 -1722.5,200.7 -1810.7,-342.2"
         style="fill:#f9b2b2;fill-opacity:1;fill-rule:nonzero;stroke:none"
         transform="matrix(0.13333333,0,0,-0.13333333,0,5333.3333)" />
      <path
         id="path99"
         d="m 10862.6,18565.6 c 248.8,1787 1425.6,3147.2 3320.8,3089.8 528.1,-21.3 1069.5,-167.3 1489.7,-503.5 262.1,-213.1 396.5,-569.3 430.6,-886 30.2,-324.5 44.2,-639.3 -25.7,-955.8 -143.6,-592.7 -808.7,-796.9 -1343,-837.3 -267.2,-80.9 -865.9,-220.2 -1262.3,-222.4 -938.6,-34.1 -1303,597.7 -1480.2,1419 139.6,-249.9 273.2,-502.9 444.7,-713 355.6,-468 889.6,-459.6 1427.6,-357.6 270.5,47.8 541.1,120.5 811.8,193.6 197.6,25.4 398.5,49.7 577.8,112.9 300.7,94.6 520,301.7 551.4,612.5 25,232.9 27.2,483.9 2.7,711.9 -21.6,185.6 -67.5,363.3 -157.9,508 -277,428 -988.2,611.9 -1478.3,627.9 -1196.4,54.4 -2255.1,-618.1 -2714.4,-1725.3 -154.1,-353.5 -253.1,-732.7 -313.1,-1118.5 -32.9,-184.1 -305.9,-144.6 -282.2,43.8"
         style="fill:#650000;fill-opacity:1;fill-rule:nonzero;stroke:none"
         transform="matrix(0.13333333,0,0,-0.13333333,0,5333.3333)" />
      <path
         id="path100"
         d="m 27736.5,14347 c -386.5,-639.6 -941.1,-1077.5 -1600.8,-1067.3 -1150,23.6 -1233.9,997.2 -1231.2,1602.4 -18.8,1259.8 742.4,3371.6 -2437.2,3466.5 -43.1,1.2 -86.6,2.4 -131.3,2.7 l -1823.8,1503.2 c 2935.8,51.4 6522.2,1266.5 7674.6,-2277.7 307.7,-1013.6 97.6,-2323.9 -450.3,-3229.8"
         style="fill:#ffffff;fill-opacity:1;fill-rule:nonzero;stroke:none"
         transform="matrix(0.13333333,0,0,-0.13333333,0,5333.3333)" />
      <path
         id="path101"
         d="m 28163.5,15356.2 c -100.8,-363.9 -245.3,-708.5 -426.9,-1009 -386.7,-640 -941.2,-1077.5 -1600.9,-1067.7 -1149.9,23.7 -1233.8,997.2 -1231.1,1602.5 -4.7,315.1 39.4,683.3 58.3,1060.2 57.1,1129.9 -111,2335.4 -2495.6,2406.2 -43,1.2 -86.7,2.4 -131.2,2.8 l -1823.8,1503.2 c 2935.6,51.6 6522.1,1266.6 7674.5,-2277.5 205.5,-677.7 179.9,-1487.4 -23.3,-2220.7"
         style="fill:#f9c9ca;fill-opacity:1;fill-rule:nonzero;stroke:none"
         transform="matrix(0.13333333,0,0,-0.13333333,0,5333.3333)" />
      <path
         id="path102"
         d="m 28186.8,17576.8 c -73.8,227.2 -157.8,435 -250.8,624.6 -113.1,230.4 -239.5,433.9 -378.2,614 252.9,-328.2 465.4,-735.4 629,-1238.6"
         style="fill:#ffdcf3;fill-opacity:1;fill-rule:nonzero;stroke:none"
         transform="matrix(0.13333333,0,0,-0.13333333,0,5333.3333)" />
      <path
         id="path103"
         d="m 27958.4,14777 c 0.4,0.9 0.8,1.8 1.2,2.7 -0.4,-0.9 -0.8,-1.8 -1.2,-2.7 m 1.8,4.1 c 80.1,183.2 148.2,376.3 203.3,575.1 203.2,733.3 228.8,1543 23.3,2220.7 -73.9,227.2 -157.8,434.9 -250.8,624.5 93,-189.6 177,-397.4 250.8,-624.6 v 0 c 261.3,-861.3 149,-1936.5 -226.6,-2795.7"
         style="fill:#ffffff;fill-opacity:1;fill-rule:nonzero;stroke:none"
         transform="matrix(0.13333333,0,0,-0.13333333,0,5333.3333)" />
      <path
         id="path104"
         d="m 27940.7,14737.1 c 203,802.3 24.7,2319.1 -88.2,2721.2 -695.8,2477.5 -3431.9,2415.4 -4497.6,2604.2 310.3,20.5 617.6,33.9 918.2,33.9 1308.5,0 2493.5,-254 3284.7,-1281 138.7,-180.1 265.1,-383.6 378.2,-614 93,-189.6 176.9,-397.3 250.8,-624.5 205.5,-677.7 179.9,-1487.4 -23.3,-2220.7 -55.1,-198.8 -123.2,-391.9 -203.3,-575.1 -0.2,-0.4 -0.4,-1 -0.6,-1.4 -0.4,-0.9 -0.8,-1.8 -1.2,-2.7 -5.8,-13.4 -11.7,-26.7 -17.7,-39.9"
         style="fill:#fbdcdc;fill-opacity:1;fill-rule:nonzero;stroke:none"
         transform="matrix(0.13333333,0,0,-0.13333333,0,5333.3333)" />
      <path
         id="path105"
         d="m 27736.5,14347 c -386.5,-639.6 -941.1,-1077.5 -1600.8,-1067.3 -1150,23.5 -1233.9,997.2 -1231.2,1602.4 -18.8,1259.8 742.4,3371.6 -2437.2,3466.5 546.4,152.9 1777.5,358.3 2599.1,-562.1 933.3,-1045.3 -52.5,-3057.3 659.7,-3691.1 762,-678.1 1562.7,-164.2 2010.4,251.6"
         style="fill:#f9b2b2;fill-opacity:1;fill-rule:nonzero;stroke:none"
         transform="matrix(0.13333333,0,0,-0.13333333,0,5333.3333)" />
      <path
         id="path106"
         d="m 27736.6,14347.2 c -386.7,-640 -941.2,-1077.5 -1600.9,-1067.7 -1149.9,23.7 -1233.8,997.2 -1231.1,1602.5 -4.7,315.1 39.4,683.3 58.3,1060.2 153.6,127.6 335.9,234.7 534.4,319 -8.2,-879.8 -205.5,-1779.3 228.8,-2165.7 762.1,-678.1 1562.7,-164.2 2010.5,251.7"
         style="fill:#595959;fill-opacity:1;fill-rule:nonzero;stroke:none"
         transform="matrix(0.13333333,0,0,-0.13333333,0,5333.3333)" />
      <path
         id="path107"
         d="m 28163.5,15356.2 c -100.8,-363.9 -245.3,-708.5 -426.9,-1009 -386.7,-640 -941.2,-1077.5 -1600.9,-1067.7 -1149.9,23.7 -1233.8,997.2 -1231.1,1602.5 -4.7,315.1 39.4,683.3 58.3,1060.2 954.8,792.3 3009.8,792.3 3200.6,-586"
         style="fill:#f9c9ca;fill-opacity:1;fill-rule:nonzero;stroke:none"
         transform="matrix(0.13333333,0,0,-0.13333333,0,5333.3333)" />
      <path
         id="path108"
         d="m 27736.6,14347.2 c -386.7,-640 -941.2,-1077.5 -1600.9,-1067.7 -1149.9,23.7 -1233.8,997.2 -1231.1,1602.5 -4.7,315.1 39.4,683.3 58.3,1060.2 153.6,127.6 335.9,234.7 534.4,319 -8.2,-879.8 -205.5,-1779.3 228.8,-2165.7 762.1,-678.1 1562.7,-164.2 2010.5,251.7"
         style="fill:#f9b2b2;fill-opacity:1;fill-rule:nonzero;stroke:none"
         transform="matrix(0.13333333,0,0,-0.13333333,0,5333.3333)" />
      <path
         id="path109"
         d="M 24480.1,20094.1 C 22917,19940.4 21849.7,19706 20825.5,19596.3 l -313.6,258.3 c 1284.5,22.3 2693.2,267.7 3968.2,239.5"
         style="fill:#f9b2b2;fill-opacity:1;fill-rule:nonzero;stroke:none"
         transform="matrix(0.13333333,0,0,-0.13333333,0,5333.3333)" />
      <path
         id="path110"
         d="m 20512,19854.5 c 2288.5,187.9 5566.6,1176.8 7210.3,-971.8 286,-381.3 488.8,-810.4 635.6,-1261.8 321.9,-1141.8 112.5,-2410.9 -499.9,-3420.5 -377.7,-620.2 -1049.2,-1161.6 -1815.8,-1093.8 -551.9,25.3 -1014.5,330.7 -1187.3,859.9 -296.9,897.1 49.4,1832.1 -68.2,2740.4 -134.1,1263.2 -1401.1,1477.4 -2450.8,1644.4 457.2,60.7 930.1,50.4 1379.3,-65.7 770,-191.5 1275.6,-745.7 1379.7,-1535 68.7,-465.1 23.8,-931.4 -4.7,-1390.4 -22.1,-568.1 -87.7,-1364.9 422.8,-1731 315.6,-209.2 784.7,-221.5 1136.6,-71.8 382.4,160.5 682.3,483.6 903,835.1 449.6,732.9 651.9,1636.6 584.7,2493.6 -32.2,436.3 -167.8,846.5 -356.8,1236.5 -619.8,1314.5 -1815.3,1779.3 -3203.3,1821.4 -1354.6,54.3 -2709,-169.4 -4065.2,-89.5"
         style="fill:#650000;fill-opacity:1;fill-rule:nonzero;stroke:none"
         transform="matrix(0.13333333,0,0,-0.13333333,0,5333.3333)" />
      <path
         id="path111"
         d="m 26910.5,14931.1 c -24.2,-587.2 -134.4,-1648.9 -835.6,-1796.5 l -35.3,289.6 c 539.4,38.9 789.2,1058 870.9,1506.9"
         style="fill:#650000;fill-opacity:1;fill-rule:nonzero;stroke:none"
         transform="matrix(0.13333333,0,0,-0.13333333,0,5333.3333)" />
      <path
         id="path112"
         d="m 16331.7,14373 c -277.3,498.5 -909.1,521.1 -1212.6,116.6 -271.1,-361.3 -221.3,-924 46.1,-1191.4 353.5,-353.6 878.3,-273.6 1124.5,41 0,0 100.6,138.2 128.5,464.2 28,326.5 -86.5,569.6 -86.5,569.6"
         style="fill:#fac9ca;fill-opacity:1;fill-rule:nonzero;stroke:none"
         transform="matrix(0.13333333,0,0,-0.13333333,0,5333.3333)" />
      <path
         id="path113"
         d="m 15712.2,13290 c -423.6,23.3 -543.6,429.6 -548.2,607.3 -4.1,159.6 65.4,-238.5 546.1,-238.5 480.7,0 641.7,397.5 621.6,163.8 -18.9,-221.4 -162.2,-557.9 -619.5,-532.6"
         style="fill:#f2a5a5;fill-opacity:1;fill-rule:nonzero;stroke:none"
         transform="matrix(0.13333333,0,0,-0.13333333,0,5333.3333)" />
      <path
         id="path114"
         d="m 16331.7,14373 c -185.9,246.3 -530.1,382.2 -818.5,265.8 -417.3,-158.4 -518.8,-714.7 -354.2,-1089.1 193.2,-420.8 751.5,-532.5 1130.7,-210.5 -76.8,-153.6 -228.9,-272.1 -403.6,-329 -632.3,-184.9 -1139.5,351.3 -1090.7,973.7 15.1,380.5 266.4,778.7 656.3,863.6 364.6,94.5 767.7,-127.9 880,-474.5"
         style="fill:#650000;fill-opacity:1;fill-rule:nonzero;stroke:none"
         transform="matrix(0.13333333,0,0,-0.13333333,0,5333.3333)" />
      <path
         id="path115"
         d="m 15644.4,13515.6 c 24.1,11.9 4.2,139.9 48.9,332.3 192,54.7 320.6,39 330.7,63.7 10,24.7 -111.2,104.6 -303.7,68.9 25.7,193.3 -58.6,310.5 -82.7,298.6 -24.1,-11.9 -4.1,-139.3 -49,-332.4 -191.9,-54.6 -320.5,-38.9 -330.5,-63.7 -10.1,-24.7 110.8,-105 303.5,-68.8 -25.8,-193 58.8,-310.5 82.8,-298.6"
         style="fill:#650000;fill-opacity:1;fill-rule:nonzero;stroke:none"
         transform="matrix(0.13333333,0,0,-0.13333333,0,5333.3333)" />
    </g>
  </g>
</svg>
