<?xml version="1.0" encoding="UTF-8" standalone="no"?>
<!-- Created with Inkscape (http://www.inkscape.org/) -->

<svg
   version="1.1"
   id="svg1"
   width="5333.3335"
   height="5333.3335"
   viewBox="0 0 5333.3335 5333.3335"
   sodipodi:docname="hero.svg"
   inkscape:version="1.4.2 (f4327f4, 2025-05-13)"
   xmlns:inkscape="http://www.inkscape.org/namespaces/inkscape"
   xmlns:sodipodi="http://sodipodi.sourceforge.net/DTD/sodipodi-0.dtd"
   xmlns="http://www.w3.org/2000/svg"
   xmlns:svg="http://www.w3.org/2000/svg">
  <defs
     id="defs1" />
  <sodipodi:namedview
     id="namedview1"
     pagecolor="#ffffff"
     bordercolor="#000000"
     borderopacity="0.25"
     inkscape:showpageshadow="2"
     inkscape:pageopacity="0.0"
     inkscape:pagecheckerboard="0"
     inkscape:deskcolor="#d1d1d1"
     inkscape:zoom="0.34031249"
     inkscape:cx="2665.1975"
     inkscape:cy="2666.6667"
     inkscape:window-width="3840"
     inkscape:window-height="2054"
     inkscape:window-x="-11"
     inkscape:window-y="-11"
     inkscape:window-maximized="1"
     inkscape:current-layer="g1">
    <inkscape:page
       x="0"
       y="0"
       inkscape:label="1"
       id="page1"
       width="5333.3335"
       height="5333.3335"
       margin="0"
       bleed="0" />
  </sodipodi:namedview>
  <g
     id="g1"
     inkscape:groupmode="layer"
     inkscape:label="1">
    <g
       id="group-R5">
      <path
         id="path2"
         d="M 0,0 H 40000 V 40000 H 0 Z"
         style="fill:#fbe67b;fill-opacity:1;fill-rule:nonzero;stroke:none"
         transform="matrix(0.13333333,0,0,-0.13333333,0,5333.3333)" />
      <path
         id="path3"
         d="m 18135.3,19993.3 c -3125.3,-374 -5438.4,-1459.5 -4159,-2966.9 l 3587.4,1305.3 571.6,1661.6"
         style="fill:#0096f0;fill-opacity:1;fill-rule:nonzero;stroke:none"
         transform="matrix(0.13333333,0,0,-0.13333333,0,5333.3333)" />
      <path
         id="path4"
         d="m 17834.5,19748.1 c -2172.3,-300 -3678.9,-923.4 -3964.5,-1651.1 -101.2,-257.9 -44,-529.7 175,-827.7 l 3356.9,1221.4 432.6,1257.4 m -3858.1,-2926.4 c -59,0 -116.5,25.5 -156.2,72.3 -487.3,574.1 -449.2,1052.4 -331.4,1352.6 519.1,1322.9 3405.4,1804.4 4622.2,1950 70,8.3 139.4,-19.8 183.6,-74.7 44.3,-54.9 57.3,-128.6 34.3,-195.2 l -571.5,-1661.6 c -20.1,-58.5 -65.6,-104.7 -123.6,-125.8 L 14046.3,16834 c -22.8,-8.3 -46.5,-12.3 -69.9,-12.3"
         style="fill:#650000;fill-opacity:1;fill-rule:nonzero;stroke:none"
         transform="matrix(0.13333333,0,0,-0.13333333,0,5333.3333)" />
      <path
         id="path5"
         d="m 30727.5,10281.4 -1052.4,78.4 c -547.7,40.9 -1061.2,283 -1441.5,679.7 l -549.2,573.8 c -251.9,263.1 -620.9,379.3 -978.2,308.2 l -1276.6,-253.9 70.6,409.5 1112.8,6459.4 3905.6,-7836.3 208.9,-418.8"
         style="fill:#fb132b;fill-opacity:1;fill-rule:nonzero;stroke:none"
         transform="matrix(0.13333333,0,0,-0.13333333,0,5333.3333)" />
      <path
         id="path6"
         d="m 29240.5,10845.6 c -369.3,108.9 -706.7,312.8 -976.7,594.7 l -549.7,573.8 c -203.3,212.3 -482.8,329 -771,329 -68.9,0 -138.3,-6.7 -207.2,-20.3 l -202,-40.2 c 301.8,749.1 497,1528.8 584,2336.6 45.2,419.2 59.7,843.6 44.2,1271.6 607,-1202.4 1126.3,-2561.9 1639,-3904.1 144.5,-378.4 290.6,-760.9 439.4,-1141.1"
         style="fill:#dd0f22;fill-opacity:1;fill-rule:nonzero;stroke:none"
         transform="matrix(0.13333333,0,0,-0.13333333,0,5333.3333)" />
      <path
         id="path7"
         d="m 26916.6,12147.2 c 342.7,0 672.5,-138.6 915.6,-392.3 l 549.4,-573.8 c 345.7,-360.8 810.4,-580 1308.6,-617.1 l 693.4,-51.6 -3674.7,7373.2 -1026.9,-5958.8 984.3,195.7 c 83.5,16.6 167.3,24.7 250.3,24.7 m 3810.9,-2070.5 c -5.1,0 -10.1,0.2 -15.2,0.5 l -1052.5,78.4 c -599.3,44.7 -1158.2,308.3 -1573.9,742.3 l -549.5,573.8 c -204.6,213.7 -500.2,307 -790.3,249.1 L 25469.5,11467 c -66.1,-13.2 -134.6,7.2 -182.8,54.2 -48.3,47.1 -70.4,114.9 -58.9,181.4 l 1183.7,6868.6 c 15,87.3 84.4,155 172,167.9 87.7,12.8 173.5,-32.1 213,-111.3 l 4114.2,-8255.1 c 32.9,-65.9 27.8,-144.3 -13.3,-205.5 -38.2,-56.8 -102,-90.5 -169.9,-90.5"
         style="fill:#650000;fill-opacity:1;fill-rule:nonzero;stroke:none"
         transform="matrix(0.13333333,0,0,-0.13333333,0,5333.3333)" />
      <path
         id="path8"
         d="m 27844.6,9229 c -27.6,-42.5 -74.2,-68.6 -119.8,-90.6 -347,-165.8 -819.5,-158.2 -1058.5,142.8 -53.3,-20.4 -107.5,-37.8 -162.8,-52.2 -2.1,-0.5 -4.1,-1.5 -6.2,-2 -183.7,-48.7 -377.7,-64.5 -565.1,-44 -4.1,0.5 -8.2,1 -12.3,1.5 -229.3,27.1 -448.4,109 -629.1,252.9 -22,17.4 -42.9,35.3 -62.9,54.2 -370.1,339.4 -484.8,875.3 -550.8,1389.8 -7.7,60.4 -14.8,120.2 -21.5,179.6 l -79.8,-52.2 c 111.5,174.6 298.9,293.8 501.6,333.2 107.5,21 219.1,19.5 325.5,-8.1 155.1,-40.5 295.9,-129.5 453.6,-158.2 295.8,-54.3 606.5,110.5 895.8,26.6 111,-32.2 204.7,-97.8 283,-181.7 107.5,-115.7 185.3,-267.2 238,-417.7 90.6,-257 126,-563.6 -34.3,-783.7 -15.8,-21.5 -34.2,-46.1 -28.6,-72.2 3.6,-16.9 16.4,-29.6 29.7,-40.9 113.6,-93.7 275.4,-94.7 414.1,-143.8 139.2,-49.2 270.8,-209.4 190.4,-333.3"
         style="fill:#fcc9cd;fill-opacity:1;fill-rule:nonzero;stroke:none"
         transform="matrix(0.13333333,0,0,-0.13333333,0,5333.3333)" />
      <path
         id="path9"
         d="m 27282,10002 c -99.3,-370.1 -412.5,-654.2 -778.5,-773 -2.1,-0.5 -4.1,-1.5 -6.2,-2 -123.3,-39.4 -252.8,-60.4 -382.3,-58.9 -61.5,0.5 -122.4,5.6 -182.8,14.9 -4.1,0.5 -8.2,1 -12.3,1.5 -250.8,39.9 -488.3,150.5 -692,307.1 -370.1,339.4 -484.8,875.3 -550.8,1389.8 78.8,187.3 225.2,341.9 400.3,460.6 107.5,21 219.1,19.5 325.5,-8.1 155.1,-40.5 295.9,-129.5 453.6,-158.2 295.8,-54.3 606.5,110.5 895.8,26.6 111,-32.2 204.7,-97.8 283,-181.7 2.1,-6.2 3.6,-12.8 5.6,-19 l 45.6,-45 c -175.1,78.3 -367,146.9 -555.4,111.1 -188.3,-35.9 -361.9,-213.5 -327.1,-401.8 35.4,-189.4 258.5,-337.4 207.9,-522.7 -38.4,-139.7 -215.5,-200.1 -268.8,-334.7 -52.2,-132.6 45.6,-289.2 178.2,-340.9 133,-51.7 284.6,-20.5 415.6,36.3 229.8,99.3 425.4,277.9 545.1,498.1"
         style="fill:#f2a5a5;fill-opacity:1;fill-rule:nonzero;stroke:none"
         transform="matrix(0.13333333,0,0,-0.13333333,0,5333.3333)" />
      <path
         id="path10"
         d="m 27453.8,9662.9 c -51.4,-30.9 -99.8,-70.6 -127.6,-123.8 -27.9,-53.2 -31.7,-121.8 2.2,-171.4 25.7,-37.8 68.6,-59.7 110.2,-78.5 87.3,-39.6 179.6,-73.2 275.5,-75.7 95.8,-2.4 196.5,30.5 257.3,104.6 -5.8,-140.7 -144.7,-237.6 -277.8,-283.7 -307.5,-106.6 -676.4,-52.9 -912.3,171.2 -29,27.6 -57.1,60 -62.4,99.6 -10.6,78.4 68.4,136.3 136.4,176.9 91,54.2 182.1,113 247.2,196.5 24.2,31 45.3,66 78.1,87.7 63.8,42.4 162.9,13.1 193.4,-57.1"
         style="fill:#f2a5a5;fill-opacity:1;fill-rule:nonzero;stroke:none"
         transform="matrix(0.13333333,0,0,-0.13333333,0,5333.3333)" />
      <path
         id="path11"
         d="m 24539.4,10831.3 c -10.2,-161 27.9,-322.6 71.3,-476.9 42.3,-150.5 102.6,-296.6 171.7,-436.8 135.7,-275.2 313.5,-539.8 584,-697.3 553.9,-322.5 1237.7,-172.6 1718.9,210.8 115.2,91.7 216.4,204.3 278,339.2 65.6,143.6 94.8,301.4 96.2,459 2.5,299.9 -100.6,598.9 -298.9,825.1 -190.7,217.5 -480.1,351.4 -769.4,354.5 -276,2.9 -547.6,-124.7 -719.7,-340.9 -201.2,-252.7 -244.1,-577.9 -105.8,-871.2 63.1,-133.6 167.1,-250.1 292.3,-328.6 134.8,-84.4 347.6,-152.3 467.1,-7.2 86.5,105 -19.9,261.8 -149,193.1 -57.3,-30.5 -175.7,45.7 -219.6,81.4 -68.6,55.8 -125.2,133.1 -159.3,215.6 -73.9,178.5 -44.5,377.7 79,536.5 280.3,360.4 809.8,295.1 1091.8,-25.9 146,-166.2 217.7,-393.6 219.8,-612.6 1.1,-115.4 -14,-234.6 -58.7,-341.9 -45.9,-110.2 -128.1,-197.6 -219.5,-271.9 -365.4,-296.8 -912.4,-439.4 -1352.7,-228.5 -263.6,126.3 -429.5,356.4 -565.5,607.5 -69.1,127.6 -127.7,260.1 -179.9,395.4 -55.6,144.4 -93.1,295 -152,437.9 -25.6,62.3 -115.6,56.4 -120.1,-16.3"
         style="fill:#650000;fill-opacity:1;fill-rule:nonzero;stroke:none"
         transform="matrix(0.13333333,0,0,-0.13333333,0,5333.3333)" />
      <path
         id="path12"
         d="m 26057,9915.6 c 2.6,-1.8 5.2,-3.6 7.8,-5.4 -3.9,5 -7.8,10.1 -11.7,15.1 4.5,-26.3 11.5,-38.9 30.8,-56 -6.5,15.7 -13,31.4 -19.5,47 l -0.1,-1.1 c -1,-30.9 24.1,-66.8 55.6,-72.9 3,-0.6 6,-1.2 8.9,-1.8 -17.8,17.9 -35.7,35.8 -53.6,53.7 50.4,-124.2 214.5,-89.6 300.2,-25.1 98.3,74.1 168.7,195.9 143.7,322.3 -5.1,25.8 -12.2,50.6 -23.2,74.6 -4.7,10.2 -7.8,12.1 -11,24.7 -3.2,12.9 -6.9,25.8 -11.6,38.3 -19,50.3 -49,93.6 -77.8,138.4 -28.8,44.7 -62.9,86.3 -99.4,124.9 -16.6,17.5 -33.5,35.7 -52.1,51.1 -24.6,20.3 -43.5,24.9 -73.9,30.5 -19.6,3.7 -37.8,-11.8 -32.5,-32.5 5.5,-21.8 7.1,-37.5 20.8,-56.6 13.3,-18.5 29.2,-34.5 44.3,-51.5 26.5,-29.7 51.1,-60.8 72.7,-94.2 23.4,-36.4 39.2,-73.4 48.3,-115.8 3.3,-15.5 2.6,-32.7 7.5,-47.7 -0.9,-12.9 0.5,-14.8 4.1,-5.9 6.4,12.1 4.5,6.8 -6,-15.9 -3.2,-8.5 -5.9,-17 -8.2,-25.8 -4.9,-17.9 -11.7,-34.9 -17.4,-52.6 -2.2,-6.8 -8.4,-23.9 -2.4,-8.4 -6.4,-16.7 -13.8,-32.5 -19.9,-49.2 5.8,15.8 0,-0.4 -3.7,-7.5 -4.1,-7.8 -8.8,-15.3 -13.3,-22.8 -14.3,-24.2 15.2,13.8 -4.8,-6.1 -5.6,-5.6 -11,-11.4 -16.9,-16.8 -8.9,-8.1 -15.6,-10.8 -2.2,-2.4 -8.1,-5.1 -16.1,-10.2 -24.3,-15.2 -13.6,-8.1 -26.8,-16.4 -41.1,-23.3 20.6,10 -6.6,-2.2 -12.5,-4.7 -9.8,-4.3 -19.2,-8.4 -28.2,-14.3 -19,-12.5 -41.5,-30.1 -51.5,-51.4 22.1,12.7 44.2,25.4 66.3,38.1 -3,-0.2 -6.1,-0.3 -9.2,-0.5 -31.7,-1.5 -65.8,-22.3 -72.9,-55.5 l -0.3,-1.4 c 15.4,15.5 30.9,30.9 46.4,46.4 -21.8,-9 -35.4,-13.8 -53.6,-30.4 8.3,2.2 16.5,4.3 24.7,6.5 -2.9,1 -5.9,2 -8.8,2.9 -27.2,9.1 -39.7,-29.1 -18.5,-43.8"
         style="fill:#650000;fill-opacity:1;fill-rule:nonzero;stroke:none"
         transform="matrix(0.13333333,0,0,-0.13333333,0,5333.3333)" />
      <path
         id="path13"
         d="m 26573.3,9255.6 c 37.9,-85.9 156.1,-132 236.6,-172 89.7,-44.5 185.4,-81.3 282,-107.4 198.2,-53.4 409.9,-68.3 610.3,-17.6 177.3,44.9 357.4,177.4 334.4,381.5 -20.1,178.4 -192.7,243.8 -339.3,296.5 -86.3,31.1 -165.2,73.6 -232,137.3 -64.6,61.6 -111.6,179.6 -203,203.1 -22.8,5.9 -54.2,-3.4 -65,-26.4 -46.7,-99.1 33,-197.5 95.9,-268.7 63.1,-71.3 141.8,-132.5 226.8,-175.3 90.9,-45.8 400.7,-98.1 312.3,-256.7 -47.5,-85.3 -165.9,-110.8 -254.2,-125.1 -104.5,-17 -214.4,-13.4 -318.4,4.8 -108.9,19.1 -216.2,51.6 -319.7,90.3 -55.9,20.9 -112.7,41.2 -167.3,65.5 -54.3,24.2 -96.1,51.3 -157.4,43.3 -38.5,-5 -58,-36.9 -42,-73.1"
         style="fill:#650000;fill-opacity:1;fill-rule:nonzero;stroke:none"
         transform="matrix(0.13333333,0,0,-0.13333333,0,5333.3333)" />
      <path
         id="path14"
         d="M 19672,11395.8 18533.6,8554.9 c -689,139.2 -1280.7,377.2 -1757.8,693.6 -1488,986.9 -1867.3,2737.5 -642.4,4652.4 185.3,290.2 408,584.1 669,879.9 l 2869.6,-3385"
         style="fill:#fcc9cd;fill-opacity:1;fill-rule:nonzero;stroke:none"
         transform="matrix(0.13333333,0,0,-0.13333333,0,5333.3333)" />
      <path
         id="path15"
         d="M 19672,11395.8 18533.6,8554.9 c -689,139.2 -1280.7,377.2 -1757.8,693.6 83.4,97.7 199.6,177.1 297.9,263.6 624,547.2 615.8,1513.1 475.5,2331.1 -95.2,556.9 -239,1129.7 -604,1561.2 -206.3,244.7 -502.1,428.4 -811.8,496.5 185.3,290.2 408,584.1 669,879.9 l 2869.6,-3385"
         style="fill:#f2a5a5;fill-opacity:1;fill-rule:nonzero;stroke:none"
         transform="matrix(0.13333333,0,0,-0.13333333,0,5333.3333)" />
      <path
         id="path16"
         d="m 16931.3,9394.5 c -582.9,375.8 -996,873.5 -1192.3,1458.2 -286.3,852.7 -109.1,1830.6 497.1,2826.4 16.4,-42.9 33.5,-85.6 51.1,-127.9 -918.2,-1686.5 -586.4,-3213.4 644.4,-4156.5 -0.1,-0.1 -0.2,-0.2 -0.3,-0.2"
         style="fill:#fee9eb;fill-opacity:1;fill-rule:nonzero;stroke:none"
         transform="matrix(0.13333333,0,0,-0.13333333,0,5333.3333)" />
      <path
         id="path17"
         d="m 16935.1,9392 c -1.2,0.8 -2.6,1.7 -3.8,2.5 0.1,0 0.2,0.1 0.3,0.2 1.1,-0.9 2.3,-1.8 3.5,-2.7"
         style="fill:#fadbdb;fill-opacity:1;fill-rule:nonzero;stroke:none"
         transform="matrix(0.13333333,0,0,-0.13333333,0,5333.3333)" />
      <path
         id="path18"
         d="m 16801.5,14465.1 c -1046.7,-1259.8 -1424,-2535.9 -1062.5,-3612.4 335.3,-998.7 1303.4,-1743.8 2668.8,-2061 l 1028.4,2565.8 -2634.7,3107.6 m 1732.1,-6115 c -13.4,0 -27,1.4 -40.7,4.1 -1600.2,323.8 -2745.5,1187 -3142.1,2368.2 -427.3,1272.3 33.8,2761.7 1298.1,4193.9 39.3,44.5 96.5,69.9 155.5,69.2 59.5,-0.6 115.7,-27 154.1,-72.3 l 2869.8,-3385 c 49,-57.9 62.1,-138.2 33.9,-208.6 L 18723.6,8478.7 c -31.6,-78.8 -107.7,-128.6 -190,-128.6"
         style="fill:#650000;fill-opacity:1;fill-rule:nonzero;stroke:none"
         transform="matrix(0.13333333,0,0,-0.13333333,0,5333.3333)" />
      <path
         id="path19"
         d="m 19827.8,11298.3 c -499.1,-732.6 -1374,-1203.2 -2264.4,-1139.7 -63.6,4.6 -64,98.6 0.7,102.7 408.8,17.9 810.1,143.9 1151.2,364.8 335.1,215.4 609.5,521.2 801.1,867.1 131.7,219.4 451.4,20.7 311.4,-194.9"
         style="fill:#650000;fill-opacity:1;fill-rule:nonzero;stroke:none"
         transform="matrix(0.13333333,0,0,-0.13333333,0,5333.3333)" />
      <path
         id="path20"
         d="m 23359,8361.9 c -283,-243.7 -536.9,-518.5 -758.1,-819.5 -340.9,-464.3 -706.3,-889.1 -1099,-1269.5 -183.2,-176.6 -372.1,-343.4 -567.1,-500.1 -466.3,-374.7 -1032.5,-612.7 -1629.3,-654.1 -510.9,-35.4 -974.1,66.5 -1329.9,270.2 -721.2,411.1 -1004.3,1237.7 -362.4,2178.6 70.7,102.9 140.8,206.3 207.3,311.7 28.2,44.5 55.8,89.6 82.5,135.1 537.4,923.5 907.5,1950.3 1174.2,3040.1 -1999.9,931.6 -3015.5,2610.5 -2966.8,4614.5 34.8,1428.2 610.1,3020.6 1754.7,4624.8 l 7308.5,1037.1 C 27851.2,17012.1 27742.7,12133.4 23359,8361.9"
         style="fill:#fcc9cd;fill-opacity:1;fill-rule:nonzero;stroke:none"
         transform="matrix(0.13333333,0,0,-0.13333333,0,5333.3333)" />
      <path
         id="path21"
         d="m 21501.9,6272.9 c -183.2,-176.6 -372.1,-343.4 -567.1,-500.1 -466.3,-374.7 -1032.5,-612.7 -1629.3,-654.1 -84,-5.7 -166.4,-7.7 -247.3,-6.2 -1.5,0 -3,-0.5 -4,0 -411.6,7.7 -783.2,107 -1080.1,277.5 -720.2,411.5 -1002.3,1237.2 -360.9,2177.5 70.7,102.9 140.8,206.3 207.3,311.7 236.5,83.4 482.2,146.9 732.5,152 186.9,4.1 373.2,-24.5 555.4,-66 508.3,-116.2 988.4,-341.9 1408.7,-650.6 355.7,-260 669,-579.9 918.8,-943.4 23,-32.2 44.5,-65 66,-98.3"
         style="fill:#0096f0;fill-opacity:1;fill-rule:nonzero;stroke:none"
         transform="matrix(0.13333333,0,0,-0.13333333,0,5333.3333)" />
      <path
         id="path22"
         d="m 23140.5,8361.9 c -274.4,-243.7 -520.6,-518.5 -735.1,-819.5 -302.5,-424.9 -624.5,-816.5 -969.5,-1171.2 -249.8,363.5 -563.1,683.4 -918.8,943.4 640.3,963.9 1098,2094.1 1612.9,3147.5 286.2,586.1 602.5,1171.2 715.1,1816.7 112.6,646 -19.4,1381.5 -504.7,1805.4 -549.2,479.1 -1362.1,353.7 -2000.4,254.9 -1024.8,-158.7 -1240.8,-536 -2076.7,-627.1 -681.3,-74.2 -1338.5,89.6 -1954.3,390.6 -72.2,251.3 -138.7,553.8 -174.1,898.8 -24.5,244.2 -30.2,467.9 -24.5,667.5 37.8,589.7 131.5,1378 447.3,2246.1 282.6,777.6 699.3,1576.6 1254.6,2378.7 l 7088.5,1037.1 c 2596.7,-4318.7 2491.3,-9197.4 -1760.3,-12968.9"
         style="fill:#f2a5a5;fill-opacity:1;fill-rule:nonzero;stroke:none"
         transform="matrix(0.13333333,0,0,-0.13333333,0,5333.3333)" />
      <path
         id="path23"
         d="m 19111.3,5316.7 c -271.8,0 -528.3,43.3 -754.4,123.6 326.6,83.7 626.7,264.2 897.4,473.8 503.2,389.6 910.6,870.2 1262.8,1400.5 331.7,-242.5 626.5,-537 867.3,-870.3 -8.2,-8 -16.4,-16 -24.6,-23.9 -179.7,-173.3 -365.9,-337.4 -553.2,-487.9 -449.5,-361.2 -973.5,-572 -1515.3,-609.6 -60.6,-4.2 -120.6,-6.2 -180,-6.2"
         style="fill:#1478c0;fill-opacity:1;fill-rule:nonzero;stroke:none"
         transform="matrix(0.13333333,0,0,-0.13333333,0,5333.3333)" />
      <path
         id="path24"
         d="m 17981.2,20103.4 c -1428.1,-2032.4 -1964.6,-4095.8 -1510.7,-5818 352,-1335.8 1283.3,-2388.9 2693.1,-3045.5 88.6,-41.2 135.7,-139.3 112.5,-234.2 -295.3,-1206.6 -686.6,-2218.8 -1196.2,-3094.3 -28,-48 -56.9,-95.1 -86.3,-141.6 -69.3,-109.8 -142.7,-217.9 -211.6,-318.2 -350.7,-514.2 -416.8,-1019.9 -185.5,-1423.1 275.7,-480.8 940.9,-757.7 1694.8,-705.6 541.8,37.6 1065.8,248.4 1515.3,609.6 187.3,150.5 373.5,314.6 553.2,487.9 375,363.1 737.1,781.6 1076.1,1243.2 230.7,313.9 496.3,601.1 789.6,853.5 v 0 c 3967.4,3413.4 4636,7996.9 1843.9,12592.1 L 17981.2,20103.4 M 19104.9,4906.9 c -830.9,0 -1533.1,341.5 -1863.6,917.9 -313.6,546.7 -241.6,1206.6 202.8,1858.1 66.9,97.5 137.6,201.5 203.3,305.6 27,42.7 53.4,85.7 78.8,129.2 466.7,801.9 831.2,1727.3 1111.8,2824.4 -1438.4,714 -2392.4,1830.9 -2763.5,3238.9 -490.8,1862.2 85.9,4075.4 1623.9,6231.6 32.5,45.7 82.4,76 137.9,83.8 l 7308.6,1037.1 c 80.3,11.3 160,-25.8 202.8,-94.8 1396.1,-2251.9 2008.3,-4610 1770.2,-6819.5 -259.5,-2408.5 -1479.5,-4566.2 -3625.3,-6412.5 -269.8,-232.2 -514.3,-496.5 -726.7,-785.6 -352.4,-479.9 -729.8,-915.8 -1121.5,-1295.2 -189,-182.2 -384.5,-354.5 -581.4,-512.7 -514.9,-413.7 -1117.7,-655.3 -1743.3,-698.8 -72.5,-5 -144.1,-7.5 -214.8,-7.5"
         style="fill:#650000;fill-opacity:1;fill-rule:nonzero;stroke:none"
         transform="matrix(0.13333333,0,0,-0.13333333,0,5333.3333)" />
      <path
         id="path25"
         d="m 21536.6,6153.7 c -47.5,0 -94.4,21.9 -124.4,63.4 -929.5,1281.5 -2423.1,1911.8 -3551.6,1497.8 -79.7,-29.3 -167.9,11.7 -197.1,91.4 -29.1,79.5 11.7,167.8 91.4,197 645,236.4 1374.7,191.5 2110.3,-130 684.6,-299.1 1322.3,-823.2 1795.6,-1475.9 49.8,-68.7 34.5,-164.7 -34.1,-214.5 -27.3,-19.7 -58.8,-29.2 -90.1,-29.2"
         style="fill:#650000;fill-opacity:1;fill-rule:nonzero;stroke:none"
         transform="matrix(0.13333333,0,0,-0.13333333,0,5333.3333)" />
      <path
         id="path26"
         d="m 32282.6,9781.3 c -367.1,-734 -886.6,-1268.4 -1371.4,-1395.3 -201.1,-52.8 -410,47.6 -500.1,234.9 -2041.8,4238.4 -3212,10654.7 -7364.3,11372.4 l 1956.4,1008.9 c 579.4,-147.5 1145.6,-379.3 1691.2,-680.3 2837.3,-1564.8 5139.2,-4988.2 6055,-8021.6 103.9,-901.4 -109.6,-1804.9 -466.8,-2519"
         style="fill:#fb132b;fill-opacity:1;fill-rule:nonzero;stroke:none"
         transform="matrix(0.13333333,0,0,-0.13333333,0,5333.3333)" />
      <path
         id="path27"
         d="m 31365.9,8961.9 c 199.2,225.2 385.2,503.8 542.9,819.3 357.3,714.1 570.8,1617.5 466.9,2518.9 -830.6,2751.2 -2801.7,5823.5 -5278.1,7538.7 2561.5,-1657.2 4616.9,-4834.7 5450.4,-7580.2 143.3,-1299.7 -386,-2534.9 -994.1,-3196.6 -56.1,-34.5 -114.4,-65.9 -174.8,-94 -4.4,-2.1 -8.8,-4.1 -13.2,-6.1"
         style="fill:#fda1aa;fill-opacity:1;fill-rule:nonzero;stroke:none"
         transform="matrix(0.13333333,0,0,-0.13333333,0,5333.3333)" />
      <path
         id="path28"
         d="m 23631.2,20064.3 c 2856.6,-874.2 4225.9,-4458.5 5552.4,-7931.5 467.3,-1223.2 908.6,-2378.6 1411.8,-3423.2 48.4,-100.3 159.2,-153 263.8,-125.8 803.6,210.7 1886.6,1881.2 1688.8,3674.8 -1048.5,3453.5 -4030.4,7590.8 -7520.8,8525.5 l -1396,-719.8 M 30803.9,8167.2 c -240.4,0 -468.2,138.1 -577.4,364.7 -510.7,1060 -975.7,2277.5 -1425.4,3454.8 -1368.1,3581.6 -2782.7,7285.1 -5789.2,7804.8 -86.7,15 -154.1,83.7 -167.5,170.7 -13.4,86.9 30.3,172.7 108.5,213.1 l 1956.3,1008.7 c 44.5,22.9 95.8,28.7 144.2,16.4 1712.8,-435.2 3413.2,-1612.2 4917.2,-3403.6 1323,-1575.8 2407.3,-3557.7 2974.8,-5437.5 3.5,-11.7 6,-23.7 7.4,-35.8 217.3,-1889.4 -912.4,-3853.3 -1989.8,-4135.8 -52.8,-13.8 -106.3,-20.5 -159.1,-20.5"
         style="fill:#650000;fill-opacity:1;fill-rule:nonzero;stroke:none"
         transform="matrix(0.13333333,0,0,-0.13333333,0,5333.3333)" />
      <path
         id="path29"
         d="m 23998.8,20634.1 c 2612.6,-117.6 4496.5,-2420.4 5308,-4727.5 30.7,-92 -104.8,-148.3 -144.6,-54.1 -112,284 -238.3,562 -376.7,833.5 -681.9,1334.3 -1699.4,2577.5 -3074.8,3221.2 -542.2,251.5 -1130.4,396.6 -1725.5,420.1 -201.5,12.5 -192.5,310.7 13.6,306.8"
         style="fill:#650000;fill-opacity:1;fill-rule:nonzero;stroke:none"
         transform="matrix(0.13333333,0,0,-0.13333333,0,5333.3333)" />
      <path
         id="path30"
         d="m 30803.6,8576.7 c -86.2,0 -168.4,50.3 -208.2,132.9 -503.2,1044.6 -944.5,2200 -1411.8,3423.2 -1227.1,3212.7 -2490.9,6520.7 -4934.6,7690.5 313.3,75.2 616.4,175.6 906.9,299 189,-59.6 374.5,-131.5 554.8,-215.1 582.7,-272.7 1101.2,-653.1 1557.1,-1102.3 -218.9,-56.2 -396.5,-301.5 -406.5,-542.8 -12.8,-309.2 156.1,-592.8 315.3,-857.9 1250.5,-2086.4 2251.2,-4322.8 2973,-6645.7 162.8,-523.1 312.2,-1052.4 532.3,-1554 40.5,-93.2 87,-189.4 168.4,-249.8 63.5,-46.9 138.4,-65.7 216.4,-65.7 100.4,0 206,31 299.2,72.9 -103.4,-116.9 -210.4,-219.3 -318.9,-305.1 -63.7,-32.4 -126.6,-56.9 -187.8,-73 -18.5,-4.8 -37.1,-7.1 -55.6,-7.1"
         style="fill:#dd0f22;fill-opacity:1;fill-rule:nonzero;stroke:none"
         transform="matrix(0.13333333,0,0,-0.13333333,0,5333.3333)" />
      <path
         id="path31"
         d="m 31047,8656.8 c 108.5,85.8 215.5,188.2 318.9,305.1 4.4,2 8.8,4 13.2,6.1 60.4,28.1 118.7,59.5 174.8,94 -167.1,-181.9 -340.2,-320.5 -506.9,-405.2"
         style="fill:#df8188;fill-opacity:1;fill-rule:nonzero;stroke:none"
         transform="matrix(0.13333333,0,0,-0.13333333,0,5333.3333)" />
      <path
         id="path32"
         d="m 30803.1,8372 c -164.1,0 -318,95.1 -392,248.9 -1894.2,3931.8 -3037.8,9737.8 -6508.4,11130.1 19.3,3.5 38.7,7.1 57.9,10.7 97,18.2 193.2,38.7 288.4,61.6 2443.7,-1169.8 3707.5,-4477.8 4934.6,-7690.5 467.3,-1223.2 908.6,-2378.6 1411.8,-3423.2 39.8,-82.6 122,-132.9 208.2,-132.9 18.5,0 37.1,2.3 55.6,7.1 61.2,16.1 124.1,40.6 187.8,73 166.7,84.7 339.8,223.3 506.9,405.2 290.5,178 525.8,435.4 728.7,719.3 -367.1,-734 -886.6,-1268.4 -1371.4,-1395.3 -36,-9.5 -72.3,-14 -108.1,-14"
         style="fill:#650000;fill-opacity:1;fill-rule:nonzero;stroke:none"
         transform="matrix(0.13333333,0,0,-0.13333333,0,5333.3333)" />
      <path
         id="path33"
         d="m 26901.9,19472.9 c -417.7,341 -876.2,623.2 -1372.1,824.5 118.1,60.5 233.9,125.2 346.8,193.5 272.3,-115 540.5,-248.5 804,-398.5 14,-212.5 99.1,-421.4 221.3,-619.5"
         style="fill:#dd0f22;fill-opacity:1;fill-rule:nonzero;stroke:none"
         transform="matrix(0.13333333,0,0,-0.13333333,0,5333.3333)" />
      <path
         id="path34"
         d="m 26680.6,20092.4 c -263.5,150 -531.7,283.5 -804,398.5 71,43 141,87.4 209.9,133.3 205.1,-91 407.9,-192 607.9,-302.3 -14.8,-76.7 -18.9,-153.4 -13.8,-229.5"
         style="fill:#650000;fill-opacity:1;fill-rule:nonzero;stroke:none"
         transform="matrix(0.13333333,0,0,-0.13333333,0,5333.3333)" />
      <path
         id="path35"
         d="m 27459.7,18803.1 c -33.1,9.4 -66.1,13.8 -98.6,13.8 -31.7,0 -62.9,-4.2 -93.3,-12 -455.9,449.2 -974.4,829.6 -1557.1,1102.3 -180.3,83.6 -365.8,155.5 -554.8,215.1 127.2,54 251.8,112.4 373.9,175.1 495.9,-201.3 954.4,-483.5 1372.1,-824.5 150.8,-244.3 358,-472.2 557.8,-669.8"
         style="fill:#650000;fill-opacity:1;fill-rule:nonzero;stroke:none"
         transform="matrix(0.13333333,0,0,-0.13333333,0,5333.3333)" />
      <path
         id="path36"
         d="m 23228.5,16514.5 c -1797.2,-897.8 -3594.9,-1087.2 -5392.6,-635.2 -140.8,35.3 -281,74.7 -421.8,117.7 -193,59.4 -404.9,23.6 -560.5,-105.4 -96.2,-79.9 -197.1,-153.6 -300.5,-220.6 -442.7,-285.1 -940.3,-444.3 -1398.9,-433.1 -802.1,20 -1355,816 -1125.6,1584.8 383.9,1284.3 1554.5,2191.3 3083,2681.2 872.7,279.5 1862.7,423.3 2889,423.3 l 1405.6,30.7 1640.6,35.4 c 1077.5,-489.4 1359,-2765.2 181.7,-3478.8"
         style="fill:#fcc9cd;fill-opacity:1;fill-rule:nonzero;stroke:none"
         transform="matrix(0.13333333,0,0,-0.13333333,0,5333.3333)" />
      <path
         id="path37"
         d="m 23228.5,16514.5 c -1797.2,-897.8 -3594.9,-1087.2 -5392.6,-635.2 -140.8,35.3 -281,74.7 -421.8,117.7 -193,59.4 -404.9,23.6 -560.5,-105.4 -96.2,-79.9 -197.1,-153.6 -300.5,-220.6 156.2,440.7 312.3,881.4 468.9,1322.2 16.4,47 38.9,100.3 86,117.2 38.7,13.8 72.5,0.9 83.4,0.5 75.8,-2.6 176.4,618.1 308.1,2054.5 221.2,-251.4 516.3,-646.8 738.2,-1192 63.1,-155 113.1,-304.7 152.9,-446.4 105.4,-375.4 470.3,-615.2 855.9,-556.7 261,39.5 550.2,88.4 862.1,148.8 1184.6,229.4 1401.3,375.1 1537.7,574.3 245.5,358.6 241.2,906.4 -4.6,1278.2 -221.7,335.2 -576,430.6 -972.6,537.4 -328,88.4 -930,196.8 -1714.8,25.6 1364.2,152.9 2728.3,305.8 4092.5,458.7 1077.5,-489.4 1359,-2765.2 181.7,-3478.8"
         style="fill:#f2a5a5;fill-opacity:1;fill-rule:nonzero;stroke:none"
         transform="matrix(0.13333333,0,0,-0.13333333,0,5333.3333)" />
      <path
         id="path38"
         d="m 17835.9,15879.3 c -140.8,35.3 -281,74.7 -421.8,117.7 -193,59.4 -404.9,23.6 -560.5,-105.4 -508.3,-421.8 -1133.3,-667.5 -1699.4,-653.7 -802.1,20 -1355,816 -1125.6,1584.8 383.9,1284.3 1554.5,2191.3 3083,2681.2 56.3,-47.1 111.6,-94.2 166.9,-141.3 149.9,-127.9 301.5,-258 414.1,-420.2 210.9,-303.6 262.6,-687.5 288.7,-1056 47.1,-664.4 17.9,-1361.6 -145.4,-2007.1"
         style="fill:#0096f0;fill-opacity:1;fill-rule:nonzero;stroke:none"
         transform="matrix(0.13333333,0,0,-0.13333333,0,5333.3333)" />
      <path
         id="path39"
         d="m 14605.3,17428 -51.8,137.3 c 549.4,824.1 1443.4,1353.6 2387.8,1684.9 38.4,-38.3 78.8,-81.5 119.6,-129.9 -1050.8,-364.9 -1918.5,-933.6 -2455.6,-1692.3"
         style="fill:#99d5f9;fill-opacity:1;fill-rule:nonzero;stroke:none"
         transform="matrix(0.13333333,0,0,-0.13333333,0,5333.3333)" />
      <path
         id="path40"
         d="m 15251.9,15368.2 c -74.6,0 -148.2,5.3 -219.8,16.6 61.9,152.2 89.1,316.4 81.3,491.6 398.4,115.5 874.5,400.2 1242.9,753.2 0,0 335.5,321.4 605.7,321.4 14.6,0 29,-0.9 43.1,-2.9 1.1,-0.1 2.2,-0.3 4.4,-0.6 7.8,-1 15.7,-1.5 23.5,-1.5 206.4,0 396.6,347.4 424.5,398.1 260.1,472.8 30.8,1180.9 -281.9,1627.5 -37.9,54.1 -76.5,103.6 -114.7,148.7 34.4,11.9 68.8,23.6 103.6,35.1 574.4,-486.1 777.5,-1641.6 533.6,-3134.4 l -152.9,44.5 c -95.3,29.1 -211,64.2 -319.5,64.2 -11.7,0 -23.2,-0.4 -34.7,-1.2 -143.2,-5.9 -287.1,-57.9 -400.8,-148.6 -71,-55.4 -148.1,-115.5 -223.2,-164.5 -366.5,-250.6 -861.3,-447.2 -1315.1,-447.2"
         style="fill:#1478c0;fill-opacity:1;fill-rule:nonzero;stroke:none"
         transform="matrix(0.13333333,0,0,-0.13333333,0,5333.3333)" />
      <path
         id="path41"
         d="m 17060.9,19120.3 c -40.8,48.4 -81.2,91.6 -119.6,129.9 19.5,6.9 38.9,13.6 58.5,20.3 57.8,-32.7 112.8,-71.2 164.7,-115.1 -34.8,-11.5 -69.2,-23.2 -103.6,-35.1"
         style="fill:#8faac7;fill-opacity:1;fill-rule:nonzero;stroke:none"
         transform="matrix(0.13333333,0,0,-0.13333333,0,5333.3333)" />
      <path
         id="path42"
         d="m 23047.9,19942.2 c -1704.1,-357.1 -3474.5,-28.8 -5172.3,-426.6 -1404,-314.7 -2909.1,-995.7 -3553.8,-2359.6 -37.6,-81.1 -89.3,-203 -115.8,-288 -25.6,-64.4 -46.5,-146.7 -62.1,-213.5 -33.5,-212.3 -18.1,-435.5 72.6,-634.3 435.2,-976.3 1636.5,-693 2350.5,-204.8 75.1,49 152.2,109.1 223.2,164.5 113.7,90.7 257.6,142.7 400.8,148.6 118.2,8.8 248.7,-30.8 354.2,-63 l 310.2,-90.3 c 1355.1,-364.2 2809.9,-333.3 4149.2,92 414,127.4 816.7,290.7 1211.1,473 14.2,6.6 31,0.4 37.6,-13.8 5.4,-11.8 2.2,-25.3 -7.1,-33.3 -555.8,-482.8 -1258.6,-747.7 -1970.1,-894.9 -1260,-267.5 -2586.5,-198 -3816.7,174.6 -191.9,65.3 -351.6,77.4 -506.7,-58.3 -677.5,-537 -1784.9,-952.9 -2563.5,-398 -430.3,314.4 -651.4,869.8 -553.6,1392.1 20.2,82 42.2,180.8 74.2,258.3 25.5,94.9 89.2,226.5 128.7,317.9 285,615.8 770.1,1132.5 1326,1514.1 1476.9,1012.7 3318.8,1237.5 5067.6,1208.4 871.2,6.2 1742.3,24.2 2613.6,37 27.9,0.4 50.9,-21.9 51.3,-49.9 -0.2,-29.1 -21.7,-48.9 -49.1,-52.2"
         style="fill:#650000;fill-opacity:1;fill-rule:nonzero;stroke:none"
         transform="matrix(0.13333333,0,0,-0.13333333,0,5333.3333)" />
      <path
         id="path43"
         d="m 17848.1,15752.4 c -9.3,0 -18.7,0.8 -28.2,2.5 -89.7,15.4 -149.9,100.7 -134.5,190.4 297.5,1727.6 3.5,3017.6 -767.3,3366.7 -82.9,37.6 -119.7,135.2 -82.1,218.2 37.5,83 135.2,119.6 218.2,82.2 913.9,-414 1280.3,-1840.5 956.2,-3723 -13.8,-80.3 -83.5,-137 -162.3,-137"
         style="fill:#650000;fill-opacity:1;fill-rule:nonzero;stroke:none"
         transform="matrix(0.13333333,0,0,-0.13333333,0,5333.3333)" />
      <path
         id="path44"
         d="m 17062.4,31227.9 -2228.7,-4448.2 c -1513.6,-802.6 -2284.5,858.4 -1394.3,2463.2 105.4,189.9 233.9,379.2 387.5,563.5 217,1124.6 1166,1556.1 2364.9,1519.8 278.4,-8.2 571.2,-42 870.6,-98.3"
         style="fill:#f9c9ca;fill-opacity:1;fill-rule:nonzero;stroke:none"
         transform="matrix(0.13333333,0,0,-0.13333333,0,5333.3333)" />
      <path
         id="path45"
         d="m 17062.4,31227.9 -2228.7,-4448.2 c -1513.6,-802.6 -2284.5,858.4 -1394.3,2463.2 223.7,368.5 539,669.5 948.5,781.6 -261.1,-141.8 -416.2,-420.8 -526.2,-696.7 -78.8,-198.6 -143.3,-407.4 -138.2,-620.9 5.1,-213.4 88.5,-433 258.5,-562.5 176.1,-133.6 421.3,-151 633.7,-88.6 211.9,61.9 396.2,195 562.5,341.4 524.2,461.2 909.1,1078.6 1091.9,1752.2 81.9,302.5 123.3,627 35.3,928 -25.6,87 -64,171.5 -113.6,248.8 278.4,-8.2 571.2,-42 870.6,-98.3"
         style="fill:#f2a5a5;fill-opacity:1;fill-rule:nonzero;stroke:none"
         transform="matrix(0.13333333,0,0,-0.13333333,0,5333.3333)" />
      <path
         id="path46"
         d="m 16065.1,31120.3 c -845.7,0 -1824.7,-250.5 -2037,-1352.8 -6.5,-34 -21.6,-65.7 -43.7,-92.3 -824.1,-988.9 -884.3,-2112.3 -466.4,-2627.1 258.8,-318.8 670.1,-359.4 1162.7,-116.5 l 2074,4138.8 c -202.9,28.1 -440.6,49.9 -689.6,49.9 m -1971.3,-4752.4 c -355.2,0 -666.5,142.2 -893.8,422.1 -509.2,627.3 -525.1,1923.6 436.6,3107 149.2,692.7 576.9,1190.9 1239.7,1442.8 583,221.6 1352.1,252.4 2223.9,89.2 63.2,-11.9 117.2,-52.7 145.8,-110.3 28.5,-57.6 28.4,-125.2 -0.4,-182.7 l -2228.8,-4447.8 c -19.1,-38.1 -49.5,-69.2 -87.1,-89.2 -291.6,-154.6 -575.5,-231.1 -835.9,-231.1"
         style="fill:#650000;fill-opacity:1;fill-rule:nonzero;stroke:none"
         transform="matrix(0.13333333,0,0,-0.13333333,0,5333.3333)" />
      <path
         id="path47"
         d="m 13333,29366.5 c 253.1,508.6 805.7,886 1387,798.2 64,-7.6 71.9,-101.1 10.7,-119.5 -124.7,-39.9 -243.6,-80.2 -353.3,-131.2 -336.5,-148 -567.3,-421.8 -784.2,-710.8 -115.1,-148.2 -343.5,-3.6 -260.2,163.3"
         style="fill:#650000;fill-opacity:1;fill-rule:nonzero;stroke:none"
         transform="matrix(0.13333333,0,0,-0.13333333,0,5333.3333)" />
      <path
         id="path48"
         d="m 15679.4,31681.9 -13.4,16.9 c 10.8,-1.5 21.5,-3.5 32.3,-6.1 -6.7,-3.6 -12.8,-7.2 -18.9,-10.8"
         style="fill:#ccaa65;fill-opacity:1;fill-rule:nonzero;stroke:none"
         transform="matrix(0.13333333,0,0,-0.13333333,0,5333.3333)" />
      <path
         id="path49"
         d="m 14123.1,30097 c 107.4,269.6 271.6,472.4 470.5,623.1 -20.7,-37.9 -39.3,-76.9 -55.5,-116.9 -30.7,-75.8 -53.5,-157.4 -44.6,-238.7 7.7,-70.2 40.4,-137 89.7,-187.6 -11,0.3 -21.8,0.5 -32.8,0.5 -147.6,0 -291.6,-28.7 -427.3,-80.4"
         style="fill:#daa7ac;fill-opacity:1;fill-rule:nonzero;stroke:none"
         transform="matrix(0.13333333,0,0,-0.13333333,0,5333.3333)" />
      <path
         id="path50"
         d="m 13875.2,29971.7 c 29.3,274.2 185.5,531 388.9,722 236.1,221.7 531.4,368.4 824.7,505.7 -208.6,-104.4 -383.3,-274.7 -495.2,-479.3 -198.9,-150.7 -363.1,-353.5 -470.5,-623.1 -86.4,-33 -169.4,-75.2 -247.9,-125.3"
         style="fill:#64060a;fill-opacity:1;fill-rule:nonzero;stroke:none"
         transform="matrix(0.13333333,0,0,-0.13333333,0,5333.3333)" />
      <path
         id="path51"
         d="m 13871.2,29838 c -2.2,44.9 -0.7,89.5 4,133.7 78.5,50.1 161.5,92.3 247.9,125.3 135.7,51.7 279.7,80.4 427.3,80.4 11,0 21.8,-0.2 32.8,-0.5 20.5,-21 43.8,-39.2 69.4,-53.6 l 9.1,-28.8 c -26,21.5 -56.9,29.7 -89.6,29.7 -52.4,0 -109.6,-21.2 -158.9,-43.3 -180.7,-81 -361.3,-161.9 -542,-242.9"
         style="fill:#64060a;fill-opacity:1;fill-rule:nonzero;stroke:none"
         transform="matrix(0.13333333,0,0,-0.13333333,0,5333.3333)" />
      <path
         id="path52"
         d="m 14800.9,24607.3 c 48.9,-410.6 20.8,-826.3 -80.2,-1227.3 -455.7,-1811 854.3,-3773.7 2860.1,-3913.6 2168.9,-42.2 4286,111.7 6342.1,496.6 1986,371.7 3623.5,1804.7 4217.8,3735.8 963.5,3131 -659.2,7001 -4332.1,8837.5 -4574.3,2045.5 -9809.1,-1204 -9007.7,-7929"
         style="fill:#f9c9ca;fill-opacity:1;fill-rule:nonzero;stroke:none"
         transform="matrix(0.13333333,0,0,-0.13333333,0,5333.3333)" />
      <path
         id="path53"
         d="m 15510.2,20812.7 c -30.5,21.7 -60.5,44 -90,66.8 -2.5,3.5 -5,6.9 -7.5,10.3 -522.5,720.7 -702.3,1610.2 -493.4,2440.2 108.1,429.3 136.6,867.2 84.9,1301.6 -368.8,3095 562.2,5710.8 2554.2,7176.9 464.6,341.9 968.5,607 1498.2,794.4 113.9,21 228.7,38.4 344.3,52.3 -2765.9,-916.6 -4818.1,-3787.7 -4293,-8116 49.2,-405.7 20.9,-816.3 -80.6,-1212.5 -225.2,-879 -21.7,-1794.1 482.9,-2514"
         style="fill:#fde9ea;fill-opacity:1;fill-rule:nonzero;stroke:none"
         transform="matrix(0.13333333,0,0,-0.13333333,0,5333.3333)" />
      <path
         id="path54"
         d="m 23608.4,32379.6 c -1745.7,779.5 -3589.9,771 -5142.7,80.2 1287.1,388.6 2732.3,304.9 4111.3,-313.7 3318.9,-1664.8 4785.2,-5173.1 3914.5,-8011.3 -537,-1750.6 -2016.7,-3049.6 -3811.2,-3386.6 -1858,-348.9 -3771.1,-488.4 -5731,-450.2 -791.8,55.4 -1463.5,426.2 -1934.7,963.1 478.5,-889 1380.2,-1556.7 2507.8,-1635.2 2119.5,-41.2 4188.3,109.1 6197.7,484.6 1940.7,362.7 3541,1761 4121.7,3645.4 941.6,3055.2 -644.1,6831.6 -4233.4,8623.7"
         style="fill:#f2a5a5;fill-opacity:1;fill-rule:nonzero;stroke:none"
         transform="matrix(0.13333333,0,0,-0.13333333,0,5333.3333)" />
      <path
         id="path55"
         d="m 18198.7,25005.6 c -215.7,-109 -451.5,-176 -690,-228.5 -1831.8,-402.5 -1613.3,-3600.5 1617.4,-2892.7 1785,446.8 2127.4,2578.9 694.6,3197.4 -334.4,144.3 -711.6,170.2 -1073,104.7 -199.2,-36.1 -382,-96.7 -549,-180.9"
         style="fill:#f2a5a5;fill-opacity:1;fill-rule:nonzero;stroke:none"
         transform="matrix(0.13333333,0,0,-0.13333333,0,5333.3333)" />
      <path
         id="path56"
         d="m 22982.2,26418.8 c -86.8,842.3 -663,1473 -1287.1,1408.8 -624,-64.3 -1059.6,-799.2 -972.9,-1641.5 86.8,-842.3 663,-1473 1287.1,-1408.8 624,64.3 1059.6,799.2 972.9,1641.5"
         style="fill:#650000;fill-opacity:1;fill-rule:nonzero;stroke:none"
         transform="matrix(0.13333333,0,0,-0.13333333,0,5333.3333)" />
      <path
         id="path57"
         d="m 17590,19670.9 c 2201.5,-42 4319.5,123.6 6295.2,493.4 1933.2,361.8 3488.8,1739.2 4059.8,3594.7 984.9,3200.5 -830.8,6893.5 -4223.9,8592.1 -2114.6,944.1 -4418,741.3 -6162.7,-542.6 -1992,-1466.1 -2923,-4081.9 -2554.2,-7176.9 51.7,-434.4 23.2,-872.3 -84.9,-1301.6 -208.9,-830 -29.1,-1719.5 493.4,-2440.2 516.8,-712.8 1310.2,-1156.8 2177.3,-1218.9 m 671.2,-415.9 c -227.2,0 -455.3,2.2 -684.4,6.7 -3.4,0 -6.8,0.2 -10.2,0.4 -990.4,69.1 -1896.3,574.8 -2485.4,1387.3 -593.8,819.2 -797.6,1832.6 -559,2780.6 95.8,380.6 121.2,768.6 75.3,1153.1 -386.7,3245.5 604,5999.3 2718.2,7555.2 1866,1373.3 4324.5,1591.9 6576.5,584.9 2.7,-1.2 5.4,-2.5 8,-3.8 1777.2,-888.6 3197.3,-2319.7 3998.5,-4029.6 775.4,-1654.7 930.8,-3448.6 437.7,-5051.3 -616,-2001.3 -2292.6,-3486.8 -4375.8,-3876.8 C 22161.7,19425 20247.4,19255 18261.2,19255"
         style="fill:#650000;fill-opacity:1;fill-rule:nonzero;stroke:none"
         transform="matrix(0.13333333,0,0,-0.13333333,0,5333.3333)" />
      <path
         id="path58"
         d="m 21847.8,25940.9 c -49.5,312.3 -249.4,540.2 -446.7,508.9 -197.2,-31.2 -317.1,-309.6 -267.7,-622 49.4,-312.3 249.4,-540.1 446.7,-508.9 197.2,31.2 317.1,309.7 267.7,622"
         style="fill:#ffffff;fill-opacity:1;fill-rule:nonzero;stroke:none"
         transform="matrix(0.13333333,0,0,-0.13333333,0,5333.3333)" />
      <path
         id="path59"
         d="m 22318.1,25905.4 c -2.8,0 -5.6,0.1 -8.4,0.2 -155.5,7.2 -272.5,212.7 -261.2,459 11.1,242 141.8,433.3 293.9,433.3 2.8,0 5.6,0 8.3,-0.2 155.6,-7.1 272.6,-212.6 261.3,-459 -11.2,-241.9 -141.9,-433.3 -293.9,-433.3"
         style="fill:#9b5959;fill-opacity:1;fill-rule:nonzero;stroke:none"
         transform="matrix(0.13333333,0,0,-0.13333333,0,5333.3333)" />
      <path
         id="path60"
         d="m 17503.8,25528.6 c -70.3,708.3 -536.6,1238.8 -1041.6,1184.7 -505,-54.1 -857.4,-672.1 -787.2,-1380.5 70.2,-708.3 536.5,-1238.7 1041.5,-1184.7 505,54.1 857.5,672.1 787.3,1380.5"
         style="fill:#650000;fill-opacity:1;fill-rule:nonzero;stroke:none"
         transform="matrix(0.13333333,0,0,-0.13333333,0,5333.3333)" />
      <path
         id="path61"
         d="m 16585.8,25126.6 c -40,262.7 -201.8,454.3 -361.5,428.1 -159.6,-26.3 -256.6,-260.5 -216.6,-523.1 40,-262.7 201.8,-454.3 361.4,-428 159.7,26.2 256.6,260.4 216.7,523"
         style="fill:#ffffff;fill-opacity:1;fill-rule:nonzero;stroke:none"
         transform="matrix(0.13333333,0,0,-0.13333333,0,5333.3333)" />
      <path
         id="path62"
         d="m 16966.4,25096.9 c -2.3,0 -4.5,0 -6.8,0.1 -125.9,6 -220.5,178.8 -211.4,386 9,203.5 114.8,364.4 237.8,364.4 2.3,0 4.5,-0.1 6.8,-0.2 125.9,-6 220.5,-178.8 211.4,-386 -9,-203.4 -114.8,-364.4 -237.8,-364.3"
         style="fill:#9b5959;fill-opacity:1;fill-rule:nonzero;stroke:none"
         transform="matrix(0.13333333,0,0,-0.13333333,0,5333.3333)" />
      <path
         id="path63"
         d="m 20492.5,20828.1 c -56.3,-75.7 -141.8,-124.9 -230.3,-158.7 -90.6,-35.3 -193,-56.8 -285.1,-25.5 -94.2,31.7 -163.3,115.1 -199.2,208.8 -5.1,12.3 -9.2,24.6 -12.7,36.9 -26.7,94.1 -29.2,201.6 -93.7,275.3 -40.5,46.1 -99.3,71.2 -147.4,109.1 -88.6,69.6 -137.2,186.3 -124.9,297.9 12.8,111.6 86,214.5 187.8,263.1 64.5,30.7 137.2,39.4 208.4,43.5 160.7,9.2 336.8,-11.8 452.5,-123.9 l -14.9,2.1 c 7.7,-5.2 14.3,-10.3 21.5,-15.4 165.3,-123.4 270.8,-318.9 304.6,-522.1 0.5,-4.1 1.5,-8.2 2,-12.3 20,-130.5 10.3,-272.8 -68.6,-378.8"
         style="fill:#650000;fill-opacity:1;fill-rule:nonzero;stroke:none"
         transform="matrix(0.13333333,0,0,-0.13333333,0,5333.3333)" />
      <path
         id="path64"
         d="m 20492.5,20828.1 c -56.3,-75.7 -141.8,-124.9 -230.3,-158.7 -90.6,-35.3 -193,-56.8 -285.1,-25.5 -94.2,31.7 -163.3,115.1 -199.2,208.8 2.6,23 4.7,36.9 4.7,36.9 0,0 78.3,759.6 776.5,329.6 0.5,-4.1 1.5,-8.2 2,-12.3 20,-130.5 10.3,-272.8 -68.6,-378.8"
         style="fill:#ff6883;fill-opacity:1;fill-rule:nonzero;stroke:none"
         transform="matrix(0.13333333,0,0,-0.13333333,0,5333.3333)" />
      <path
         id="path65"
         d="m 19673.1,21797.7 c 127.2,1.5 258.6,5.2 380.1,-37.8 110.5,-39.1 227.7,-120.9 287.8,-223.6 109,-186.5 239.8,-512.8 43.6,-689.1 -82.4,-74 -232.8,-139.9 -344.3,-113.4 -116.7,27.6 -158,151.2 -181.2,254.2 -30.5,135.1 -75.2,236.7 -194.5,315 -99,65 -180.1,150.2 -154,279.5 62.7,310.9 529.7,240.3 728.7,128.7 41.8,-23.4 98.4,25.5 69,69 -45.5,67.1 -101.6,114.6 -179.1,140.8 -76.9,26.1 -160.9,35.4 -241.8,36.2 -168.5,1.8 -349.6,-12.2 -464.2,-151.6 -108.2,-131.8 -128.9,-308.7 -54.4,-462.2 37.7,-77.8 99.2,-134.8 170.5,-181.5 28.5,-18.6 61.5,-35.5 82.8,-63.1 23.1,-30 31.1,-71.3 38.9,-107.3 34.5,-160.8 78.7,-314.2 227.5,-406.8 160.4,-99.8 363.9,-49.5 521,30.4 348,177.1 333.6,612.9 169.4,916.4 -87.3,161.4 -238.3,297.6 -408.5,365.8 -167.9,67.3 -376.4,84.4 -522.3,-39.2 -23.9,-20.2 -4.1,-60.7 25,-60.4"
         style="fill:#650000;fill-opacity:1;fill-rule:nonzero;stroke:none"
         transform="matrix(0.13333333,0,0,-0.13333333,0,5333.3333)" />
      <path
         id="path66"
         d="m 17962.9,25020.5 c -188.4,-101.4 -394.3,-163.8 -602.6,-212.5 -1599.8,-374.6 -1409,-3350.4 1412.6,-2691.7 1558.9,415.7 1857.9,2399.6 606.6,2975.1 -292.1,134.3 -621.5,158.5 -937.1,97.5 -174,-33.6 -333.7,-90 -479.5,-168.4"
         style="fill:#ff6883;fill-opacity:1;fill-rule:nonzero;stroke:none"
         transform="matrix(0.13333333,0,0,-0.13333333,0,5333.3333)" />
      <path
         id="path67"
         d="m 16461.1,24030.8 c 0.1,0.2 0.2,0.5 0.3,0.7 -0.1,-0.2 -0.2,-0.5 -0.3,-0.7 m 1.2,2.9 c 0.1,0.4 0.3,0.9 0.5,1.3 -0.2,-0.4 -0.4,-0.9 -0.5,-1.3 m 0.8,2 c 16.9,41.1 35.7,81.4 56.4,120.6 v 0 c -20.7,-39.3 -39.5,-79.4 -56.4,-120.6"
         style="fill:#fde9ea;fill-opacity:1;fill-rule:nonzero;stroke:none"
         transform="matrix(0.13333333,0,0,-0.13333333,0,5333.3333)" />
      <path
         id="path68"
         d="m 16519.5,24156.3 v 0 c 147.4,279.6 391,507.6 721.8,618 -330.8,-110.4 -574.3,-338.4 -721.8,-618 m 721.9,618 c 1.3,0.5 2.5,0.9 3.8,1.3 -1.3,-0.4 -2.5,-0.8 -3.8,-1.3 m 4,1.3 c 1.9,0.7 4,1.4 5.9,2 -2,-0.6 -4,-1.3 -5.9,-2 m 6,2 c 1.1,0.4 2.5,0.8 3.7,1.2 -1.3,-0.4 -2.5,-0.8 -3.7,-1.2 m 4.4,1.5 c 1,0.3 2.1,0.6 3,0.9 -1,-0.3 -2,-0.6 -3,-0.9 m 3.9,1.2 c 1,0.3 1.9,0.6 2.8,0.9 -0.9,-0.3 -1.8,-0.6 -2.8,-0.9 m 4,1.2 c 0.5,0.2 1.1,0.4 1.6,0.6 -0.5,-0.2 -1.1,-0.4 -1.6,-0.6 m 3.8,1.2 c 0.5,0.2 1.1,0.4 1.6,0.5 -0.6,-0.1 -1,-0.3 -1.6,-0.5 m 3.6,1.2 c 0.5,0.1 1.1,0.3 1.7,0.5 -0.6,-0.2 -1.1,-0.4 -1.7,-0.5 m 3.4,1 c 0.6,0.2 1.3,0.4 1.9,0.6 -0.6,-0.2 -1.3,-0.4 -1.9,-0.6 m 3.7,1.1 c 0.4,0.1 0.9,0.3 1.3,0.4 -0.5,-0.1 -0.9,-0.3 -1.3,-0.4 m 3.8,1.1 c 0.4,0.2 0.8,0.3 1.3,0.4 -0.4,-0.1 -1,-0.2 -1.3,-0.4 m 3.8,1.2 c 0.4,0.1 0.8,0.2 1.2,0.3 -0.4,-0.1 -0.8,-0.2 -1.2,-0.3 m 3.6,1.1 c 0.4,0.1 0.9,0.2 1.3,0.3 -0.4,-0.1 -0.9,-0.2 -1.3,-0.3 m 3.5,0.9 c 0.3,0.2 0.8,0.3 1.2,0.4 -0.4,-0.1 -0.8,-0.2 -1.2,-0.4 m 3.7,1.1 c 0.4,0.1 0.7,0.2 1,0.3 -0.3,-0.1 -0.6,-0.2 -1,-0.3 m 3.9,1.1 c 0.3,0.1 0.5,0.2 0.8,0.3 -0.3,-0.1 -0.5,-0.2 -0.8,-0.3 m 3.8,1.1 c 0.2,0 0.5,0.1 0.8,0.2 -0.3,-0.1 -0.6,-0.1 -0.8,-0.2 m 3.8,1.1 c 0.1,0 0.3,0 0.4,0.1 -0.1,-0.1 -0.3,-0.1 -0.4,-0.1 m 3.3,0.9 c 0.3,0 0.5,0.1 0.7,0.1 -0.3,0 -0.4,-0.1 -0.7,-0.1 m 3.8,1 c 0.2,0.1 0.4,0.1 0.7,0.2 -0.2,-0.1 -0.5,-0.2 -0.7,-0.2 m 3.8,1 c 0.2,0.1 0.4,0.1 0.6,0.2 -0.2,-0.1 -0.4,-0.1 -0.6,-0.2 m 3.8,1 c 0.2,0.1 0.3,0.1 0.5,0.2 -0.2,-0.1 -0.3,-0.1 -0.5,-0.2 m 3.6,1 c 0.1,0 0.3,0 0.3,0.1 -0.1,-0.1 -0.2,-0.1 -0.3,-0.1 m 3.7,0.9 c 0.1,0.1 0.3,0.1 0.4,0.1 -0.2,0 -0.2,0 -0.4,-0.1 m 3.7,1 c 0.1,0 0.4,0.1 0.6,0.1 -0.2,0 -0.4,-0.1 -0.6,-0.1 m 3.8,0.9 c 0.2,0.1 0.3,0.1 0.5,0.2 -0.2,-0.1 -0.3,-0.1 -0.5,-0.2 m 3.9,1 c 0.1,0 0.1,0 0.2,0.1 l -0.2,-0.1 m 3.6,0.9 c 0.1,0 0.1,0 0.2,0.1 -0.1,-0.1 -0.1,-0.1 -0.2,-0.1 m 3.6,0.9 c 0.2,0 0.3,0.1 0.5,0.1 -0.2,0 -0.3,-0.1 -0.5,-0.1 m 3.8,0.9 c 0.1,0 0.4,0.1 0.5,0.1 -0.2,0 -0.3,0 -0.5,-0.1 m 3.9,0.9 c 0.1,0.1 0.2,0.1 0.4,0.1 -0.1,0 -0.3,0 -0.4,-0.1"
         style="fill:#c19999;fill-opacity:1;fill-rule:nonzero;stroke:none"
         transform="matrix(0.13333333,0,0,-0.13333333,0,5333.3333)" />
      <path
         id="path69"
         d="m 18442.4,25188.9 c 5.9,1.2 11.8,2.3 17.6,3.3 -5.8,-1 -11.7,-2.1 -17.6,-3.3"
         style="fill:#fde9ea;fill-opacity:1;fill-rule:nonzero;stroke:none"
         transform="matrix(0.13333333,0,0,-0.13333333,0,5333.3333)" />
      <path
         id="path70"
         d="m 17406,22102.8 c -956.5,279.4 -1230.8,1224.6 -944.9,1928 0.1,0.2 0.2,0.5 0.3,0.7 0.3,0.8 0.5,1.4 0.9,2.2 0.1,0.4 0.3,0.9 0.5,1.3 0.1,0.3 0.2,0.4 0.3,0.7 16.9,41.2 35.7,81.3 56.4,120.6 147.5,279.6 391,507.6 721.8,618 0,0 0,0 0.1,0 1.3,0.5 2.5,0.9 3.8,1.3 0.1,0 0.1,0 0.2,0 1.9,0.7 3.9,1.4 5.9,2 0.1,0 0,0 0.1,0 1.2,0.4 2.4,0.8 3.7,1.2 0.3,0.1 0.4,0.2 0.7,0.3 1,0.3 2,0.6 3,0.9 0.3,0.1 0.6,0.2 0.9,0.3 1,0.3 1.9,0.6 2.8,0.9 0.4,0.1 0.8,0.2 1.2,0.3 0.5,0.2 1.1,0.4 1.6,0.6 0.8,0.2 1.5,0.4 2.2,0.6 0.6,0.2 1,0.4 1.6,0.5 0.7,0.2 1.3,0.5 2,0.7 0.6,0.1 1.1,0.3 1.7,0.5 0.6,0.1 1.1,0.3 1.7,0.5 0.6,0.2 1.3,0.4 1.9,0.6 0.6,0.2 1.2,0.3 1.8,0.5 0.4,0.1 0.8,0.3 1.3,0.4 0.8,0.3 1.6,0.5 2.5,0.7 0.3,0.2 0.9,0.3 1.3,0.4 0.8,0.3 1.7,0.5 2.5,0.8 0.4,0.1 0.8,0.2 1.2,0.3 0.8,0.3 1.6,0.5 2.4,0.8 0.4,0.1 0.9,0.2 1.3,0.3 0.7,0.2 1.4,0.4 2.2,0.6 0.4,0.2 0.8,0.3 1.2,0.4 0.9,0.3 1.7,0.5 2.5,0.7 0.4,0.1 0.7,0.2 1,0.3 0.9,0.3 2,0.6 2.9,0.8 0.3,0.1 0.5,0.2 0.8,0.3 1,0.2 2,0.5 3,0.8 0.2,0.1 0.5,0.1 0.8,0.2 1,0.3 2,0.6 3,0.9 0.1,0 0.3,0 0.4,0.1 1,0.2 1.9,0.5 2.9,0.8 0.3,0 0.4,0.1 0.7,0.1 1,0.3 2.1,0.6 3.1,0.9 0.2,0 0.5,0.1 0.7,0.2 1,0.3 2,0.5 3.1,0.8 0.2,0.1 0.4,0.1 0.6,0.2 1,0.3 2.2,0.6 3.2,0.8 0.2,0.1 0.3,0.1 0.5,0.2 1.1,0.2 2,0.5 3.1,0.8 0.1,0 0.2,0 0.3,0.1 1.2,0.3 2.2,0.5 3.4,0.8 0.2,0.1 0.2,0.1 0.4,0.1 1.1,0.3 2.2,0.6 3.3,0.9 0.2,0 0.4,0.1 0.6,0.1 1.1,0.3 2.1,0.6 3.2,0.8 0.2,0.1 0.3,0.1 0.5,0.2 1.2,0.3 2.2,0.5 3.4,0.8 l 0.2,0.1 c 1.1,0.2 2.3,0.5 3.4,0.8 0.1,0 0.1,0 0.2,0.1 1.2,0.3 2.2,0.5 3.4,0.8 0.2,0 0.3,0.1 0.5,0.1 1.1,0.3 2.2,0.5 3.3,0.8 0.2,0.1 0.3,0.1 0.5,0.1 1.1,0.3 2.3,0.6 3.4,0.8 0.1,0.1 0.3,0.1 0.4,0.1 1.2,0.3 2.3,0.6 3.5,0.9 208.3,48.7 414.2,111.1 602.6,212.5 145.8,78.4 305.5,134.8 479.5,168.4 v 0 c 5.9,1.2 11.8,2.3 17.6,3.3 101.9,18.6 204.9,28.4 307.7,28.4 209.2,0 416.9,-40.3 608.5,-127.9 -131.8,36.5 -268.4,53.8 -405.6,53.8 -44.6,0 -89.3,-1.8 -133.9,-5.4 -52.8,5.1 -103.3,7.2 -150.5,7.2 -154.6,0 -273.9,-22.1 -320.3,-30.8 -53,-10 -104.1,-22.8 -154.4,-37.1 33.4,3.1 75.5,5.8 124.4,5.8 45.8,0 97.5,-2.3 153.8,-8.8 -114.1,-32.9 -221.4,-76.6 -322,-130.7 -188.5,-101.4 -394.4,-163.8 -602.7,-212.6 -978.5,-229.1 -1287.1,-1431.3 -733.4,-2179.7 -10.4,5.1 -20.1,10.1 -29.3,14.8 15.9,-14.3 33.7,-29.8 53.4,-46.4 135.3,-172 317.9,-318.2 550.3,-420"
         style="fill:#ffc3cd;fill-opacity:1;fill-rule:nonzero;stroke:none"
         transform="matrix(0.13333333,0,0,-0.13333333,0,5333.3333)" />
      <path
         id="path71"
         d="m 18059.5,22080.1 c -140.9,0 -293.3,16 -453.1,56.6 -353.2,89.5 -605,264 -750.7,386.1 -8.2,10.4 -16.2,21 -24.1,31.6 164,-81.6 484.9,-216.4 876,-216.4 111.9,0 229.6,11.1 351,37.5 936.7,204.3 1703.6,1242.7 1467.3,1936.6 -98,288.1 -376.1,537.8 -663.8,664.6 -133.9,59 -261.8,87.9 -372.4,100.7 51.1,14.7 103.6,27.3 157.4,37.7 62.8,12.1 126.1,20.8 189.6,26 132.7,-13 279.3,-45.5 422.6,-113.8 561.3,-267.5 692.1,-903.4 701.7,-954.1 103.5,-546.3 -172.6,-965.1 -290,-1143.1 -51.1,-77.6 -298,-439 -784.9,-665.5 -134.3,-62.4 -436.9,-184.5 -826.6,-184.5"
         style="fill:#cf526b;fill-opacity:1;fill-rule:nonzero;stroke:none"
         transform="matrix(0.13333333,0,0,-0.13333333,0,5333.3333)" />
      <path
         id="path72"
         d="m 16855.7,22522.8 c -19.7,16.6 -37.5,32.1 -53.4,46.4 9.2,-4.7 18.9,-9.7 29.3,-14.8 7.9,-10.6 15.9,-21.2 24.1,-31.6 m 1634,2554.6 c -56.3,6.5 -108,8.8 -153.8,8.8 -48.9,0 -91,-2.7 -124.4,-5.8 50.3,14.3 101.4,27.1 154.4,37.1 46.4,8.7 165.7,30.8 320.3,30.8 47.2,0 97.7,-2.1 150.5,-7.2 -63.5,-5.2 -126.8,-13.9 -189.6,-26 -53.8,-10.4 -106.3,-23 -157.4,-37.7"
         style="fill:#cf919e;fill-opacity:1;fill-rule:nonzero;stroke:none"
         transform="matrix(0.13333333,0,0,-0.13333333,0,5333.3333)" />
      <path
         id="path73"
         d="m 18023.5,24907.8 c -172.9,-93 -368.5,-162.2 -634.1,-224.4 -728.2,-170.6 -1015.7,-904.4 -872.8,-1515.4 148,-632.9 820.1,-1255.5 2227.2,-927.2 870.8,232.3 1234.4,938.8 1280,1472.9 48.4,566.7 -212.4,1038.3 -697.8,1261.4 -254.5,117.1 -551.7,147.5 -859.3,88.2 -159.5,-30.8 -308.6,-83.1 -443.2,-155.5 z m -15.4,-3014.5 c -1060,0 -1598.1,606.1 -1740.8,1216.5 -167.7,717.5 191.3,1618.5 1063.8,1822.8 242.7,56.8 418.9,118.7 571.2,200.6 157.4,84.6 331,145.7 515.8,181.4 360.5,69.6 711.4,32.7 1014.8,-106.9 578.9,-266.2 903,-847.1 845.9,-1515.8 -69.3,-812.2 -647.5,-1479.2 -1473,-1699.3 -293.3,-68.5 -558.8,-99.3 -797.7,-99.3"
         style="fill:#650000;fill-opacity:1;fill-rule:nonzero;stroke:none"
         transform="matrix(0.13333333,0,0,-0.13333333,0,5333.3333)" />
      <path
         id="path74"
         d="m 18579,23621 c 0,252.5 103.1,457.2 230.3,457.2 127.2,0 230.4,-204.7 230.4,-457.2 0,-252.5 -103.2,-457.2 -230.4,-457.2 -127.2,0 -230.3,204.7 -230.3,457.2"
         style="fill:#650000;fill-opacity:1;fill-rule:nonzero;stroke:none"
         transform="matrix(0.13333333,0,0,-0.13333333,0,5333.3333)" />
      <path
         id="path75"
         d="m 17228.5,23071.7 c -119.6,207.2 -127.2,426.7 -17.1,490.3 110.2,63.6 296.5,-52.8 416.1,-260 119.6,-207.1 127.3,-426.7 17.1,-490.3 -110.2,-63.6 -296.5,52.8 -416.1,260"
         style="fill:#650000;fill-opacity:1;fill-rule:nonzero;stroke:none"
         transform="matrix(0.13333333,0,0,-0.13333333,0,5333.3333)" />
      <path
         id="path76"
         d="m 26814.7,31364.1 c -79.3,-803.2 -732,-1226 -1563.3,-1273.6 -933.6,-53.2 -1819.2,406.4 -2358.7,1170.7 -253.4,359.3 -448.4,730.9 -562.5,1119.5 -111.6,380.3 -423.9,667.9 -808.3,762.1 321,589.2 958.2,770.9 1671.3,563.6 45.5,-12.8 91.6,-27.6 137.7,-44 0.5,1.5 1.5,2.5 2,4.1 97.8,208.3 245.2,359.3 425.9,455.6 l 1,0.5 c 761.7,405.4 2109,-168.5 2801,-1556.7 115.7,-232.3 202.2,-479.1 239.6,-735.5 24.5,-167.4 28.6,-323 14.3,-466.3"
         style="fill:#f9c9ca;fill-opacity:1;fill-rule:nonzero;stroke:none"
         transform="matrix(0.13333333,0,0,-0.13333333,0,5333.3333)" />
      <path
         id="path77"
         d="m 26814.7,31364.1 c -79.3,-803.2 -732,-1226 -1563.3,-1273.6 -933.6,-53.2 -1819.2,406.4 -2358.7,1170.7 -253.4,359.3 -448.4,730.9 -562.5,1119.5 -111.6,380.3 -423.9,667.9 -808.3,762.1 321,589.2 958.2,770.9 1671.3,563.6 22.5,-14.3 44.5,-29.7 66,-45 l 295.9,-207.9 c -104.4,50.7 -213.5,89.1 -328.1,110.1 -20.5,3.7 -41.1,6.8 -61.9,9.2 -376.7,43.8 -625.6,-373.4 -435.1,-701.3 45.1,-77.5 83.9,-159.1 117.7,-241.6 101.3,-247.2 165.3,-508.8 269.7,-754.5 206.8,-485.7 576.4,-900.9 1035,-1163.5 458.2,-262.6 1003.3,-370.6 1527.5,-303 231.3,30.2 466.3,97.3 643.4,248.8 121.3,103.4 208.8,240 294.8,374.2 68.6,107.5 137.7,218 196.6,332.2"
         style="fill:#f2a5a5;fill-opacity:1;fill-rule:nonzero;stroke:none"
         transform="matrix(0.13333333,0,0,-0.13333333,0,5333.3333)" />
      <path
         id="path78"
         d="m 24139.4,33072.3 c -92.2,103 -139.8,237.7 -178.2,370.5 -49.5,171.1 -82.9,370.8 22.3,514.4 108.9,148.7 317.4,172.9 501.3,184.3 59.7,3.8 119.5,7.5 179.3,11.2 -235.8,84 -497.4,97.9 -738.5,30.7 -241.1,-67.2 -459.9,-216.8 -603,-422.2 -7.7,-11.1 -15.4,-22.9 -17.5,-36.3 -5.5,-36.3 30.5,-63.9 62,-82.6 112.7,-67.1 225.3,-134.2 338,-201.4 64.5,-38.4 129.5,-77.2 185.9,-126.8 67,-58.9 120.9,-132.8 156.6,-214.6 l 91.8,-27.2"
         style="fill:#f2a5a5;fill-opacity:1;fill-rule:nonzero;stroke:none"
         transform="matrix(0.13333333,0,0,-0.13333333,0,5333.3333)" />
      <path
         id="path79"
         d="m 25242.3,30090 c 3,0.2 6.1,0.4 9.1,0.5 369.9,21.2 704.4,116.7 968.8,286.9 v 0 c -264.4,-170.2 -598.9,-265.7 -968.8,-286.9 -3,-0.1 -6.1,-0.3 -9.1,-0.5"
         style="fill:#fadbdb;fill-opacity:1;fill-rule:nonzero;stroke:none"
         transform="matrix(0.13333333,0,0,-0.13333333,0,5333.3333)" />
      <path
         id="path80"
         d="m 25998,30479.5 c 247.9,206.4 410.7,494.3 447.9,864.1 14.3,141.1 10.2,294.2 -14.4,458.9 -10.2,68.9 -24.3,137 -41.5,204.4 -18,-37.8 -43.6,-65.5 -76.9,-79.7 -16.7,-7.2 -34.6,-10.6 -53.3,-10.6 -131.4,0 -303.3,170.6 -409.3,418.1 -121,282.6 -110.1,558.3 24.3,615.9 16.7,7.2 34.5,10.4 53.1,10.4 1.3,0 2.6,-0.1 3.9,-0.1 -442.9,634.2 -1033.7,1032.2 -1580.8,1168.8 44.9,5.7 90,9.1 133.8,11.8 59.7,3.8 119.5,7.5 179.3,11.2 -135.2,48.2 -278.9,73.3 -422.4,73.3 -106.7,0 -213.3,-13.9 -316.1,-42.6 -0.7,-0.2 -1.5,-0.4 -2.2,-0.6 -9,-0.1 -18,-0.3 -26.9,-0.6 126.6,45.1 265.3,67.4 411.7,67.4 752.3,0 1706.4,-588.1 2252.6,-1683.7 115.7,-232.3 202.2,-479.1 239.6,-735.5 15.1,-103.3 22.5,-202.1 22.5,-296.4 0.1,-58.4 -2.7,-115.1 -8.2,-169.9 v 0 c -58.9,-114.2 -128,-224.7 -196.6,-332.2 -86,-134.2 -173.5,-270.8 -294.8,-374.2 -95,-81.3 -206.5,-138.2 -325.3,-178.2"
         style="fill:#fde9ea;fill-opacity:1;fill-rule:nonzero;stroke:none"
         transform="matrix(0.13333333,0,0,-0.13333333,0,5333.3333)" />
      <path
         id="path81"
         d="m 25107.5,30086.4 c -62.5,0 -124.7,2.3 -186.6,6.8 426.5,30.1 803.6,158.5 1077.1,386.3 118.8,40 230.3,96.9 325.3,178.2 121.3,103.4 208.8,240 294.8,374.2 68.6,107.5 137.7,218 196.6,332.2 v 0 c -26.1,-264 -114,-486.8 -249.9,-668.7 -82.9,-111 -183.7,-206.9 -299.1,-287.5 -14.9,-10.4 -30.1,-20.6 -45.5,-30.5 -264.4,-170.2 -598.9,-265.7 -968.8,-286.9 -3,-0.1 -6.1,-0.3 -9.1,-0.5 -45.1,-2.4 -90,-3.6 -134.8,-3.6"
         style="fill:#fadbdb;fill-opacity:1;fill-rule:nonzero;stroke:none"
         transform="matrix(0.13333333,0,0,-0.13333333,0,5333.3333)" />
      <path
         id="path82"
         d="m 24351,34129.7 c -141.3,35.3 -279.7,53.2 -411.9,53.2 -5.2,0 -10.5,-0.1 -15.7,-0.1 0.7,0.2 1.5,0.4 2.2,0.6 102.8,28.7 209.4,42.6 316.1,42.6 143.5,0 287.2,-25.1 422.4,-73.3 -59.8,-3.7 -119.6,-7.4 -179.3,-11.2 -43.8,-2.7 -88.9,-6.1 -133.8,-11.8"
         style="fill:#fadbdb;fill-opacity:1;fill-rule:nonzero;stroke:none"
         transform="matrix(0.13333333,0,0,-0.13333333,0,5333.3333)" />
      <path
         id="path83"
         d="m 21840.3,33243.9 c 329.6,-160.9 582.3,-452 686.3,-805.2 103.2,-350.5 277.7,-697.1 533.5,-1059.7 505.6,-716.5 1341.1,-1132.1 2179.5,-1084.1 497.6,28.3 900.3,201.7 1134,488.2 210,257.5 285.5,599.8 224.3,1017.5 -32,218.3 -106.1,445.1 -220.2,674 -543.8,1090.8 -1462,1580 -2086.4,1570.5 -255.3,-3.3 -597,-87.5 -774.8,-469.2 -44.6,-95.7 -154.7,-141.7 -254.2,-106.4 -597.2,212.3 -1110.9,126.4 -1422,-225.6 z M 25102,29881.4 c -934.3,0 -1813.4,463.6 -2376.5,1261.5 -282.1,399.9 -475.7,785.9 -591.7,1180.1 -89.9,305.2 -343,543.1 -660.7,620.9 -61.7,15.1 -113,58 -138.6,116.1 -25.7,58.1 -22.9,124.9 7.5,180.7 355.2,652.1 1070.3,899.9 1891.7,667.5 224.7,343.7 599,540.4 1052.2,546.4 7,0.1 14.1,0.1 21.1,0.1 770.7,0 1816.9,-553.1 2437.2,-1797.4 133.5,-267.8 220.6,-536.1 258.9,-797.3 77.4,-528.6 -30.5,-990.4 -312.2,-1335.7 -307.2,-376.7 -814.3,-603.3 -1428,-638.3 -53.8,-3 -107.5,-4.6 -160.9,-4.6"
         style="fill:#650000;fill-opacity:1;fill-rule:nonzero;stroke:none"
         transform="matrix(0.13333333,0,0,-0.13333333,0,5333.3333)" />
      <path
         id="path84"
         d="m 21341.5,33239.9 c 261.1,572.9 944.3,846.2 1544.8,731.5 560.3,-93.1 1069.9,-465.7 1331.9,-961.4 31,-56.9 -41.2,-117.7 -91.6,-77.3 -538.1,416.6 -1270.7,816.2 -1947.4,524 -198.5,-84.6 -361.2,-230.2 -479.7,-414.9 -140.7,-210.6 -461.6,-32.1 -358,198.1"
         style="fill:#650000;fill-opacity:1;fill-rule:nonzero;stroke:none"
         transform="matrix(0.13333333,0,0,-0.13333333,0,5333.3333)" />
      <path
         id="path85"
         d="M 18884.3,14406 8045.84,14052.3 c -169.54,-5.5 -312.63,133.2 -317.99,308.2 l -2.95,96.5 c -5.36,175.1 128.96,322.8 298.5,328.4 l 10838.4,353.6 c 169.6,5.5 312.6,-133.1 318,-308.2 l 3,-96.5 c 5.3,-175.1 -129,-322.8 -298.5,-328.3"
         style="fill:#c0becc;fill-opacity:1;fill-rule:nonzero;stroke:none"
         transform="matrix(0.13333333,0,0,-0.13333333,0,5333.3333)" />
      <path
         id="path86"
         d="m 7864.95,14439.2 c -11.75,8 -23.01,16.9 -33.7,26.6 9.11,106.7 83.49,191.3 176.19,194.3 l 226.94,7.4 c 0.16,0 0.33,0 0.49,0 l 2411.93,78.7 3732.8,121.8 c 0.7,0 1.4,0.1 2.1,0.1 l 4503.7,146.9 c 1.7,0.1 3.4,0.1 5.1,0.1 90.5,0 167.3,-78.6 182.6,-182.5 -10.1,-10.4 -20.7,-20 -32,-28.7 -42.3,28.7 -91.1,45.1 -142.7,45.1 -2.6,0 -5.3,0 -7.9,-0.1 L 8012.53,14494 c -54.52,-1.8 -105,-21.7 -147.58,-54.8"
         style="fill:#ecebf0;fill-opacity:1;fill-rule:nonzero;stroke:none"
         transform="matrix(0.13333333,0,0,-0.13333333,0,5333.3333)" />
      <path
         id="path87"
         d="m 8017.14,14176.2 c -99.02,0 -181.65,94.1 -185.27,212.5 l -0.61,19.9 c 10.56,11.2 21.82,21.4 33.69,30.6 42.36,-28.6 91.12,-45 142.67,-45 2.65,0 5.3,0 7.96,0.1 l 10877.92,355 c 54.5,1.8 105,21.6 147.6,54.6 12.4,-8.4 24.3,-17.9 35.5,-28.3 l 0.6,-20 c 3.7,-120.4 -75.7,-221.1 -177,-224.4 L 8022.25,14176.3 c -1.71,-0.1 -3.41,-0.1 -5.11,-0.1"
         style="fill:#a38e9d;fill-opacity:1;fill-rule:nonzero;stroke:none"
         transform="matrix(0.13333333,0,0,-0.13333333,0,5333.3333)" />
      <path
         id="path88"
         d="m 7831.26,14408.6 -0.83,27.1 c -0.31,10.2 -0.03,20.3 0.82,30.1 10.69,-9.7 21.95,-18.6 33.7,-26.6 -11.87,-9.2 -23.13,-19.4 -33.69,-30.6 m 11245.34,367 c -11.2,10.4 -23.1,19.9 -35.5,28.3 11.3,8.7 21.9,18.3 32,28.7 1.5,-9.7 2.4,-19.8 2.7,-30 l 0.8,-27"
         style="fill:#c2adb7;fill-opacity:1;fill-rule:nonzero;stroke:none"
         transform="matrix(0.13333333,0,0,-0.13333333,0,5333.3333)" />
      <path
         id="path89"
         d="m 14375.8,14992.6 -5589.96,-182.4 c -187.94,-6.1 -367.79,92.3 -481.06,265.3 -2.28,3.5 -4.56,7 -6.87,10.6 -66.14,102.4 -120.86,213.9 -165.18,330.7 l -1676.59,4418.5 c -36.9,97.3 -65.95,198.5 -81.38,302.9 -52,351.9 40.12,620.8 235.16,830.4 104.47,112.3 242.3,175.2 385.87,179.9 l 5582.61,182.1 c 97.9,3.2 196.4,-16.4 284.7,-65.7 118.7,-66.2 212.5,-173 287,-311.3 24.1,-44.7 44.1,-92.2 62.3,-140.5 l 1703.1,-4510 c 27.6,-73 51.2,-148 67,-225.4 59.6,-291.6 25.8,-564.5 -136.5,-811.3 -111,-168.9 -285.3,-267.7 -470.2,-273.8"
         style="fill:#c0becc;fill-opacity:1;fill-rule:nonzero;stroke:none"
         transform="matrix(0.13333333,0,0,-0.13333333,0,5333.3333)" />
      <path
         id="path90"
         d="m 14368.1,15117.1 c 13.8,17.5 27.1,35.7 39.6,54.7 174.6,264.1 227.3,572.8 156.6,917.5 -16,77.9 -40.1,158.8 -73.7,247.3 l -1711.8,4509.7 c -23.6,62.2 -45.9,112.1 -70.1,156.8 -41.9,77.3 -88.9,144.9 -140.9,202.5 l 14.4,0.4 c 5.8,0.2 11.5,0.3 17.2,0.3 80.3,0 156.1,-18.6 219.8,-54.2 96.2,-53.6 175.5,-140.3 242.7,-265 18.3,-34 35.8,-73.5 54.9,-124.2 L 14819.9,16253 c 28,-74.4 47.9,-140.9 60.7,-203.7 55.3,-270.6 16.8,-501.4 -117.4,-705.6 -91.3,-138.8 -233.9,-221.3 -391.2,-226.5 l -3.9,-0.1"
         style="fill:#a38e9d;fill-opacity:1;fill-rule:nonzero;stroke:none"
         transform="matrix(0.13333333,0,0,-0.13333333,0,5333.3333)" />
      <path
         id="path91"
         d="m 8007.44,14660.1 c -101.28,-3.3 -180.7,-104 -177.01,-224.4 l 1.44,-47 c 3.69,-120.4 89.1,-215.7 190.38,-212.4 l 10877.95,354.9 c 101.3,3.3 180.7,104 177,224.4 l -1.4,47 c -3.7,120.5 -89.1,215.7 -190.4,212.4 L 8007.44,14660.1 M 18907.8,14282 8029.88,13927.1 c -216.85,-7.1 -399.71,196.9 -407.6,454.8 l -1.44,47 c -7.89,257.8 162.12,473.3 378.97,480.4 l 10877.99,355 c 216.8,7 399.7,-197 407.6,-454.8 l 1.4,-47 c 7.9,-257.9 -162.1,-473.4 -379,-480.5"
         style="fill:#650000;fill-opacity:1;fill-rule:nonzero;stroke:none"
         transform="matrix(0.13333333,0,0,-0.13333333,0,5333.3333)" />
      <path
         id="path92"
         d="m 14301.5,14156.7 c -103.7,86.8 -174.1,239.7 -188.3,408.8 -15.8,189.2 38.8,376.1 150,512.9 l 151.5,-174 c -94.1,-115.8 -98.5,-247.9 -92.8,-316.4 8.2,-97.5 45.4,-182.7 99.4,-227.9 l -119.8,-203.4"
         style="fill:#650000;fill-opacity:1;fill-rule:nonzero;stroke:none"
         transform="matrix(0.13333333,0,0,-0.13333333,0,5333.3333)" />
      <path
         id="path93"
         d="m 6999.6,21023.9 c -120.51,-4 -233.8,-56.5 -318.97,-148.1 -179.18,-192.6 -245.45,-427.2 -202.6,-717 12.84,-87.1 36.96,-176.4 73.62,-273.1 l 1676.64,-4418.5 c 42.35,-111.6 93.68,-214.5 152.61,-305.8 l 6.38,-9.8 c 92.16,-140.8 239.73,-221.8 394.74,-216.8 l 5589.98,182.4 c 157.3,5.2 299.9,87.7 391.2,226.5 134.2,204.2 172.7,435 117.4,705.6 -12.8,62.8 -32.7,129.3 -60.7,203.7 l -1703.1,4509.9 c -19.1,50.7 -36.6,90.2 -54.9,124.2 -67.2,124.7 -146.5,211.4 -242.7,265 -68.3,38.1 -150.2,56.8 -237,53.9 l -5582.6,-182.1 m 7380,-6155.9 -5589.95,-182.4 c -221.87,-7.2 -434,110.1 -567.4,313.9 l -6.74,10.3 c -69.46,107.6 -129.23,227.3 -178.3,356.7 l -1676.6,4418.4 c -44.02,116 -73.2,224.9 -89.14,332.9 -55.48,375.5 34.58,693 267.72,943.6 121.85,130.9 282.63,206.1 452.79,211.7 l 5582.62,182.2 c 119.4,3.9 234.3,-23 332.3,-77.6 131.7,-73.5 243.2,-193.8 331.3,-357.6 24.1,-44.6 46.3,-94.4 69.8,-156.7 l 1703.1,-4510 c 33.4,-88.6 57.4,-169.5 73.2,-247.3 70.4,-344.5 18.1,-653 -155.4,-917 -129.5,-196.9 -329.7,-313.9 -549.3,-321.1"
         style="fill:#650000;fill-opacity:1;fill-rule:nonzero;stroke:none"
         transform="matrix(0.13333333,0,0,-0.13333333,0,5333.3333)" />
      <path
         id="path94"
         d="m 5807.36,20119.8 c 15.43,-104.3 44.75,-205.6 82,-303 l 1684.95,-4418.2 c 44.48,-116.7 99.66,-228.4 166.07,-330.6 2.56,-3.6 4.77,-7.3 6.97,-10.5 114.04,-173 294.69,-271.5 483.66,-265.3 l 5621.19,183.4 c 185.8,6.1 361.1,104.9 472.8,273.6 46.7,71 83,143.7 109.4,218.5 65.6,186.4 70.7,384.9 28,593 -15.7,77.3 -39.7,152.6 -67.4,225.2 l -405.8,1069.5 -57.8,151.9 -1247.9,3288.4 c -18.7,48.4 -38.7,96 -62.8,140.5 -74.8,138.5 -169.4,245.2 -288.5,311.6 -88.9,49 -187.8,68.7 -286.3,65.5 l -5613.85,-183.2 c -85.58,-2.8 -169.14,-26.3 -244.78,-68.3 l -1.38,-0.4 c -51.57,-28.7 -99.38,-66.1 -141.71,-111.1 -123.59,-132.1 -206.25,-287.4 -236.94,-472.6 -18.71,-108.7 -19.26,-227.6 0.12,-357.9"
         style="fill:#c0becc;fill-opacity:1;fill-rule:nonzero;stroke:none"
         transform="matrix(0.13333333,0,0,-0.13333333,0,5333.3333)" />
      <path
         id="path95"
         d="m 14278.2,15516.5 c -2.7,70.5 -11.8,142.2 -26.8,215.1 -15.6,77.3 -39.6,152.6 -67.4,225.2 l -405.8,1069.5 -57.8,151.9 -1247.9,3288.3 c -18.6,48.5 -38.6,96.1 -62.7,140.6 -74.9,138.5 -169.4,245.2 -288.5,311.6 -82.8,45.6 -174.1,65.8 -265.7,65.8 -6.9,0 -13.8,-0.1 -20.6,-0.3 L 6221.12,20801 c -63.26,-2.1 -125.4,-15.5 -184.06,-39.2 22.97,32.8 48.81,64.6 77.54,95.3 85.77,91.7 199.88,144.4 321.33,148.4 l 5613.77,183.2 c 5.8,0.2 11.6,0.3 17.4,0.3 80.9,0 157.1,-18.7 221.4,-54.3 96.7,-53.7 176.5,-140.4 244.1,-265.2 18.4,-34 36,-73.4 55.2,-124.1 l 1711.8,-4509.6 c 28.1,-74.3 48.1,-140.8 60.9,-203.6 37.4,-181.9 32.1,-345.9 -16.5,-495.9 -21.8,-6.8 -43.7,-13.4 -65.8,-19.8"
         style="fill:#ecebf0;fill-opacity:1;fill-rule:nonzero;stroke:none"
         transform="matrix(0.13333333,0,0,-0.13333333,0,5333.3333)" />
      <path
         id="path96"
         d="m 9895.9,16452.3 c -65.97,1.4 -122.97,50.6 -132.22,118 l -31.68,231.9 c -245.68,57 -446.3,194 -527.77,255.9 -59.97,45.6 -72.92,132.2 -27.32,192.2 l 223.54,294.4 c 22.97,30.2 57.55,49.6 95.39,53.3 5.41,0.5 10.82,0.7 16.18,0.6 32.22,-0.7 63.37,-12.7 87.75,-34.4 1.37,-1.2 164.82,-136.8 332.42,-140.3 14.96,-0.3 29.58,0.5 43.49,2.4 102.62,14 143.62,60.6 146.12,72.6 -19.4,39.1 -202.27,97.6 -311.57,132.6 -301.42,96.5 -714.18,228.7 -770.02,637 -39.48,289 116.65,560.9 394.95,704.9 l -30.36,222 c -10.19,74.7 42.09,143.6 116.78,153.8 l 362.52,49.6 c 7.25,0.9 14.43,1.3 21.53,1.2 65.97,-1.4 122.97,-50.6 132.17,-118 l 31.7,-231.9 c 257.2,-59.4 465.2,-205.5 528.4,-253.5 59.8,-45.4 71.8,-130.5 26.8,-190.6 l -220.3,-294 c -22.8,-30.4 -57.1,-49.9 -94.9,-53.9 -5.7,-0.6 -11.5,-0.8 -17.2,-0.7 -31.8,0.7 -62.6,12.4 -86.8,33.5 -30.5,25.7 -186.8,131.3 -333.96,134.4 -15.59,0.3 -30.81,-0.5 -45.26,-2.5 -100.65,-13.7 -143.08,-54.4 -147.12,-67.6 19.74,-37.6 203.18,-96 312.78,-131 302.36,-96.3 716.26,-228.2 772.16,-636.7 39.3,-287.3 -118.1,-560.5 -397.8,-707.7 l 30.4,-222.9 c 10.2,-74.7 -42,-143.6 -116.7,-153.8 l -362.57,-49.5 c -7.26,-1 -14.43,-1.4 -21.53,-1.3"
         style="fill:#650000;fill-opacity:1;fill-rule:nonzero;stroke:none"
         transform="matrix(0.13333333,0,0,-0.13333333,0,5333.3333)" />
      <path
         id="path97"
         d="m 10628.8,17569 c 36.8,-268.7 -142.1,-504.1 -411.6,-606.9 l 44.3,-323.7 -362.57,-49.6 -45.13,330.2 c -291.77,35.9 -542.43,229.2 -568.18,248.8 l 223.54,294.3 c 22.52,-20 251.99,-202.9 485.02,-171.1 174.82,23.9 276.12,126.8 262.92,223.9 -39.9,291.3 -1005.52,215.3 -1081.63,772.1 -36.73,268.6 138.89,503.7 408.84,603.2 l -44.25,323.7 362.53,49.6 45.14,-330.2 c 291.77,-35.9 541.97,-225.9 567.77,-245.5 l -220.4,-293.9 c -26.1,22.8 -257.5,195.6 -487.32,164.2 -174.79,-23.9 -277.01,-120.3 -263.73,-217.4 39.82,-291.3 1008.65,-215 1084.75,-771.7"
         style="fill:#ffc440;fill-opacity:1;fill-rule:nonzero;stroke:none"
         transform="matrix(0.13333333,0,0,-0.13333333,0,5333.3333)" />
      <path
         id="path98"
         d="m 6435.93,21005.5 c -121.45,-4 -235.56,-56.7 -321.33,-148.4 -180.2,-192.6 -246.88,-427 -203.87,-716.8 12.87,-87 37.09,-176.2 73.92,-272.9 l 1685.2,-4418.2 c 42.62,-111.7 94.23,-214.5 153.43,-305.7 l 5.09,-7.8 c 94.12,-143 242.71,-224.1 398.88,-219 l 5621.05,183.4 c 158.6,5.2 302.2,87.9 394.1,226.9 135,204.1 173.7,434.8 118.1,705.2 -12.8,62.8 -32.8,129.3 -60.9,203.6 l -1711.8,4509.6 c -19.2,50.7 -36.8,90.1 -55.2,124.1 -67.6,124.8 -147.4,211.5 -244.1,265.2 -68.8,38.2 -151.4,56.8 -238.8,54 L 6435.93,21005.5 M 13856,14850.9 8234.87,14667.5 c -222.82,-7.3 -435.86,110 -569.87,313.5 l -7.38,11.3 c -69.17,106.6 -129.28,226.3 -178.63,355.7 l -1685.2,4418.2 c -44.29,116 -73.57,225 -89.61,333 -55.76,375.7 34.87,693.3 269.4,943.9 122.38,130.9 283.88,206 454.72,211.6 l 5613.7,183.2 c 120,3.9 235.4,-22.9 333.7,-77.4 132.3,-73.4 244.3,-193.6 333,-357.4 24.2,-44.7 46.5,-94.6 70.1,-156.8 l 1711.8,-4509.7 c 33.6,-88.5 57.7,-169.4 73.7,-247.3 70.7,-344.7 18,-653.4 -156.6,-917.5 -130,-196.7 -331.1,-313.7 -551.7,-320.9"
         style="fill:#650000;fill-opacity:1;fill-rule:nonzero;stroke:none"
         transform="matrix(0.13333333,0,0,-0.13333333,0,5333.3333)" />
      <path
         id="path99"
         d="m 8213.38,14916.5 c -23.01,0 -45.82,1.9 -68.29,5.5 -45.77,38 -86.9,84.3 -121.62,137.9 -2.11,3.2 -4.23,6.8 -6.69,10.4 -63.75,99.8 -116.72,209 -159.44,322.9 l -1618.32,4316.6 c -35.77,95.1 -63.95,194.1 -78.81,296 -18.65,127.3 -18.18,243.4 -0.31,349.6 11.94,73.6 32.54,142.1 60.28,206.5 561.2,-1309.2 1527.36,-2591.8 2802,-3586.1 1377.52,-1074.6 2856.52,-1610.7 4139.02,-1610.7 393.8,0 768.9,50.5 1117,151.4 1.7,-45.9 0.8,-91.4 -3.1,-136.2 -10.2,-18 -21.1,-35.8 -32.7,-53.3 -91.9,-139 -235.5,-221.7 -394.1,-226.9 l -5621.05,-183.4 c -4.63,-0.1 -9.25,-0.2 -13.87,-0.2"
         style="fill:#a38e9d;fill-opacity:1;fill-rule:nonzero;stroke:none"
         transform="matrix(0.13333333,0,0,-0.13333333,0,5333.3333)" />
      <path
         id="path100"
         d="m 14275.1,15380.3 c 3.9,44.8 4.8,90.3 3.1,136.2 22.1,6.4 44,13 65.8,19.8 -17.4,-53.7 -40.3,-105.7 -68.9,-156"
         style="fill:#c2adb7;fill-opacity:1;fill-rule:nonzero;stroke:none"
         transform="matrix(0.13333333,0,0,-0.13333333,0,5333.3333)" />
      <path
         id="path101"
         d="m 8471.67,14800.3 c -118.16,0 -232.21,43.3 -326.58,121.7 22.47,-3.6 45.28,-5.5 68.29,-5.5 4.62,0 9.24,0.1 13.87,0.2 l 5621.05,183.4 c 158.6,5.2 302.2,87.9 394.1,226.9 11.6,17.5 22.5,35.3 32.7,53.3 28.6,50.3 51.5,102.3 68.9,156 42,13.1 83.6,27 124.7,41.5 -8.3,-40.8 -18.7,-81.2 -32.5,-121 -25.2,-73.1 -59.9,-144.1 -104.8,-213.4 -106.9,-164.7 -275,-261.1 -453.2,-266.9 l -5390.74,-175.9 c -5.26,-0.2 -10.53,-0.3 -15.79,-0.3"
         style="fill:#63090f;fill-opacity:1;fill-rule:nonzero;stroke:none"
         transform="matrix(0.13333333,0,0,-0.13333333,0,5333.3333)" />
    </g>
  </g>
</svg>
