<svg xmlns="http://www.w3.org/2000/svg" viewBox="0 0 120 120" fill="none">
  <!-- Placeholder do mascote porquinho — substituir pelos assets oficiais -->
  <ellipse cx="60" cy="104" rx="34" ry="6" fill="#000" opacity=".12"/>
  <!-- corpo -->
  <ellipse cx="60" cy="66" rx="40" ry="36" fill="#F9A8C4"/>
  <ellipse cx="60" cy="66" rx="40" ry="36" fill="url(#shade)"/>
  <!-- orelhas -->
  <path d="M28 40 Q24 22 40 28 Q34 34 34 44 Z" fill="#F472A6"/>
  <path d="M92 40 Q96 22 80 28 Q86 34 86 44 Z" fill="#F472A6"/>
  <!-- fenda de moeda -->
  <rect x="48" y="30" width="24" height="5" rx="2.5" fill="#B94F79"/>
  <!-- moeda -->
  <circle cx="60" cy="20" r="10" fill="#FFD62C" stroke="#F2751F" stroke-width="2"/>
  <text x="60" y="24.5" text-anchor="middle" font-family="sans-serif" font-size="11" font-weight="bold" fill="#C9581A">$</text>
  <!-- olhos -->
  <circle cx="46" cy="60" r="4" fill="#3B2230"/>
  <circle cx="74" cy="60" r="4" fill="#3B2230"/>
  <circle cx="47.4" cy="58.6" r="1.4" fill="#fff"/>
  <circle cx="75.4" cy="58.6" r="1.4" fill="#fff"/>
  <!-- focinho -->
  <ellipse cx="60" cy="74" rx="13" ry="10" fill="#F472A6"/>
  <ellipse cx="55" cy="74" rx="2.5" ry="3.5" fill="#B94F79"/>
  <ellipse cx="65" cy="74" rx="2.5" ry="3.5" fill="#B94F79"/>
  <!-- bochechas -->
  <ellipse cx="34" cy="70" rx="5" ry="3.5" fill="#F472A6" opacity=".6"/>
  <ellipse cx="86" cy="70" rx="5" ry="3.5" fill="#F472A6" opacity=".6"/>
  <!-- patinhas -->
  <ellipse cx="42" cy="98" rx="8" ry="6" fill="#F472A6"/>
  <ellipse cx="78" cy="98" rx="8" ry="6" fill="#F472A6"/>
  <defs>
    <radialGradient id="shade" cx=".35" cy=".3" r="1">
      <stop offset="0" stop-color="#fff" stop-opacity=".35"/>
      <stop offset=".6" stop-color="#fff" stop-opacity="0"/>
      <stop offset="1" stop-color="#B94F79" stop-opacity=".25"/>
    </radialGradient>
  </defs>
</svg>
