<?xml version="1.0" encoding="UTF-8" standalone="no"?>
<!-- Created with Inkscape (http://www.inkscape.org/) -->

<svg
   version="1.1"
   id="svg1"
   width="256"
   height="256"
   viewBox="0 0 256 256"
   sodipodi:docname="not-found.svg"
   inkscape:version="1.4.4 (dcaf3e7d9e, 2026-05-05)"
   xmlns:inkscape="http://www.inkscape.org/namespaces/inkscape"
   xmlns:sodipodi="http://sodipodi.sourceforge.net/DTD/sodipodi-0.dtd"
   xmlns="http://www.w3.org/2000/svg"
   xmlns:svg="http://www.w3.org/2000/svg">
  <defs
     id="defs1" />
  <sodipodi:namedview
     id="namedview1"
     pagecolor="#ffffff"
     bordercolor="#000000"
     borderopacity="0.25"
     inkscape:showpageshadow="2"
     inkscape:pageopacity="0.0"
     inkscape:pagecheckerboard="0"
     inkscape:deskcolor="#d1d1d1"
     inkscape:zoom="0.1"
     inkscape:cx="2665"
     inkscape:cy="2675"
     inkscape:window-width="2113"
     inkscape:window-height="1150"
     inkscape:window-x="0"
     inkscape:window-y="0"
     inkscape:window-maximized="0"
     inkscape:current-layer="g1">
    <inkscape:page
       x="0"
       y="0"
       inkscape:label="1"
       id="page1"
       width="256"
       height="256"
       margin="0"
       bleed="0" />
  </sodipodi:namedview>
  <g
     id="g1"
     inkscape:groupmode="layer"
     inkscape:label="1">
    <g
       id="g2"
       transform="matrix(0.06428431,0,0,0.06428431,-55.959533,-47.908784)">
      <path
         id="path3"
         d="m 2478.7599,4727.5733 c -789.4266,0 -1429.3826,-131.64 -1429.3826,-294.0133 0,-93.9733 214.32,-177.6533 547.9293,-231.48 52.7334,203.0133 179.8934,342.5067 425.8667,385.12 5.36,1.1067 10.7333,2.0267 16.1066,2.7867 87.2534,53.36 196.0667,75.9066 296.2667,76.3466 2.8933,-0.36 3.0933,-0.027 6.6267,-0.8933 7.5733,-1.8267 13.4266,-7.6267 16.2666,-14.4 1.2534,-3.04 2.08,-6.2133 2.6667,-9.4133 3.32,-0.5867 6.68,-1.2134 10.04,-1.9067 54.7467,-11.1467 95.64,-45.2267 124.8,-92.4267 117.7733,-20.0533 238.3067,-53.2666 328.0267,-113.1066 81.4,-10.0667 155.36,-15.7067 209.08,-15.7067 10.4533,0 20.1466,0.2133 28.9733,0.6533 17.5733,0.8534 57.0133,6.6534 98.76,12.8 68.9333,10.1334 145.8133,21.4267 189.92,21.4134 6.96,0 13.12,-0.28 18.2933,-0.8934 9.7733,-1.16 19.5467,-5.2533 28.88,-16.64 5.6933,0.4134 11.3733,0.6134 17,0.6134 15.1333,0 29.92,-1.44 43.7867,-4.1734 17.2666,-3.3733 33.1066,-8.7466 46.3866,-15.7733 15.1867,-8.0533 28.2267,-19.7333 39.76,-34.0933 26.32,-32.76 44.7734,-79.5067 62.7867,-129.2134 188.3867,49.8 300.5333,112.4 300.5333,180.3867 0,162.3733 -639.9466,294.0133 -1429.3733,294.0133"
         style="fill:#e0aac3;fill-opacity:1;fill-rule:nonzero;stroke:none;stroke-width:0.133333" />
      <path
         id="path4"
         d="m 1424.1066,3972.2533 c 9.0934,-71.0266 55.5867,-86.3333 77.1067,-84.76 5.2933,0.36 10.7333,2 15.8133,4.9334 2.4267,1.5066 4.7867,3.1466 6.9334,4.9333 0.7866,0.64 1.5066,1.2933 2.2933,2.08 10.6533,10.9467 16.4533,29.4 7.72,54.7867 -21.88,63.5866 -109.7867,73.3866 -109.7867,73.3866 -2.2933,-21.3866 -2.08,-39.6933 -0.08,-55.36 z m 300.92,136.6934 c 0,0 -123.7333,67.6666 -198.9866,53 -75.32,-14.6667 -79.68,-55.72 -79.68,-55.72 0,0 111.0133,-19.96 160.1466,-94.7067 8.3734,-12.6533 14.9467,-26.8933 18.88,-42.84 27.1867,-110.2267 -60.6533,-193.56 -164.0133,-166.16 -68.88,18.24 -113.16,70.0267 -129.252,132.8267 -8.224,31.3333 -9.2973,65.44 -2.932,99.56 0,0 -63.16,-14.52 -78.968,-71.0267 -0.5013,-1.4933 -0.9293,-3.0667 -1.216,-4.64 -13.6613,-60.3733 14.8773,-107.08 41.916,-140.4133 14.7347,-17.96 4.6507,-28.3334 -0.2147,-30.2667 -5.7213,-2.36 -26.5373,-4 -51,22.68 -26.3933,28.6133 -53.0026,77.4 -56.5066,130.8267 -2.2187,33.2666 4.5053,68.3066 25.7493,101.5733 49.8547,77.96 138.1973,72.0267 138.1973,72.0267 0,0 40.56,152 211.5067,142.4133 151,-8.36 205.6533,-64.52 205.6533,-64.52 l -39.28,-84.6133"
         style="fill:#fccaca;fill-opacity:1;fill-rule:nonzero;stroke:none;stroke-width:0.133333" />
      <path
         id="path5"
         d="m 1764.3066,4193.56 c 0,0 -54.6533,56.16 -205.6533,64.52 -170.9467,9.5867 -211.5067,-142.4133 -211.5067,-142.4133 0,0 -88.3426,5.9333 -138.1973,-72.0267 -21.244,-33.2667 -27.968,-68.3067 -25.7493,-101.5733 14.0186,15.9466 36.908,31.9066 67.0213,21.8133 15.808,56.5067 78.968,71.0267 78.968,71.0267 -6.3653,-34.12 -5.292,-68.2267 2.932,-99.56 14.092,20.7466 41.1987,43.1333 91.9853,36.9066 -2,15.6667 -2.2133,33.9734 0.08,55.36 0,0 87.9067,-9.8 109.7867,-73.3866 8.7333,-25.3867 2.9333,-43.84 -7.72,-54.7867 31.04,28.04 37.2,89.3333 80.2533,112.08 -49.1333,74.7467 -160.1466,94.7067 -160.1466,94.7067 0,0 4.36,41.0533 79.68,55.72 75.2533,14.6666 198.9866,-53 198.9866,-53 l 39.28,84.6133"
         style="fill:#f2a5a5;fill-opacity:1;fill-rule:nonzero;stroke:none;stroke-width:0.133333" />
      <path
         id="path6"
         d="m 1523.96,3897.36 c -2.1467,-1.7867 -4.5067,-3.4267 -6.9334,-4.9333 2.4267,1.2933 4.7867,2.9333 6.9334,4.9333"
         style="fill:#ffffff;fill-opacity:1;fill-rule:nonzero;stroke:none;stroke-width:0.133333" />
      <path
         id="path7"
         d="m 1468.5066,3967.8667 c 3.2667,-14.9867 8.68,-23.5067 12.8267,-28.12 5.2133,-5.8 10.5467,-7.96 13.76,-8.7734 -0.013,1.7867 -0.3733,4.76 -1.9067,9.2267 -4.16,12.08 -13.7333,21.0533 -24.68,27.6667 z m -185.356,-223.6534 c -15.084,0 -44.9146,4.92 -75.1986,37.8534 -29.7907,32.4266 -52.564,76.48 -62.496,120.88 -13.1574,58.8266 -3.7507,115.52 27.204,163.9466 42.3666,66.28 105.8133,85.0667 144.264,90.16 7.3626,16.0667 18.796,36.68 35.7693,57.3867 32.6267,39.8 92.2267,87.2533 190.7733,87.2533 5.7734,0 11.7067,-0.16 17.64,-0.4933 163.0534,-9.0933 227.3067,-70.5467 234.0934,-77.5333 12.4533,-12.8 15.7333,-31.96 8.2266,-48.1734 l -39.2133,-84.7066 c -5.0133,-10.8267 -14.2933,-19.0934 -25.6267,-22.8267 -4.4,-1.4533 -8.96,-2.1733 -13.4933,-2.1733 -7.16,0 -14.28,1.7866 -20.68,5.2933 -25.4133,13.84 -102.9067,49.8 -155.12,49.8 -3.76,0 -7.28,-0.1867 -10.5067,-0.5733 51.3867,-24.4267 110.3867,-67.72 128.52,-141.3467 14.3734,-58.4 3.2134,-116.68 -30.64,-159.88 -32.32,-41.2533 -81.8666,-64.9067 -135.9066,-64.92 -16.6934,0 -33.6667,2.2533 -50.44,6.72 -83.8267,22.2533 -142.696,87.4267 -161.7654,169.88 -0.8133,-27.28 10.5214,-53.6 35.8467,-84.7067 20.2387,-24.8 18.4253,-47.5866 15.5453,-58.96 -4.36,-17.1866 -16.9453,-31.92 -32.844,-38.44 -7.1053,-2.9066 -15.3706,-4.44 -23.952,-4.44 z m 140.996,283.4267 c 0,0 87.9467,-9.8267 109.8134,-73.4267 14.5066,-42.2266 -11,-65.0533 -32.7467,-66.72 -0.9733,-0.067 -2,-0.1066 -3.0667,-0.1066 -27.7866,0 -86.16,25.8 -74,140.2533 m -140.996,-240.3067 c 3.4414,0 6.036,0.5734 7.572,1.2 4.7947,1.96 14.9187,12.32 0.244,30.3067 -27.1546,33.3467 -55.5853,80.04 -42.012,140.3867 13.5427,60.3333 80.28,75.6266 80.28,75.6266 -19.0973,-102.3066 28.8454,-204.88 132.152,-232.3066 13.4667,-3.5734 26.6534,-5.28 39.3734,-5.28 84.8666,0.013 148.28,75.5466 124.68,171.3866 -27.1334,110.2 -179.0267,137.6267 -179.0267,137.6267 0,0 4.28,40.9867 79.5867,55.64 7.36,1.4267 15.1733,2.08 23.2933,2.08 75.0133,0 175.8,-55.0933 175.8,-55.0933 l 39.2133,84.7066 c 0,0 -54.6133,56.12 -205.6133,64.5467 -5.2,0.28 -10.2667,0.4267 -15.2267,0.4267 -158.1333,0 -196.2666,-142.9734 -196.2666,-142.9734 0,0 -1.5734,0.1067 -4.4267,0.1067 -18.4867,0 -90.612,-4.5067 -133.7893,-72.04 -55.4587,-86.76 -11.988,-185.9733 30.704,-232.4267 17.988,-19.5733 33.9573,-23.92 43.4626,-23.92"
         style="fill:#650000;fill-opacity:1;fill-rule:nonzero;stroke:none;stroke-width:0.133333" />
      <path
         id="path8"
         d="m 1329.424,4172.4267 c -56.7294,-117.7067 -45.3774,-235.3867 -15.8374,-306.28 l 34.8134,14.52 c -26.3814,63.32 -36.3,168.92 15.0133,275.3733 l -33.9893,16.3867"
         style="fill:#650000;fill-opacity:1;fill-rule:nonzero;stroke:none;stroke-width:0.133333" />
      <path
         id="path9"
         d="m 1516.16,4158.08 c -32.16,-6.04 -57.76,-23.9467 -74.0534,-51.8 -31.0666,-53.0667 -22.0266,-128.5333 -13.1333,-154.8133 l 35.7333,12.0933 c -6.7333,19.8933 -13.4266,83.72 9.96,123.68 10.9067,18.64 26.76,29.6933 48.4534,33.76 l -6.96,37.08"
         style="fill:#650000;fill-opacity:1;fill-rule:nonzero;stroke:none;stroke-width:0.133333" />
      <path
         id="path10"
         d="m 3366.4532,4431.0533 c -55.4266,6.5867 -252.6666,-30.96 -303.3733,-33.4533 -75.1466,-3.6933 -220.28,8.56 -377.0933,35 0,0 176.9733,-608.76 176.4933,-679.1333 293.4,-70.3734 577.6933,121.4133 577.6933,121.4133 0,0 2.4667,547.1067 -73.72,556.1733"
         style="fill:#777782;fill-opacity:1;fill-rule:nonzero;stroke:none;stroke-width:0.133333" />
      <path
         id="path11"
         d="m 3429.9332,4176.7867 c -9.5333,128.3866 -27.8666,250.0266 -63.48,254.24 -55.4133,6.6133 -252.6666,-30.96 -303.3733,-33.4267 -75.1466,-3.7067 -220.2933,8.5733 -377.1066,34.9867 0,0 177,-608.7467 176.4933,-679.1334 51.4933,-12.3333 102.7467,-16.6533 152.16,-15.2533 232.3067,6.28 425.52,136.68 425.52,136.68 0,0 0.6666,155.4133 -10.2134,301.9067"
         style="fill:#f9c9ca;fill-opacity:1;fill-rule:nonzero;stroke:none;stroke-width:0.133333" />
      <path
         id="path12"
         d="m 3429.9332,4176.7867 c -9.5333,128.3866 -27.8666,250.0266 -63.48,254.24 -55.4133,6.6133 -252.6666,-30.96 -303.3733,-33.4267 -75.1466,-3.7067 -220.2933,8.5733 -377.1066,34.9867 0,0 177,-608.7467 176.4933,-679.1334 51.4933,-12.3333 102.7467,-16.6533 152.16,-15.2533 11.44,66.2933 29.28,183.4533 41.9467,333.0933 12.1733,143.8534 157.04,72.9067 176,-21.2 19.6266,-97.48 68.4266,-125.7466 68.4266,-125.7466 0,0 66.5733,127.5333 128.9333,252.44"
         style="fill:#f2a5a5;fill-opacity:1;fill-rule:nonzero;stroke:none;stroke-width:0.133333" />
      <path
         id="path13"
         d="m 3363.9066,4409.64 -0.013,0.013 0.013,-0.013 m -330.1333,-34.2533 c 10.96,0 21.1066,0.2266 30.3733,0.68 19.6533,0.9733 58.24,6.64 102.92,13.2133 68.7733,10.1067 162.6933,23.9467 195.8666,20.4667 5,-3.6 33.7467,-34.6 48.24,-274.3467 6.5334,-108.1333 7.36,-214.04 7.44,-248.6667 -50.1066,-30.8 -290.1066,-167.0266 -536.1333,-115.6533 -14.76,105.2267 -129.68,507.84 -166.3066,634.76 121.8533,-19.1867 239.7733,-30.4533 317.6,-30.4533 m 332.6799,55.6666 h 0.067 -0.067 m -680.4666,23.1067 c -6.0933,0 -11.9733,-2.5867 -16.0933,-7.2267 -4.9334,-5.5333 -6.68,-13.2266 -4.6,-20.3466 70.7866,-243.4934 175.9733,-623.6534 175.64,-672.9734 -0.067,-10.0266 6.7733,-18.7733 16.52,-21.1066 299.2,-71.76 582.8533,116.4533 594.7733,124.4933 5.92,3.9867 9.4666,10.6533 9.5066,17.7733 0,1.3867 0.52,139.12 -8.3333,276.1867 -16.68,258.1333 -50.4267,297.4533 -84.4,301.4933 -37.9066,4.4934 -128.3866,-8.7866 -208.2133,-20.52 -41.7467,-6.1466 -81.1867,-11.9466 -98.76,-12.8 -78.32,-3.88 -224.52,9.7734 -372.4533,34.72 -1.2,0.2 -2.4,0.3067 -3.5867,0.3067"
         style="fill:#650000;fill-opacity:1;fill-rule:nonzero;stroke:none;stroke-width:0.133333" />
      <path
         id="path14"
         d="m 3024.1733,3872.12 c 0.3866,-411.7333 -215.52,-559.2933 -235.8267,-963.68 -10.0133,-199.5733 -590.3067,-294.32 -794.5333,-14.8133 -85.6,117.16 -465.7467,674.1066 -394.7733,1195.3466 39.76,292.1067 180.2933,433.3334 443.7333,476.7867 55.8,9.2 115.0933,-7.36 222.8,-15.2933 142.9333,-10.5067 579.52,-44.6 677.8666,-261.52 0,0 51.2,-78.8134 68.72,-177.8267 20.3467,-115.0933 12.0134,-239 12.0134,-239"
         style="fill:#f9c9ca;fill-opacity:1;fill-rule:nonzero;stroke:none;stroke-width:0.133333" />
      <path
         id="path15"
         d="m 3011.7733,3707.1067 c -98.9867,14.44 -269.1734,100.9333 -547.04,59.1066 -285.08,-42.9466 -430.96,-322.8533 -430.96,-322.8533 l 193.2533,-170.8266 c 0,0 418.4533,83.2533 705.48,161.0266 33.0267,83.6267 63.16,170.1733 79.2667,273.5467"
         style="fill:#f2a5a5;fill-opacity:1;fill-rule:nonzero;stroke:none;stroke-width:0.133333" />
      <path
         id="path16"
         d="m 2192.1199,4557.6133 c -64.16,7.5067 -107.7333,14.9734 -149.36,8.12 -135.1599,-22.32 -237.9599,-70.32 -311.3733,-151.3066 -69.72,-76.7867 -112.96,-183.24 -132.3733,-325.4667 -0.3867,-2.8667 -0.7733,-5.72 -1.0533,-8.5867 16.2,47.4 36.8933,85.8667 62.92,98.6534 29.56,14.48 60.9066,22.16 103.4266,14.48 71.3334,-12.96 317.72,244.36 427.8133,364.1066"
         style="fill:#f2a5a5;fill-opacity:1;fill-rule:nonzero;stroke:none;stroke-width:0.133333" />
      <path
         id="path17"
         d="m 3012.1599,4111.12 c -17.52,99.04 -68.72,177.8267 -68.72,177.8267 -98.3466,216.92 -534.8,251.0266 -677.8266,261.5333 -107.7734,7.92 -167.0534,24.4667 -222.84,15.2533 -20.5867,-3.4 -40.4134,-7.3866 -59.4933,-12.0133 -2.5334,-0.6 -4.96,-1.1867 -7.44,-1.84 -1.9334,-0.48 -3.8134,-0.9733 -5.7067,-1.4533 -3.8267,-1.0267 -7.6533,-2.04 -11.4267,-3.12 -3.8266,-1.0267 -7.5466,-2.1067 -11.2666,-3.24 -3.6,-1.08 -7.16,-2.1467 -10.72,-3.28 -4.1467,-1.3467 -8.2934,-2.6934 -12.3334,-4.1067 -6.8533,-2.3067 -13.5866,-4.7333 -20.16,-7.2667 -3.5066,-1.3466 -6.9466,-2.6933 -10.3466,-4.0933 -3.4534,-1.4 -6.84,-2.8133 -10.1867,-4.2667 -3.3467,-1.4533 -6.68,-2.9066 -9.9733,-4.4133 -3.28,-1.5067 -6.5734,-3.0133 -9.8,-4.5867 -3.24,-1.56 -6.4134,-3.12 -9.6,-4.7333 -3.1734,-1.6267 -6.36,-3.2933 -9.4267,-4.96 -3.12,-1.6667 -6.2,-3.3467 -9.2667,-5.0667 -6.0933,-3.5066 -12.1333,-7.0666 -18,-10.7733 -2.9066,-1.84 -5.8266,-3.72 -8.68,-5.6133 -2.9066,-1.88 -5.76,-3.8267 -8.5733,-5.8134 -2.8,-2 -5.6,-3.9866 -8.3467,-5.9866 -5.5466,-4.0934 -10.9333,-8.24 -16.2266,-12.56 -15.84,-12.9334 -30.6534,-26.9467 -44.4,-42.1334 55.9866,-242.8266 161.4,-613.92 281.9599,-611.0133 179.0134,4.32 412.8534,264.3333 622.1067,275.3333 255.44,13.4667 396.7867,-133.1733 384.3867,-305.6133 2.8666,31.3067 4.3733,64.24 4.32,98.9867 0,0 8.3466,123.8933 -12.0134,239.0133"
         style="fill:#f2a5a5;fill-opacity:1;fill-rule:nonzero;stroke:none;stroke-width:0.133333" />
      <path
         id="path18"
         d="m 2890.3066,3329.0134 c -114.24,13.6266 -233.0667,20.9599 -289.3867,14.8133 -353.3066,-38.5333 -330.1866,-308.4667 -440.5066,-353.36 -38.96,-15.84 -119.9467,-21.1733 -200.4133,-48.9333 l 0.053,-0.053 c 13.6933,-20.04 25.1733,-36.16 33.7333,-47.8533 204.2533,-279.52 784.5333,-184.7333 794.56,14.8267 8.7333,173.84 53.6267,300.2133 101.96,420.56"
         style="fill:#f2a5a5;fill-opacity:1;fill-rule:nonzero;stroke:none;stroke-width:0.133333" />
      <path
         id="path19"
         d="m 3024.1733,3872.12 c -20.7067,-101.8667 -35.76,-199.4667 -64.64,-295.7333 -43.7734,-144.5734 -119.4667,-283.1733 -158.6134,-431.6267 -20.4533,-75.48 -33.08,-153.2533 -37.16,-231.4 -1.4933,-45.0133 -35.8533,-77.24 -72.6666,-100.5466 -104.88,-62.2 -234.48,-76.2534 -354.6,-65.6934 -125.4267,12.24 -255.7067,61.8 -329.4934,168.16 -231.6666,328.8534 -440.5199,764.8933 -384.6533,1175.8 19.44,143.8267 76.7467,292.9867 204.4,372.4 61.2534,39.32 133.3067,62.44 205.2667,75.4 23.56,4.9333 45.7733,6.0133 70.0133,3.9867 49.5867,-4.2934 101.5333,-12.2134 152.0267,-15.6 51.1733,-3.5467 101.2133,-7.6267 151.4666,-13.5067 162.7734,-20.68 362.5334,-58.76 489.1334,-167.2667 18.4133,-16.7066 34.7733,-35.88 48.7866,-57.5466 -7.28,24.7466 -19.8933,48.3066 -35.8666,69.2933 -131.36,168.4533 -449.1467,200.12 -649.68,216.9867 -77.6534,4.68 -156.4934,28.12 -234.72,11.9733 -314.12,-54.4133 -434.4667,-266.8133 -453.4933,-567.72 -18.8534,-401.5733 175.2533,-808.3466 399.3866,-1131.5466 81.1067,-118.16 224.4267,-175.84 362.48,-189.64 131.4,-11.6667 270.4267,4 385.8533,72.56 48.2534,29.08 94.8667,79.4533 96.0134,139.8533 4.1466,74.76 15.28,149 34.5066,221.4533 63.0534,242.6267 229.2934,478.32 176.2534,739.96"
         style="fill:#650000;fill-opacity:1;fill-rule:nonzero;stroke:none;stroke-width:0.133333" />
      <path
         id="path20"
         d="m 2378.1466,4312.5467 c 0,0 -0.1467,0.2133 -0.36,0.7066 0.2133,-0.4266 0.36,-0.7066 0.36,-0.7066"
         style="fill:#f9d3b7;fill-opacity:1;fill-rule:nonzero;stroke:none;stroke-width:0.133333" />
      <path
         id="path21"
         d="m 2336.7599,4644.6 c -22.48,2.9067 -271.6666,-6.96 -417.9999,-173.92 0,0 -125.1867,-116.04 -154.4534,-277.1733 -47.68,-262.4267 110.7067,-371.2267 110.7067,-371.2267 268.9333,-96.1867 421.4266,182.9467 421.4266,182.9467 0,0 4.48,45.48 10.6534,112.1733 16.8266,182.7733 46.2133,525.0667 29.6666,527.2"
         style="fill:#f9c9ca;fill-opacity:1;fill-rule:nonzero;stroke:none;stroke-width:0.133333" />
      <path
         id="path22"
         d="m 2336.7599,4644.6 c -22.48,2.9067 -271.6666,-6.96 -417.9999,-173.92 0,0 -125.1867,-116.04 -154.4534,-277.1733 0,0 52.8267,-10.3867 117.1067,52.0933 50.4667,49.08 96.6933,93.28 127.5333,20.36 30.84,-72.9067 24.56,-113.5067 61.0267,-177 14.4666,-25.1867 117.7733,-5.0533 237.12,28.44 16.8266,182.7733 46.2133,525.0667 29.6666,527.2"
         style="fill:#f2a5a5;fill-opacity:1;fill-rule:nonzero;stroke:none;stroke-width:0.133333" />
      <path
         id="path23"
         d="m 1918.76,4470.6533 c 73.5466,55.8 152.6533,94.7867 239.6933,121.2667 56.6933,17 116,31.5867 175.4933,31.2933 -5.72,0.3734 -13.52,5.56 -15.4267,11.6 0.3867,-2.6533 0.92,-6.08 1.0534,-9.6 -1.4534,-205.6133 -26.9467,-412.72 -44.56,-617.8533 l 2.5333,8.2133 c -4.9733,-7.3066 -11.1067,-15.8133 -16.9733,-23.6 -64.4934,-85.6933 -153.3734,-160.4133 -263.2933,-173.6 -40.44,-5.6533 -81.4,-2.44 -122.28,3.92 74.9066,-44.8266 174.3199,-47.1733 253.4399,-9.1066 70.4934,32.2133 128.8134,87.6266 170.3734,152.4 6.56,11.48 15.9866,23.7466 19.0933,37.5333 8.9733,92.04 17.3733,184.0133 25.12,276.1467 8.4133,116.12 21.3467,231.3333 19.5733,348.64 -0.56,7.48 -1.0933,15.6933 -4.16,23.1333 -2.84,6.7733 -8.6933,12.5733 -16.2666,14.4 -3.5334,0.8667 -3.7334,0.5333 -6.6267,0.8933 -156,-0.6933 -332.9067,-54.9733 -416.7866,-195.68"
         style="fill:#650000;fill-opacity:1;fill-rule:nonzero;stroke:none;stroke-width:0.133333" />
      <path
         id="path24"
         d="m 3092.1999,816.25341 c 0,0 -215.3066,149.45333 -195.2933,372.27999 16.3467,181.8933 341.0533,220.72 341.0533,220.72 l 236.16,-260.12"
         style="fill:#f9c9ca;fill-opacity:1;fill-rule:nonzero;stroke:none;stroke-width:0.133333" />
      <path
         id="path25"
         d="m 3020.3333,1279.5067 c 2.6933,29.5867 13.5066,55.44 29.76,77.88 l 0.08,0.013 c 90.6666,40.2266 187.76,51.8666 187.76,51.8666 l 236.2133,-260.12 -268.7333,-234.23996 c -42.48,33.08 -202.4534,171.17336 -185.08,364.59996"
         style="fill:#f2a5a5;fill-opacity:1;fill-rule:nonzero;stroke:none;stroke-width:0.133333" />
      <path
         id="path26"
         d="m 3237.9599,1430.8134 c -0.8533,0 -1.7066,-0.053 -2.56,-0.1467 -13.96,-1.68 -342.2533,-43.1733 -359.96,-240.2133 -20.8933,-232.62666 195.2534,-385.50665 204.4667,-391.90665 9.7733,-6.77334 23.2133,-4.36 30,5.42666 6.7867,9.77334 4.36,23.2 -5.4133,29.98667 -2.7867,1.94667 -204.7067,145.62666 -186.12,352.64002 13.0133,144.8 256.6133,191.1066 311.3333,199.6933 l 228.4533,-251.64 c 8.0133,-8.8267 21.64,-9.48 30.4533,-1.48 8.8134,8.0133 9.4667,21.64 1.4667,30.4533 l -236.16,260.12 c -4.1066,4.5334 -9.92,7.0667 -15.96,7.0667"
         style="fill:#650000;fill-opacity:1;fill-rule:nonzero;stroke:none;stroke-width:0.133333" />
      <path
         id="path27"
         d="m 1338.5866,2111.8267 c -21.7906,265.3867 13.56,621.44 521.9467,769.7867 702.0533,204.84 1522.8133,-35.0134 1725.0399,-359.04 158.2934,-253.6134 79.4934,-469.24 -5.1466,-600 -154.96,-759.6933 -440.3467,-951.05332 -719.2667,-1020.59999 -385.9333,-96.24 -1070.4533,-50.66666 -1366.1199,459.15999 -114.9334,198.1867 -132.3334,457.0667 -156.4534,750.6933"
         style="fill:#f9c9ca;fill-opacity:1;fill-rule:nonzero;stroke:none;stroke-width:0.133333" />
      <path
         id="path28"
         d="m 1338.5866,2111.8267 c -21.7906,265.3867 13.56,621.44 521.9467,769.7867 702.0533,204.84 1522.8133,-35.0134 1725.0399,-359.04 158.2934,-253.6134 79.4934,-469.24 -5.1466,-600 -154.96,-759.6933 -440.3467,-951.05332 -719.2667,-1020.59999 -385.9333,-96.24 -1070.4533,-50.66666 -1366.1199,459.15999 -114.9334,198.1867 -132.3334,457.0667 -156.4534,750.6933"
         style="fill:#f9c9ca;fill-opacity:1;fill-rule:nonzero;stroke:none;stroke-width:0.133333" />
      <path
         id="path29"
         d="m 1490.4533,2696.7734 c 79.08,76.7466 191.0133,142.44 348.1467,188.3066 617.1733,180.08 1326.1066,16.4934 1625.8799,-245.92 -407.1866,227.2267 -1420.1866,365.32 -1974.0266,57.6134"
         style="fill:#f2a5a5;fill-opacity:1;fill-rule:nonzero;stroke:none;stroke-width:0.133333" />
      <path
         id="path30"
         d="m 3095.5866,999.86674 c 90.72,147.86666 21.6267,428.29336 207.04,576.22666 61.12,48.68 134.32,56.3067 201.5333,47.0933 -108.6933,-343.9866 -253.3733,-524.0666 -408.5733,-623.31996"
         style="fill:#f2a5a5;fill-opacity:1;fill-rule:nonzero;stroke:none;stroke-width:0.133333" />
      <path
         id="path31"
         d="m 1391.6266,1653.1334 c 69.44,89.6667 160.6667,159.6533 266.5867,128.92 333.8667,-96.96 400.68,-622.32 370.0933,-843.51999 -212.7066,73.77329 -407.92,206.43999 -533.24,422.57329 -50.1866,86.52 -81.76,184.6134 -103.44,292.0267"
         style="fill:#f2a5a5;fill-opacity:1;fill-rule:nonzero;stroke:none;stroke-width:0.133333" />
      <path
         id="path32"
         d="m 1574.68,2599.7067 c 50.1333,96.0533 145.3466,166.52 261.1066,180.1467 33.28,3.92 65.9467,2.8533 97.3467,-2.5467 -10.1333,-3.24 -20.3333,-6.5067 -30.52,-9.9067 -138.04,-45.8 -245.1867,-103.0266 -327.9333,-167.6933"
         style="fill:#e8496b;fill-opacity:1;fill-rule:nonzero;stroke:none;stroke-width:0.133333" />
      <path
         id="path33"
         d="m 1538.76,2403.5334 c -21.8934,185.9333 111.0933,354.4133 297.0266,376.2933 185.9333,21.8933 354.4133,-111.0933 376.2933,-297.0267 21.8934,-185.9466 -111.0933,-354.4133 -297.0266,-376.3066 -185.9333,-21.88 -354.4133,111.1066 -376.2933,297.04"
         style="fill:#ff6982;fill-opacity:1;fill-rule:nonzero;stroke:none;stroke-width:0.133333" />
      <path
         id="path34"
         d="m 3350.8932,2196.2134 c -18.4799,157.0266 73.4667,301.6133 214.5467,356.0266 7.2667,-9.8133 13.9067,-19.7466 20.12,-29.68 158.2933,-253.6 79.5333,-469.24 -5.1067,-599.9733 -0.5466,-2.6266 -1.08,-5.24 -1.6266,-7.8666 -119.9467,40.6533 -212.1334,147.3066 -227.9334,281.4933"
         style="fill:#ff6982;fill-opacity:1;fill-rule:nonzero;stroke:none;stroke-width:0.133333" />
      <path
         id="path35"
         d="m 2806.8533,2922.0267 c 250.84,-81.1467 523.3466,-155.4 710.0133,-351.9333 69,-79.6267 116.48,-182.24 130.1066,-286.76 12.0534,-90.7067 -4.8933,-183.7467 -41.5733,-267.1467 -12.7067,-27.9866 -26.8267,-55.4933 -43.0667,-81.8933 -1.56,-2.28 -2.5066,-4.9067 -3.04,-7.4533 -80.76,-362.8934 -210.8133,-807.8 -585.9599,-960.73336 -169.0134,-67.05333 -356.16,-83.01333 -537.2667,-76.50666 -308.2267,13.97333 -629.7866,120.66662 -832.4666,363.34662 -65.96,79.1467 -118.9867,168.9467 -150.3334,267.68 -48.96,149.7067 -64.48,308.1867 -78.7466,464.72 -10.8934,129.1067 -27.7734,262.6 -2.8134,390.5867 45.2667,250.72 223.28,395.8 456.2267,472.84 150.96,49.56 305.1866,79.6533 462.8133,105.2933 -254.4267,9.7733 -564.1733,-50.6667 -763.72,-217.0667 -108.28,-90.2 -176.5333,-214.0933 -202.58,-352.0933 -26.7506,-132.6933 -11.428,-270.6267 -0.3826,-403.9466 19.5226,-213.48 38.456,-436.4534 145.0426,-627.5467 221.88,-394.82666 696.6933,-539.77332 1126.5333,-516.15999 215.0534,11.73334 443.4134,60.6 606.48,211.81329 241.96,224.4134 333.6933,557.1067 399.4267,869.1467 0.027,0.12 -0.7467,-1.7733 -1.52,-3.6667 -0.7467,-1.8533 -1.5067,-3.7066 -1.4934,-3.68 18.2534,27.3867 34.8667,56.0267 49.3067,85.88 67.1333,139.32 72.0533,295.2133 12.2667,438.2133 -23.4667,53.3334 -50.5334,105.5867 -88.84,150.5734 -58.3067,69.68 -133.7867,125.0266 -211.8934,168.96 -169.4133,94.44 -358.7466,154.8666 -552.5199,167.5333"
         style="fill:#650000;fill-opacity:1;fill-rule:nonzero;stroke:none;stroke-width:0.133333" />
      <path
         id="path36"
         d="m 2523.3999,2324.1334 c 26.56,85.9066 162.8,160.6266 338.6134,129.9866 168.8933,-29.44 232.76,-142.64 225.8666,-223.8133 -7.92,-93.2 -105.3733,-209.2933 -298.08,-193.4533 -167.3733,13.76 -310.4133,144.8666 -266.4,287.28"
         style="fill:#ed6882;fill-opacity:1;fill-rule:nonzero;stroke:none;stroke-width:0.133333" />
      <path
         id="path37"
         d="m 2523.3866,2324.16 c 26.5467,85.8934 162.8133,160.6134 338.6267,129.9467 168.92,-29.4133 232.76,-142.6 225.8266,-223.7733 -0.4533,-5.16 -1.12,-10.36 -2.0666,-15.5867 -26.4,63.68 -93.3867,126.48 -212.92,147.36 -175.8134,30.5867 -312.08,-44.1333 -338.6267,-130.0133 -2.7333,-8.7734 -4.68,-17.5334 -6.0133,-26.2134 -14.6267,36.7867 -17.6,77.0667 -4.8267,118.28"
         style="fill:#e8496b;fill-opacity:1;fill-rule:nonzero;stroke:none;stroke-width:0.133333" />
      <path
         id="path38"
         d="m 3082.1333,2286.1467 c -0.013,-0.013 -0.013,-0.013 -0.013,-0.027 0.3334,-1.1733 0.6534,-2.3333 0.96,-3.5066 -0.3066,1.1733 -0.6266,2.3466 -0.9466,3.5333 M 2633.3599,2087.76 c 0.067,-0.04 0.12,-0.08 0.1867,-0.1066 -0.067,0.027 -0.12,0.067 -0.1867,0.1066 m 0.2934,-0.1866 c 44.9333,-27.7334 99.12,-46.04 156.1466,-50.7467 12,-0.9733 23.6134,-1.4533 34.8667,-1.4533 43.1333,0 80.88,6.96 113.2933,18.7733 -32.4,-11.8 -70.12,-18.7467 -113.24,-18.7467 -11.28,0 -22.9066,0.4667 -34.92,1.4534 -57.0133,4.6933 -111.2133,23 -156.1466,50.72"
         style="fill:#fdefef;fill-opacity:1;fill-rule:nonzero;stroke:none;stroke-width:0.133333" />
      <path
         id="path39"
         d="m 3082.1199,2286.12 c 0,-0.013 0,-0.013 0,-0.027 1.24,-4.4 2.28,-8.7734 3.1467,-13.12 -0.6267,3.2 -1.36,6.4133 -2.1867,9.64 -0.3066,1.1733 -0.6266,2.3333 -0.96,3.5066 m -9.2266,-45.8266 c -26.7467,-76.6667 -110.48,-153.7334 -253.9734,-153.7334 -6.16,0 -12.44,0.1334 -18.8266,0.4267 0.093,0.3733 0.1866,0.8133 0.28,1.24 3.6666,20.12 -16.88,40.7867 -46,46.1733 -4.72,0.8667 -9.3867,1.28 -13.8934,1.28 -23.2533,0 -42.4133,-11.1066 -45.5466,-27.96 -0.04,-0.2933 -0.08,-0.5733 -0.12,-0.8666 -70.2534,24.5066 -129.0534,69.72 -160.5734,125.2666 -0.013,-0.013 -0.013,-0.013 -0.013,-0.027 -2.72,-8.7334 -4.6667,-17.44 -5.9867,-26.08 18.6534,-46.9334 56.44,-88.1334 105.12,-118.2534 0.067,-0.04 0.12,-0.08 0.1867,-0.1066 0.027,-0.027 0.067,-0.053 0.1067,-0.08 44.9333,-27.72 99.1333,-46.0267 156.1466,-50.72 12.0134,-0.9867 23.64,-1.4534 34.92,-1.4534 43.12,0 80.84,6.9467 113.24,18.7467 87.5867,31.92 136.3734,99.2933 147.7867,160.68 -3.5467,8.5333 -7.8267,17.0533 -12.8533,25.4667 m 14.9466,-9.96 c -0.2,-2.2267 -0.4266,-4.4667 -0.7066,-6.7067 0.28,2.24 0.52,4.4933 0.7066,6.7067"
         style="fill:#fad1d9;fill-opacity:1;fill-rule:nonzero;stroke:none;stroke-width:0.133333" />
      <path
         id="path40"
         d="m 3082.1199,2286.0934 c -0.027,-1.5467 -0.1866,-3.12 -0.2933,-4.68 -1.12,-13.3867 -4.0933,-27.24 -8.9333,-41.12 5.0266,-8.4134 9.3066,-16.9334 12.8533,-25.4667 0.5467,2.9467 1,5.88 1.3867,8.8 0.28,2.24 0.5066,4.48 0.7066,6.7067 v 0 c 1.16,13.52 0.3467,27.8933 -2.5733,42.64 -0.8667,4.3466 -1.9067,8.72 -3.1467,13.12 M 2515.4933,2277.2 c -0.8,-24.6533 3.76,-48.5866 12.7466,-71.1866 1.32,8.64 3.2667,17.3466 5.9867,26.08 0,0.013 0,0.013 0.013,0.027 -8.1733,14.3867 -14.52,29.48 -18.7466,45.08"
         style="fill:#f8c8d2;fill-opacity:1;fill-rule:nonzero;stroke:none;stroke-width:0.133333" />
      <path
         id="path41"
         d="m 2825.4933,2056.92 c -10.8934,0 -22.2,0.4534 -33.9334,1.4134 -93.5066,7.6933 -179.4933,53.7466 -224.4133,120.1733 -20.72,30.6533 -41.56,79.6933 -23.1467,139.2667 23.96,77.52 150.92,143.5866 314.32,115.1066 162.76,-28.3733 213.6134,-135.6 208.08,-200.7466 -6,-70.7067 -76.96,-175.2134 -240.9066,-175.2134 z m -44.24,425.92 c -146.44,0 -253.08,-70.3333 -278.44,-152.3466 -18.5734,-60.0667 -8.6667,-120.9734 28.6133,-176.1334 52.0667,-77 150.3867,-130.2533 256.6133,-138.9866 116.9334,-9.5734 191.44,27.52 233.3867,60.3466 50.28,39.3467 83.1467,96.4534 87.9333,152.7734 8.4934,100.0933 -72.4666,217.0266 -243.64,246.8533 -29.32,5.1067 -57.5733,7.4933 -84.4666,7.4933"
         style="fill:#650000;fill-opacity:1;fill-rule:nonzero;stroke:none;stroke-width:0.133333" />
      <path
         id="path42"
         d="m 2927.1066,2241.4934 c 6.1733,44.2 25.88,77.9866 44.04,75.4533 18.1467,-2.5333 27.8667,-40.4267 21.6933,-84.64 -6.1733,-44.2 -25.88,-77.9867 -44.04,-75.4533 -18.1466,2.5333 -27.8666,40.4266 -21.6933,84.64"
         style="fill:#650000;fill-opacity:1;fill-rule:nonzero;stroke:none;stroke-width:0.133333" />
      <path
         id="path43"
         d="m 2709.0799,2271.92 c 6.1734,44.2134 25.88,77.9867 44.04,75.4534 18.1467,-2.5334 27.8667,-40.4267 21.6934,-84.6267 -6.1734,-44.2133 -25.8934,-78 -44.04,-75.4667 -18.16,2.5467 -27.8667,40.4267 -21.6934,84.64"
         style="fill:#650000;fill-opacity:1;fill-rule:nonzero;stroke:none;stroke-width:0.133333" />
      <path
         id="path44"
         d="m 1662.08,1623.6667 c 279.92,-32.2 411.8399,-565.04 350.6933,-718.50662 -38.6,-96.90667 -167,-131.12 -275.9067,-71.97333 -52.0533,28.25333 -99.6666,77.83999 -130.8,152.18666 -43.96,7.10667 -134.2266,25.61329 -197.8266,80.07999 l -0.1467,0.053 c -30.8267,26.4934 -55.3867,61.3867 -65.3733,107.6 -41.2,191.2267 163.0933,468.4667 319.36,450.56"
         style="fill:#fccaca;fill-opacity:1;fill-rule:nonzero;stroke:none;stroke-width:0.133333" />
      <path
         id="path45"
         d="m 1408.24,1065.4534 c 40.2,-30.6533 152.3733,-53.6133 194.1733,6.5067 45.9467,65.9333 26.4667,251.3333 34.24,252.2533 4.9733,0.5867 15.9733,-117.7333 19.8933,-179.4667 5.1334,-80.88 -17.8133,-212.49329 95.9067,-291.05329 15.2667,-10.54666 -28.88,-3.01333 -15.5867,-20.50666 -52.0533,28.25333 -99.6666,77.83999 -130.8,152.18666 -43.96,7.10667 -134.2266,25.61329 -197.8266,80.07999"
         style="fill:#f2a5a5;fill-opacity:1;fill-rule:nonzero;stroke:none;stroke-width:0.133333" />
      <path
         id="path46"
         d="m 1606.0533,985.37341 h 0.067 z m 242.8,-159.78666 c -74.0133,0 -170.9333,44.07999 -222.92,168.11999 -2.88,6.86666 -9.0933,11.75996 -16.44,12.94666 -98.68,15.96 -221.4133,58.56 -245.68,171 -20.6,95.48 27.36,230.96 116.64,329.4533 59.4667,65.6134 126.4933,101.1867 179.2,95.12 106.6933,-12.2533 182.6,-104.3733 227.4933,-179.48 102.5734,-171.6133 141.64,-419.0933 105.6134,-509.58662 -21.28,-53.42667 -75.7734,-86.97333 -142.24,-87.57333 -0.5467,0 -1.1067,0 -1.6667,0 z m -201.1867,820.42665 c -63.5066,0 -135.0933,-39.2667 -199.16,-109.9467 -82.8666,-91.44 -154.2293,-240.5333 -126.8306,-367.5066 22.6973,-105.1867 115.7106,-175.04002 269.284,-202.48002 61.7866,-136.26667 174.1066,-184.06667 259.9466,-183.6 84.32,0.74667 154.0267,44.72 181.9067,114.73333 41.2666,103.63999 3.5733,359.87999 -108.6533,547.65329 -71.5334,119.68 -161.2934,188.8934 -259.5867,200.1867 -5.56,0.64 -11.2,0.96 -16.9067,0.96"
         style="fill:#650000;fill-opacity:1;fill-rule:nonzero;stroke:none;stroke-width:0.133333" />
      <path
         id="path47"
         d="m 3020.3599,880.33341 146.8667,66.86667 c 121.64,551.40002 445.8133,679.28002 530.8533,587.49332 47.8533,-51.6267 12.96,-104.6133 20.56,-198.7733 7.8667,-98.24 10.0533,-165.0534 -27.1067,-226.04 -23.8266,-38.9734 -63.64,-75.56 -128.2933,-116.48002 0,0 -93.8933,-160.17333 -234.72,-211.28 -88.1466,-32.04 -194.7066,-21.28 -308.16,98.21333"
         style="fill:#f9c9ca;fill-opacity:1;fill-rule:nonzero;stroke:none;stroke-width:0.133333" />
      <path
         id="path48"
         d="m 3168.3466,952.17341 c 122.4933,547.22669 444.9333,674.05329 529.7333,582.51999 19.9467,-21.52 25.56,-43.3067 25.72,-68.2267 -55.3867,108.3867 -217.6667,29.68 -339.3867,-141.5066 -153.3866,-215.92 -150.4399,-469.28002 -216.0666,-372.78669"
         style="fill:#f2a5a5;fill-opacity:1;fill-rule:nonzero;stroke:none;stroke-width:0.133333" />
      <path
         id="path49"
         d="m 3328.5199,782.12008 c 0,0 114.3867,91.6 177.6133,232.89332 43.0267,96.1467 67.2934,259.7733 71.7334,251.7067 4.4933,-8 -11.88,-69.5734 5.04,-144.0534 21.3333,-93.96 108.5466,-12.6533 108.5466,-12.6533 l 0.08,-0.1333 c -23.8266,-38.9734 -63.64,-75.56 -128.2933,-116.48002 0,0 -93.8933,-160.17333 -234.72,-211.28"
         style="fill:#f2a5a5;fill-opacity:1;fill-rule:nonzero;stroke:none;stroke-width:0.133333" />
      <path
         id="path50"
         d="m 3167.2266,947.18674 c 76.92,197.31996 150.88,413.39996 327.8933,542.86666 54.1067,40.0533 177.6,89.6133 204.6933,-1.7333 7.4934,-37.3467 -6.6933,-93.0667 -3.68,-136.24 3.9467,-73.9467 16.6,-157.5734 -17.2666,-220.4667 -27.4,-51.76 -78.16,-88.1067 -127.1867,-120 -2.9467,-1.92 -5.36,-4.5067 -7.0667,-7.32 -6.44,-10.61332 -14.2133,-22.13332 -22,-32.86666 -67.7066,-91.76 -165.8933,-185.66666 -286.3199,-182.87999 -25.12,0.97333 -49.9467,6.54666 -73.8,15.57333 -47.3067,19.62667 -89.7734,52.36 -126.4934,91.02666 -8.1866,8.64 -21.8266,9.01334 -30.48,0.82667 -8.6533,-8.2 -9.0133,-21.88 -0.7866,-30.50666 39.5333,-41.54667 86.44,-78.49334 141.8933,-101.42667 34.96,-13.45333 73.1733,-20.4 110.8933,-18.45333 140.5867,9.70666 252.84,124.81333 324.28,236.90666 l -7.08,-7.32 c 26.9467,17.58667 53.6933,35.83999 78.52,57.77329 89.6133,77.76 97.7067,163.1334 89.1333,274.36 -2.6,31.6 -4.68,59.7067 -1.92,90.8 2.1334,33.2 9.1734,65.32 1.2534,100.36 -21.76,85.0667 -110.16,98.8667 -182.72,74.0934 -236.4133,-83.1467 -375.8533,-390.9867 -391.76,-625.37336"
         style="fill:#650000;fill-opacity:1;fill-rule:nonzero;stroke:none;stroke-width:0.133333" />
      <path
         id="path51"
         d="m 2855.7466,3387.24 c -20.7333,-165.8 -73.04,-301.0933 -88.32,-416.96 -8.4533,-64.1866 -4.9333,-197.1466 128.3467,-218.9333 182.4266,-71.5733 359.36,281.8133 315.8,470.8667 -43.24,187.6799 -231.0534,209.6533 -355.8267,165.0266"
         style="fill:#f9c9ca;fill-opacity:1;fill-rule:nonzero;stroke:none;stroke-width:0.133333" />
      <path
         id="path52"
         d="m 3211.5733,3222.2134 c -43.2134,187.7066 -231.08,209.6399 -355.84,165.0133 -9.8,-78.52 -26.72,-150.1867 -43.4267,-216.2 -18.5467,-73.3467 -36.8133,-139.7467 -44.8933,-200.7467 -8.4667,-64.1866 -4.9067,-197.1333 128.36,-218.9066 182.4266,-71.6134 359.3466,281.8 315.8,470.84"
         style="fill:#f9c9ca;fill-opacity:1;fill-rule:nonzero;stroke:none;stroke-width:0.133333" />
      <path
         id="path53"
         d="m 3211.5733,3222.2134 c -43.2134,187.7066 -231.08,209.6399 -355.84,165.0133 -9.8,-78.52 -26.72,-150.1867 -43.4267,-216.2 50.28,1.6133 118.9867,12.0133 180.2667,49.2 81.96,49.68 154.76,81.48 219,1.9867"
         style="fill:#f2a5a5;fill-opacity:1;fill-rule:nonzero;stroke:none;stroke-width:0.133333" />
      <path
         id="path54"
         d="m 3171.8533,2954.4934 c -13.4134,34.6 -35.2934,66.0666 -69.4,89.4533 -119.32,81.7467 -258.1334,52.28 -313.32,35.4133 -9.32,-38.2666 -17.1334,-74.5333 -21.72,-109.08 -8.4667,-64.1866 -4.9067,-197.1333 128.36,-218.9066 109.56,-43 217.08,67.2533 276.08,203.12"
         style="fill:#f2a5a5;fill-opacity:1;fill-rule:nonzero;stroke:none;stroke-width:0.133333" />
      <path
         id="path55"
         d="m 2787.9199,2960.16 c -6,-55.4266 -3.6133,-168.7466 111.32,-187.5333 1.5067,-0.2533 2.9867,-0.6533 4.4,-1.2133 13.6134,-5.3334 27.3867,-8 41.3067,-8 25.8933,0 52.28,9.2133 78.9067,27.6 -18.2134,-7.6534 -36.9734,-11.8267 -56.0134,-11.8267 -16.1466,0 -32.4933,3 -48.8933,9.4267 -105.5467,17.24 -129.7333,104.2133 -131.0267,171.5466"
         style="fill:#f9d2d2;fill-opacity:1;fill-rule:nonzero;stroke:none;stroke-width:0.133333" />
      <path
         id="path56"
         d="m 2875.3733,3371.0533 c 60.6533,18.6667 145.4533,23.88 215.1866,-14.2533 51.5334,-28.1733 85.1867,-75.0933 100.0134,-139.4266 28.0933,-121.9334 -42.96,-321.3867 -146.1867,-410.4267 -48,-41.3867 -95.36,-53.3467 -140.7467,-35.5333 -1.4133,0.56 -2.8933,0.96 -4.4,1.2133 -120.2533,19.6533 -117.2933,142.8 -110.44,194.84 6.6934,50.72 21.0534,106.8267 36.2534,166.2133 18.0533,70.52 38.3866,149.9734 50.32,237.3733 m 95.0133,57.28 c -44.9733,0 -87.72,-8.5733 -121.8933,-20.8 -7.6667,-2.7333 -13.12,-9.5466 -14.1334,-17.6266 -11.2666,-90.0267 -32.4133,-172.64 -51.0666,-245.5333 -15.5334,-60.68 -30.2134,-118 -37.2267,-171.28 -13.5867,-103.0934 17.2,-220.6134 143.9867,-242.64 59.9466,-22.5867 123,-7.4534 182.4933,43.8533 115.4133,99.5333 191.6933,315.3333 160.04,452.7467 -17.4667,75.7733 -59.4133,133.7199 -121.3333,167.5733 -44.52,24.3466 -93.9067,33.7066 -140.8667,33.7066"
         style="fill:#650000;fill-opacity:1;fill-rule:nonzero;stroke:none;stroke-width:0.133333" />
      <path
         id="path57"
         d="m 3056.3599,3613.4667 c -24.28,30.2933 -55.4666,36.0133 -114.36,38.1333 -104.0933,3.7067 -250.5866,65.4 -446.9333,38.9867 -195.5733,-26.2534 -384.9733,-157.7734 -453.9067,-238.2 -2.6266,-3.08 -5.0933,-6.1067 -7.4,-9.0267 l 126.64,-452.8933 c 16.0934,7.2933 38.48,22.7733 65.9067,42.6267 l 0.053,0.067 c 89.4,64.8267 231.9067,175.76 381.3734,196.8534 41.0133,5.7866 85.4,3.0933 130.88,0.3866 80.96,-4.8 165.3466,-9.6133 240.1866,33.4934 43.0134,24.7866 71.7334,70.8266 88.2134,122.0933 v 0.1066 c 27.88,86.5467 20.92,188.0534 -10.6534,227.3734"
         style="fill:#ffad40;fill-opacity:1;fill-rule:nonzero;stroke:none;stroke-width:0.133333" />
      <path
         id="path58"
         d="m 3056.3733,3613.4933 c -24.3067,30.28 -55.4534,36 -114.36,38.1067 -12.9867,0.48 -26.6134,1.8267 -40.96,3.8133 v 0.067 c -100.4934,13.84 -234.1467,58.2533 -406,35.1333 -195.5734,-26.3066 -384.9334,-157.8 -453.8667,-238.2 -2.64,-3.12 -5.12,-6.1466 -7.44,-9.0533 l 126.6533,-452.8933 c 16.1067,7.28 38.4667,22.8 65.9067,42.6267 l 0.053,0.053 c 89.4,64.84 231.88,175.8 381.3734,196.8667 40.9866,5.7733 85.3333,3.0933 130.7733,0.4 37.9733,-2.2534 76.7067,-4.5067 114.8667,-1.8 h 0.053 c 43.16,3.0133 85.6267,12.3866 125.4,35.2933 43,24.7867 71.72,70.8133 88.2133,122.0666 v 0.1067 c 27.8667,86.5467 20.9067,188.0667 -10.6666,227.4133"
         style="fill:#f9c9ca;fill-opacity:1;fill-rule:nonzero;stroke:none;stroke-width:0.133333" />
      <path
         id="path59"
         d="m 3056.3733,3613.5067 c -24.3067,30.2933 -55.4534,36 -114.36,38.1066 -12.9867,0.48 -26.6134,1.8267 -40.9467,3.8267 v 0.053 c -100.5067,13.8534 -234.16,58.2534 -406.0133,35.1334 -195.5734,-26.2934 -384.9334,-157.7867 -453.8667,-238.1867 -2.64,-3.1333 -5.12,-6.1467 -7.44,-9.0533 l 126.6533,-452.8933 c 16.1067,7.2666 38.4667,22.7866 65.9067,42.6266 l 0.053,0.053 c 89.4,64.8266 231.88,175.7866 381.3734,196.8533 40.9866,5.7867 85.3333,3.0933 130.7733,0.4 37.9733,-2.2533 76.7067,-4.4933 114.8667,-1.8 h 0.053 c 12.3867,0.8667 24.68,2.2667 36.8533,4.32 V 3233 c 30.4,5.12 60.1467,14.6 88.5467,30.9334 43,24.7866 71.72,70.7999 88.2133,122.0533 v 0.1066 c 27.8667,86.5467 20.9067,188.08 -10.6666,227.4134"
         style="fill:#f9c9ca;fill-opacity:1;fill-rule:nonzero;stroke:none;stroke-width:0.133333" />
      <path
         id="path60"
         d="m 3056.3733,3613.5067 c -24.3067,30.2933 -55.4534,36 -114.36,38.1066 0,0 82.1866,-233.9866 -51.7334,-418.6133 30.4,5.12 60.1467,14.6 88.5467,30.9334 43,24.7866 71.72,70.7999 88.2133,122.0533 v 0.1066 c 27.8667,86.5467 20.9067,188.08 -10.6666,227.4134"
         style="fill:#f2a5a5;fill-opacity:1;fill-rule:nonzero;stroke:none;stroke-width:0.133333" />
      <path
         id="path61"
         d="m 3056.3733,3613.4533 c -2.2667,2.8667 -4.64,5.4534 -7.0134,7.8667 -20.9066,21.08 -47.68,27.1733 -91.4933,29.5867 -5.0133,0.28 -10.2933,0.4933 -15.8533,0.7066 0,0 6.6933,-19.08 13.16,-50.6533 102.1733,2.0933 120.2266,-127.3467 111.8666,-214.8667 27.8667,86.5467 20.9067,188.08 -10.6666,227.36"
         style="fill:#d87979;fill-opacity:1;fill-rule:nonzero;stroke:none;stroke-width:0.133333" />
      <path
         id="path62"
         d="m 3001.9466,3280.36 c -7.1867,-6.1866 -14.8933,-11.7066 -23.12,-16.4533 -39.7733,-22.9067 -82.24,-32.28 -125.4,-35.2933 h -0.053 c -12.44,-0.88 -24.9334,-1.24 -37.44,-1.24 -25.88,0 -51.8267,1.52 -77.4267,3.04 -0.48,0.027 -0.9467,0.053 -1.4133,0.08 0.5066,-0.027 1.0133,-0.067 1.52,-0.093 25.64,-1.52 51.6266,-3.04 77.5466,-3.04 55.9067,0 111.4934,7.08 162.64,36.5334 8.24,4.7466 15.9467,10.2666 23.1467,16.4666 m -404.6267,-51.96 c -103.88,-17.5333 -203.84,-77.16 -284.32,-132.88 80.48,55.72 180.4534,115.3334 284.32,132.88"
         style="fill:#ffc67a;fill-opacity:1;fill-rule:nonzero;stroke:none;stroke-width:0.133333" />
      <path
         id="path63"
         d="m 3029.4133,3310.2 c -13.96,-18.8933 -30.76,-34.84 -50.5867,-46.2666 -28.4,-16.3334 -58.1467,-25.8134 -88.5467,-30.9334 v -0.053 c -12.1733,-2.0533 -24.4666,-3.4533 -36.8533,-4.32 h -0.053 c -12.44,-0.88 -24.9334,-1.2267 -37.44,-1.2267 -25.88,0 -51.8267,1.5067 -77.4267,3.0267 -25.6133,1.52 -50.8667,3.04 -75.3867,3.04 -18.9733,0 -37.5066,-0.92 -55.3866,-3.44 -149.4667,-21.0667 -291.9334,-132 -381.3467,-196.8267 -0.013,-0.027 -0.013,-0.04 -0.027,-0.04 25.0534,18.16 54.2667,39.9467 86.64,62.36 80.48,55.72 180.44,115.3467 284.32,132.88 3.4667,0.5867 6.9467,1.12 10.4134,1.6134 17.88,2.52 36.4133,3.44 55.3866,3.44 24.0667,0 48.8534,-1.4667 73.9734,-2.96 0.4666,-0.027 0.9333,-0.053 1.4133,-0.08 25.6,-1.52 51.5467,-3.04 77.4267,-3.04 12.5066,0 25,0.36 37.44,1.24 h 0.053 c 43.16,3.0133 85.6267,12.3866 125.4,35.2933 8.2267,4.7467 15.9333,10.2667 23.12,16.4533 10.16,8.72 19.2933,18.7867 27.4667,29.84"
         style="fill:#fbd9da;fill-opacity:1;fill-rule:nonzero;stroke:none;stroke-width:0.133333" />
      <path
         id="path64"
         d="m 3029.4133,3310.2 c -13.96,-18.8933 -30.76,-34.84 -50.5867,-46.2666 -28.4,-16.3334 -58.1467,-25.8134 -88.5467,-30.9334 11.1734,15.4 20.84,31.1334 29.1734,47.0534 -32.7067,-8.3334 -66.9734,-10.5334 -102.9334,-10.5334 -20.1333,0 -40.7733,0.6934 -61.9866,1.3734 -21.2,0.6933 -42.96,1.3866 -65.2934,1.3866 -33.04,0 -67.3466,-1.5066 -102.9866,-6.76 -193.1334,-28.4133 -355.32,-226.6933 -359.8667,-232.32 89.4133,64.8267 231.88,175.76 381.3467,196.8267 17.88,2.52 36.4133,3.44 55.3866,3.44 24.52,0 49.7734,-1.52 75.3867,-3.04 25.6,-1.52 51.5467,-3.0267 77.4267,-3.0267 12.5066,0 25,0.3467 37.44,1.2267 h 0.053 c 12.3867,0.8667 24.68,2.2667 36.8533,4.32 V 3233 c 30.4,5.12 60.1467,14.6 88.5467,30.9334 19.8267,11.4266 36.6267,27.3733 50.5867,46.2666 v 0"
         style="fill:#fbd9da;fill-opacity:1;fill-rule:nonzero;stroke:none;stroke-width:0.133333" />
      <path
         id="path65"
         d="m 3067.0133,3386.0933 c -45.4267,-62.7599 -94.44,-92.4933 -147.56,-106.0399 -8.3334,-15.92 -18,-31.6534 -29.1734,-47.0534 30.4,5.12 60.1467,14.6 88.5467,30.9334 19.8267,11.4266 36.6267,27.3733 50.5867,46.2666 16.2933,22.08 28.72,48.1733 37.6,75.7867 v 0.1066"
         style="fill:#f6c0c0;fill-opacity:1;fill-rule:nonzero;stroke:none;stroke-width:0.133333" />
      <path
         id="path66"
         d="m 3056.3599,3613.4667 c -24.28,30.2933 -55.4666,36.0133 -114.36,38.1333 -104.0933,3.7067 -250.5866,65.4 -446.9333,38.9867 -195.5733,-26.2534 -384.9733,-157.7734 -453.9067,-238.2 71.12,9.9866 284.4667,163.88 469.3867,179.08 187.1467,15.4266 300.0533,-36.8934 441.6667,-30.56 104.7733,4.7066 123.2133,-126.4134 114.8,-214.8134 27.88,86.5467 20.92,188.0534 -10.6534,227.3734"
         style="fill:#f2a5a5;fill-opacity:1;fill-rule:nonzero;stroke:none;stroke-width:0.133333" />
      <path
         id="path67"
         d="m 3056.3733,3613.4533 c -2.2667,2.8667 -4.64,5.4534 -7,7.88 -20.9734,21.0134 -47.6934,27.1067 -91.5067,29.5734 -5.0133,0.28 -10.2933,0.4933 -15.8533,0.7066 0,0 6.6933,-19.08 13.16,-50.6533 102.1733,2.0933 120.2266,-127.3467 111.8666,-214.8667 27.8667,86.5467 20.9067,188.08 -10.6666,227.36"
         style="fill:#d87979;fill-opacity:1;fill-rule:nonzero;stroke:none;stroke-width:0.133333" />
      <path
         id="path68"
         d="m 2160.4133,2990.48 c 47.04,17.16 88.6266,47.2267 131.4666,72.36 62.9734,39.04 125.8267,74.9734 192.4934,105.76 65.2,30.8267 134.5066,48.04 206.9733,42.4934 121.9733,-7.5734 285.52,-24.9334 363.1733,95.84 52.9467,80.6133 74.4267,223.3466 27.6,310.4399 -30.1866,51.8267 -90.4133,57.3467 -143.76,58.7334 -26.4666,1.44 -52.6266,6.08 -79.8133,11.16 -122.7333,25.7333 -252.1867,47.12 -378.1333,25.4533 -125.9067,-21.7467 -246.2667,-76.68 -346.1334,-155.7733 -38.8266,-32.32 -76.36,-68.7334 -100.5333,-113.5734 37.64,32.08 78.8933,59.3334 120.6933,85.36 122.4,76.8134 258.6134,139.08 405,143.16 48.0667,1.9867 96.3334,-0.48 144.5067,-6.8533 73.6667,-8.7733 146.5333,-29.7467 221.9333,-36.8267 81.76,-3.84 123.2,-1.3866 133.7334,-96.6 6.5466,-67.6933 -5.6667,-141.9866 -42.6134,-199.8933 -37.6533,-60.16 -109.8266,-78.5866 -176.7466,-81.8 -72.6134,-3.64 -149.9334,10.5867 -224.9334,2.7467 -26.3733,-3.1333 -51.92,-8.2667 -76.92,-15.56 -99,-26.8133 -185.84,-86.04 -263.4266,-150.68 -39,-31.2933 -73.6134,-67.2933 -114.56,-95.9467"
         style="fill:#650000;fill-opacity:1;fill-rule:nonzero;stroke:none;stroke-width:0.133333" />
      <path
         id="path69"
         d="m 2887.1733,2730.72 c 58.2933,5.8 112.76,93.8 121.64,146.6 -11.7334,-27.7866 -32.4,-50.7466 -54.32,-70.6266 -17.5867,-15.1334 -45.7067,-35.8934 -67.32,-32.8667 V 2730.72"
         style="fill:#650000;fill-opacity:1;fill-rule:nonzero;stroke:none;stroke-width:0.133333" />
      <path
         id="path70"
         d="m 2959.5599,2665.2 c -39.4933,-27.5333 -84.9733,-33.9066 -130.36,-22.92 -61.2,16.6 -108.8933,60.2134 -157.16,101.5867 12.12,-27.3333 27.4134,-53.8933 48.2267,-76.5333 30.3333,-35.24 73.9067,-63.84 121.48,-71.3467 48.8267,-8.52 109.8133,15.76 117.8133,69.2133"
         style="fill:#650000;fill-opacity:1;fill-rule:nonzero;stroke:none;stroke-width:0.133333" />
      <path
         id="path71"
         d="m 2371.1466,4639.72 c 231.8667,-47.2267 215.44,-505.7467 109.92,-631.8667 -71.4267,-85.3733 -186.3467,-85.7066 -242.72,37.2 -85.8,-99.3066 -218.08,-62.7866 -252.7066,59.08 -49.5734,174.52 64.6533,600.9467 385.5066,535.5867"
         style="fill:#ed9696;fill-opacity:1;fill-rule:nonzero;stroke:none;stroke-width:0.133333" />
      <path
         id="path72"
         d="m 2238.3466,4045.0533 v 0 c 0.2533,-0.5466 0.4933,-1.08 0.7467,-1.6133 -0.2534,0.5333 -0.4934,1.0667 -0.7467,1.6133"
         style="fill:#fce4e5;fill-opacity:1;fill-rule:nonzero;stroke:none;stroke-width:0.133333" />
      <path
         id="path73"
         d="m 1985.7866,4305.88 c -15.1066,-76.4667 -14.7733,-150.1067 -0.1333,-201.7333 20.9733,-73.7734 77.7333,-116.28 138.3066,-116.28 39.4667,0 80.5334,18.04 114.3734,57.2 l 0.013,-0.013 v 0 c 0.2533,-0.5466 0.4933,-1.08 0.7467,-1.6133 30.7333,-65.8 78.4266,-95.6933 126.9733,-95.6933 40.9467,0 82.4933,21.24 115.0133,60.1333 34.04,40.68 58.8134,116 68.88,200.9333 -12.6133,-64.2533 -33.96,-119.0933 -61.2266,-151.72 -32.52,-38.8933 -74.0667,-60.1466 -114.9734,-60.1466 -48.9466,0 -96.9866,30.3866 -127.7066,97.3333 -33.84,-39.16 -74.9334,-57.2 -114.3867,-57.2 -60.6,0 -117.36,42.4933 -138.2933,116.28 -11.48,40.4133 -14.1733,94.32 -7.5867,152.52"
         style="fill:#f6cbcb;fill-opacity:1;fill-rule:nonzero;stroke:none;stroke-width:0.133333" />
      <path
         id="path74"
         d="m 2371.1199,4639.7333 c -208.7066,42.4933 -330.0266,-123.1866 -375.5999,-292.16 59.2133,136.1467 174.0666,244.76 357.8799,208.7734 148.56,-29.0667 199.52,-193.2667 195.8934,-353.1067 22.8933,179.1733 -19.4667,404.1333 -178.1734,436.4933"
         style="fill:#d87979;fill-opacity:1;fill-rule:nonzero;stroke:none;stroke-width:0.133333" />
      <path
         id="path75"
         d="m 2366.8399,4618.6 4.3067,21.12 -4.3067,-21.12 c 79.2,-16.12 119.4134,-86.9067 139.2,-143.44 53.6534,-153.36 22.0267,-377.5333 -41.5066,-453.48 -31.76,-37.96 -72.2667,-56.7733 -111.1334,-51.5467 -39.1466,5.2534 -73.0533,35.04 -95.4533,83.9067 -3.0667,6.6667 -9.3067,11.32 -16.56,12.3467 -7.2533,1.0266 -14.5467,-1.6934 -19.3467,-7.24 -34.1466,-39.52 -78.3866,-56.7067 -121.3466,-47.2 -44.4,9.8266 -79.6534,46.4933 -94.3067,98.08 -27.96,98.4 1.44,309.4266 112.8267,429.5866 66.96,72.24 150.28,98.8134 247.6266,78.9867 z m -59.8933,49.3866 c -83.7867,0 -158.6667,-33.5866 -219.36,-99.0666 -115.64,-124.76 -157.4666,-348.1867 -122.68,-470.6667 19.0667,-67.08 66.3333,-115.08 126.4667,-128.4 49.8666,-11.0533 100.1733,3.2 141.64,39.3067 28.64,-46.88 68.5733,-75.5733 114.6533,-81.76 53.8533,-7.2 108.48,17.0667 149.9333,66.6267 80.6267,96.3733 104.5067,337.1066 49.1334,495.3733 -33.6667,96.2 -92.8934,155.48 -171.28,171.4533 -23.3867,4.76 -46.2667,7.12 -68.5067,7.1333"
         style="fill:#650000;fill-opacity:1;fill-rule:nonzero;stroke:none;stroke-width:0.133333" />
      <path
         id="path76"
         d="m 2272.5199,4205.2933 -55.2533,-155.7466 42.16,-9 z"
         style="fill:#650000;fill-opacity:1;fill-rule:nonzero;stroke:none;stroke-width:0.133333" />
      <path
         id="path77"
         d="m 3242.9599,4333.2933 c 42.76,110.4534 189.9733,121.3734 262.08,83.16 62.6133,-33.1733 88.9333,-127.9733 122.72,-219.0533 37.08,-99.92 128.0933,-245.84 84.5733,-321.32 -22.64,-39.2667 -83.84,-58.5333 -139.9466,-31.1733 -12.5067,-67.6667 -54.7334,-92.8534 -93.92,-95.7334 -59.48,-4.36 -207,44.2667 -253.32,364.4134 0,0 -4.3333,63.2533 0,116.3466 5.8133,71.0934 17.8133,103.36 17.8133,103.36"
         style="fill:#ed9696;fill-opacity:1;fill-rule:nonzero;stroke:none;stroke-width:0.133333" />
      <path
         id="path78"
         d="m 3644.8532,4155.72 c -0.067,0.12 -0.12,0.2533 -0.1866,0.3733 -6.28,14.3734 -12.0534,28.2534 -16.88,41.3067 -33.84,91.08 -60.1467,185.8667 -122.7334,219.08 -72.12,38.16 -219.3199,27.24 -262.0666,-83.1733 0,0 -12.0533,-32.2667 -17.8267,-103.3867 -4.3333,-53.1067 0,-116.32 0,-116.32 1.0667,-7.2267 2.1334,-14.2533 3.2534,-21.16 49.6533,-301.12 191.9066,-347.5067 250.0266,-343.24 39.24,2.8267 81.4267,28.0533 93.9733,95.7333 56.0534,-27.3733 117.2667,-8.1066 139.92,31.1334 37.7867,65.5333 -25.8666,184.1066 -67.48,279.6533"
         style="fill:#ed9696;fill-opacity:1;fill-rule:nonzero;stroke:none;stroke-width:0.133333" />
      <path
         id="path79"
         d="m 3251.4933,3989.4533 c 8.12,-27.68 17.1733,-52.28 26.9066,-74.1733 -9.72,21.8667 -18.7733,46.4667 -26.8933,74.1333 0,0.013 -0.013,0.027 -0.013,0.04"
         style="fill:#fce4e5;fill-opacity:1;fill-rule:nonzero;stroke:none;stroke-width:0.133333" />
      <path
         id="path80"
         d="m 3228.1466,4094.0933 c 0.093,-0.5466 0.1733,-1.1066 0.2667,-1.6666 6.3066,-38.2934 14.1333,-72.4934 23.08,-102.9734 0,-0.013 0.013,-0.027 0.013,-0.04 -8.24,28.08 -15.52,59.3067 -21.56,94 -0.52,2.9867 -1.0267,6 -1.5333,9.0267 -0.04,0.2533 -0.08,0.5067 -0.12,0.76 -0.053,0.3067 -0.093,0.6 -0.1467,0.8933"
         style="fill:#f9d2d2;fill-opacity:1;fill-rule:nonzero;stroke:none;stroke-width:0.133333" />
      <path
         id="path81"
         d="m 3278.4266,3915.2 c 0.013,-0.027 0.04,-0.093 0.053,-0.12 -0.013,0.04 -0.04,0.08 -0.053,0.12"
         style="fill:#fce4e5;fill-opacity:1;fill-rule:nonzero;stroke:none;stroke-width:0.133333" />
      <path
         id="path82"
         d="m 3706.4532,3867.4 c -3.3466,-4.2533 -7.1866,-8.2133 -11.44,-11.8 -11.3866,-9.64 -25.8,-16.76 -41.8266,-20.5067 22.0133,5.1467 40.9733,16.64 53.2666,32.3067 m -134.04,-22.5067 c -2.48,-13.2933 -6.0933,-24.96 -10.6,-35.1333 -13.7466,-31 -35.84,-48.1733 -59.24,-55.8533 31.0934,10.16 59.84,37.1333 69.8534,90.9733 0,0.013 -0.013,0.013 -0.013,0.013 m 80.7467,-9.8133 c -0.013,0 -0.027,0 -0.04,0 0.013,0 0.027,0 0.04,0"
         style="fill:#ffeafa;fill-opacity:1;fill-rule:nonzero;stroke:none;stroke-width:0.133333" />
      <path
         id="path83"
         d="m 3228.1199,4094.2933 c 0.013,-0.067 0.013,-0.1333 0.027,-0.2 0.053,-0.2933 0.093,-0.5866 0.1467,-0.8933 -0.053,0.36 -0.12,0.72 -0.1734,1.0933 m 1.8267,-10.88 c 6.04,-34.6933 13.32,-65.92 21.56,-94 8.12,-27.6666 17.1733,-52.2666 26.8933,-74.1333 0.013,-0.027 0.027,-0.053 0.027,-0.08 0.013,-0.04 0.04,-0.08 0.053,-0.12 32.0134,-71.96 71.1867,-114.28 107.84,-138.1867 -59.1066,38.5734 -124.8,125.0667 -156.3733,306.52 m 472.9466,-62.9733 c 6.4934,-17.8933 11.9334,-35.4267 15.6534,-52.2133 -3.7067,16.7866 -9.16,34.32 -15.6534,52.2133 m 15.68,-52.3067 c 0,-0.04 0.013,-0.08 0.027,-0.1066 -0.013,0.027 -0.027,0.067 -0.027,0.1066 m -23.56,-112.5333 c -17.36,-14.6667 -41.68,-23.4933 -68.0933,-23.4933 -17.72,0 -36.3867,3.9733 -54.5067,12.8266 0,-0.013 0,-0.027 0,-0.04 0,0 0.013,0 0.013,-0.013 0,0.013 0.013,0.013 0.013,0.013 18.1067,-8.8266 36.76,-12.8 54.48,-12.8 9.04,0 17.84,1.04 26.2,2.9867 0.013,0 0.027,0 0.04,0 0.013,0.013 0.013,0.013 0.027,0.013 16.0266,3.7467 30.44,10.8667 41.8266,20.5067 m -133.2,-45.84 c -14.68,-33.08 -38.84,-50.4267 -63.9866,-57.28 1.5866,0.44 3.1733,0.9067 4.7466,1.4267 23.4,7.68 45.4934,24.8533 59.24,55.8533"
         style="fill:#f6cbcb;fill-opacity:1;fill-rule:nonzero;stroke:none;stroke-width:0.133333" />
      <path
         id="path84"
         d="m 3225.9599,4108.4133 c 0.72,-4.8 1.44,-9.4933 2.16,-14.12 0.053,-0.3733 0.12,-0.7333 0.1734,-1.0933 0.04,-0.2533 0.08,-0.5067 0.12,-0.76 0.5066,-3.0267 1.0133,-6.04 1.5333,-9.0267 31.5733,-181.4533 97.2667,-267.9466 156.3733,-306.52 32.5733,-21.24 63.1467,-27.9333 84.92,-27.9333 2.5333,0 4.9333,0.093 7.2133,0.2533 6.4267,0.4667 12.9334,1.52 19.3734,3.2667 25.1466,6.8533 49.3066,24.2 63.9866,57.28 4.5067,10.1733 8.12,21.84 10.6,35.1333 0,0.013 0,0.027 0,0.04 18.12,-8.8533 36.7867,-12.8266 54.5067,-12.8266 26.4133,0 50.7333,8.8266 68.0933,23.4933 4.2534,3.5867 8.0934,7.5467 11.44,11.8 2.1734,2.7467 4.1334,5.64 5.8667,8.64 14.1467,24.56 14.08,56.56 6.28,91.9867 -0.013,0.027 -0.027,0.067 -0.027,0.1066 -0.013,0.027 -0.013,0.067 -0.027,0.093 -3.72,16.7866 -9.16,34.32 -15.6534,52.2133 -3.4266,9.44 -7.1333,18.9733 -11.04,28.5333 16.04,-49.16 22.16,-94.5866 3.4667,-127.0266 -15.3333,-26.5467 -48.32,-43.9467 -85.4,-43.9467 -17.72,0 -36.3733,3.96 -54.48,12.8 -12.5867,-67.6667 -54.7467,-92.8933 -93.9867,-95.68 -2.0533,-0.1467 -4.1733,-0.2267 -6.3333,-0.2267 -58.92,0 -155.24,58.7467 -229.16,313.52"
         style="fill:#f6cbcb;fill-opacity:1;fill-rule:nonzero;stroke:none;stroke-width:0.133333" />
      <path
         id="path85"
         d="m 3644.6666,4156.0933 c -6.28,14.3734 -12.0534,28.2534 -16.88,41.3067 -33.84,91.08 -60.1467,185.8667 -122.7334,219.08 -72.12,38.16 -219.3199,27.24 -262.0666,-83.1733 0,0 -12.0533,-32.2667 -17.8267,-103.3867 -4.3333,-53.1067 0,-116.32 0,-116.32 1.0667,-7.2267 2.1334,-14.2533 3.2534,-21.16 11.3066,56.6267 45.08,167.1067 142.0666,216.1333 144.44,73.0667 225.9733,-47.08 274.1867,-152.48"
         style="fill:#d87979;fill-opacity:1;fill-rule:nonzero;stroke:none;stroke-width:0.133333" />
      <path
         id="path86"
         d="m 3242.9599,4333.2933 c 51.1867,78.3467 164.16,100.5467 245.1067,65.52 26.0266,-12.4 42.0666,-34.4533 56.6933,-60.4933 25.16,-46.3733 41.6533,-100.3067 61.0533,-149.9867 27.7067,-70.88 68.1334,-140.1066 88.28,-212.28 7.3467,-28.44 13.0667,-57.24 2.1867,-83.4 -19.0933,-40.7466 -76.5467,-46.76 -113.7067,-26.8666 -13.48,7.0933 -30.68,-1.6934 -33.0266,-16.6534 -4.5467,-22.44 -13.4134,-42.8933 -27.6667,-56.3866 -32.2667,-30.9467 -80.4667,-21.28 -116.8267,-0.1334 -63.6666,37.5867 -101.9199,106.52 -130.4666,173.3067 -19.56,47.28 -34.6933,97.04 -49.44,147.6667 2.72,-131.28 38.76,-284.6934 156.08,-360.9334 91.2266,-57.1466 195.2266,-23.6 214,88.04 l -33.0134,-16.6666 c 58.9334,-29.6 145.76,-13.9734 174.08,51.3333 29.3734,76.7733 -19.8133,170.2133 -48.1733,239.24 -13.1733,30.24 -26.68,59.72 -37.8133,90.32 -19.2,52.9067 -34.2934,105.36 -62.8267,157.2533 -24.64,45.4934 -62.7333,80.5334 -115.92,90.5334 -90.0267,21.7333 -212.92,-17.6267 -228.6,-119.4134"
         style="fill:#650000;fill-opacity:1;fill-rule:nonzero;stroke:none;stroke-width:0.133333" />
      <path
         id="path87"
         d="m 3529.9599,3963.4133 c 1.36,-25.48 10.7333,-50.6133 15.1467,-74.3866 4.6666,-23.3334 3.9333,-46.2667 -1.2534,-69.0667 l 43.0134,-2.9867 c -1.6134,27.3334 -8.7867,55.1867 -21.4,79.1334 -12.0267,23.6133 -27.0134,43.24 -35.5067,67.3066"
         style="fill:#650000;fill-opacity:1;fill-rule:nonzero;stroke:none;stroke-width:0.133333" />
      <path
         id="path88"
         d="m 1976.24,1873.1334 c 32.4933,62.56 73.2666,125.5867 129.4266,167.4666 134.32,100.8134 327.9867,79.1334 402.92,-80.7333 15.64,-30.6 26.3067,-65.24 37.5067,-102.6666 29.1333,76.04 18.9866,166.7866 -31.8667,234.0933 -86.4933,116.5466 -262.24,125.64 -380.4133,55 -96.1734,-56.04 -153.2933,-164.12 -157.5733,-273.16"
         style="fill:#650000;fill-opacity:1;fill-rule:nonzero;stroke:none;stroke-width:0.133333" />
      <path
         id="path89"
         d="m 3376.2799,1837.2667 c 48.6,136.0267 -8.52,299.92 -173.8,294.2133 -144.28,-5.1333 -228.5066,-158.0399 -208.3333,-289.2133 37.4267,92.7334 102.8,209.3467 211.6667,214.0933 122.9466,8.68 154.0266,-120.3866 170.4666,-219.0933"
         style="fill:#650000;fill-opacity:1;fill-rule:nonzero;stroke:none;stroke-width:0.133333" />
      <path
         id="path90"
         d="m 2710.9733,3814.2133 c 26.5866,-80.1333 107.8133,-100.32 164.0666,-68.0133 63.2,36.3067 73.28,119.0533 42.3067,175.84 -30.44,55.7733 -106.2533,70.7867 -156.64,41.5067 0,0 -31.28,-15.4934 -45.8267,-61.1067 -14.56,-45.6133 -3.9066,-88.2267 -3.9066,-88.2267"
         style="fill:#fccaca;fill-opacity:1;fill-rule:nonzero;stroke:none;stroke-width:0.133333" />
      <path
         id="path91"
         d="m 2934.2799,3856.3467 c -0.3466,22.9866 -6.1066,45.92 -16.9333,65.7066 -30.44,55.76 -106.2267,70.7734 -156.6267,41.4934 0,0 -31.3066,-15.48 -45.8666,-61.1067 -4.1334,-12.9867 -6.2267,-25.6667 -7.0934,-37.2533 -2.28,-29.16 3.2,-50.9867 3.2,-50.9867 26.6,-80.1467 107.8534,-100.28 164.08,-67.9867 41.2,23.64 59.8267,67.0534 59.24,110.1334"
         style="fill:#fccaca;fill-opacity:1;fill-rule:nonzero;stroke:none;stroke-width:0.133333" />
      <path
         id="path92"
         d="m 2934.2799,3856.3467 c -0.3466,22.9866 -6.1066,45.92 -16.9333,65.7066 -30.44,55.76 -106.2267,70.7734 -156.6267,41.4934 0,0 -31.3066,-15.48 -45.8666,-61.1067 -4.1334,-12.9867 -6.2267,-25.6667 -7.0934,-37.2533 v -0.12 c 0,0 39.4,60.3066 125.9467,61.4666 62.5733,0.88 90.9733,-48.36 100.5733,-70.1866"
         style="fill:#f2a5a5;fill-opacity:1;fill-rule:nonzero;stroke:none;stroke-width:0.133333" />
      <path
         id="path93"
         d="m 2710.9733,3814.2133 c 23.4533,-130.4666 198.84,-129.5066 237.48,-7.4133 27.1066,83.6667 -22.04,182.56 -116.0534,182.3333 -26.6533,0.1734 -53.2133,-8.64 -71.6933,-25.5866 64.8267,20.68 139.1067,-13.8667 149.5333,-82.7867 24.92,-133.48 -137.5733,-186.72 -199.2666,-66.5467"
         style="fill:#650000;fill-opacity:1;fill-rule:nonzero;stroke:none;stroke-width:0.133333" />
      <path
         id="path94"
         d="m 2854.9599,3902.4267 c -3.92,-0.5867 -6.9333,-19.48 -21.96,-44.48 -29.4533,1.0266 -46.8133,9.0666 -49.36,6.0533 -2.5333,-3.0267 10.88,-19.7467 39.5467,-23.4667 -12.3733,-26 -5.8533,-46.2933 -1.92,-45.72 3.92,0.5734 6.8933,19.3867 21.9733,44.4934 29.4534,-1.04 46.8,-9.08 49.3334,-6.0534 2.5333,3.0134 -10.8,19.7734 -39.5334,23.4534 12.3867,25.9466 5.84,46.2933 1.92,45.72"
         style="fill:#650000;fill-opacity:1;fill-rule:nonzero;stroke:none;stroke-width:0.133333" />
      <path
         id="path95"
         d="m 3831.1066,1939.6401 c 0,0 145.3733,12.5733 222.9333,-86.2667 34.8,18.2267 73.4,29.1867 114.2133,31.2133 67.3867,3.3334 134.7067,3.3334 202.0934,0 156.8666,-7.7466 281.6133,-148.2933 282.04,-320.1733 v -5.96 c -0.4267,-171.88 -125.1734,-312.48 -282.04,-320.2267 -67.3867,-3.2666 -134.7067,-3.2666 -202.0934,0 -156.8666,7.7467 -281.6266,148.3467 -282.04,320.2267 v 5.96 c 0.12,60.72 15.7867,117.4933 42.96,165.9333 -12.0933,70.36 -38.84,161.92 -98.0666,209.2934"
         style="fill:#ffffff;fill-opacity:1;fill-rule:nonzero;stroke:none;stroke-width:0.133333" />
      <path
         id="path96"
         d="m 4250.4932,1676.4667 c -25.28,-2.12 -46.7333,15.8 -48.8266,40.8134 -2.0534,24.5866 16.5066,46.28 41.3733,48.36 24.5867,2.0533 46.2533,-16.28 48.32,-40.8534 2.0533,-24.5866 -16.28,-46.2666 -40.8667,-48.32"
         style="fill:#650000;fill-opacity:1;fill-rule:nonzero;stroke:none;stroke-width:0.133333" />
      <path
         id="path97"
         d="m 4278.6666,1370.4801 c -50.8534,-4.2534 -96.4267,19.9733 -119.04,63.4266 -3.5067,7 -3.8267,15.12 -0.88,22.2934 2.8933,7.0533 8.7066,12.52 15.7066,14.9066 l 16.8534,6.1467 0.4266,0.12 c 1.9734,0.5733 3.9867,0.9467 6.0134,1.1067 11.64,0.9733 22.6533,-4.8667 28.1066,-14.9067 5.36,-9.2133 17.92,-24.1733 42.2667,-22.1333 28.1733,2.36 39.2133,24.68 37.56,44.44 -1.7333,20.7333 -15.6133,33.6533 -33.2,50.0133 -20.32,18.92 -45.6267,42.4667 -53.9333,84.9067 l -0.1067,0.6133 c -1.12,7.6 0.9467,15.3733 5.6667,21.3333 4.6266,5.8267 11.24,9.3734 18.6266,10 l 20.8934,1.7467 c 13.12,1.0933 25.4,-7.9467 28.5466,-21.0267 l 0.093,-0.4 c 5.08,-24.48 20.48,-38.96 38.32,-55.72 22.08,-20.76 47.0933,-44.28 50.9066,-89.7466 4.9734,-59.4134 -41.16,-111.96 -102.8266,-117.12"
         style="fill:#650000;fill-opacity:1;fill-rule:nonzero;stroke:none;stroke-width:0.133333" />
      <path
         id="path98"
         d="m 4269.3066,1257.3467 c -33.4134,0 -66.8267,0.8 -100,2.4134 -146.2534,7.2266 -261.1467,138.4533 -261.5334,298.7466 v 5.9067 c 0.1067,54.9333 14.0134,108.68 40.2,155.3867 2.4134,4.3066 3.28,9.32 2.44,14.2 -9.7866,56.9066 -29.32,128.9733 -68.24,182.5066 45.52,-5.1066 112.36,-22.2266 154.92,-76.44 6.4134,-8.1866 17.7467,-10.6133 26.96,-5.7866 32.96,17.2666 68.3734,26.9466 105.2667,28.7733 66.3467,3.2933 133.6133,3.2933 199.96,0 146.2667,-7.2133 261.16,-138.4133 261.5467,-298.6933 v -5.8934 c -0.3867,-160.2533 -115.28,-291.48 -261.5467,-298.7066 -33.1733,-1.6134 -66.5733,-2.4134 -99.9733,-2.4134 z m -438.2,682.2934 h 0.067 z m 16.88,22.12 c -10.72,0 -17.48,-0.5334 -18.7334,-0.6534 -8.7866,-0.76 -16.2133,-6.7866 -18.7733,-15.2266 -2.56,-8.4267 0.28,-17.5734 7.16,-23.08 52.2133,-41.76 77.1467,-124.2 88.9867,-188.7734 -27.36,-51.4666 -41.8534,-109.92 -41.96,-169.5733 v -5.9867 c 0.44,-183.32 133.32,-333.4133 302.52,-341.76 67.76,-3.2933 136.4666,-3.2933 204.2,0 169.2133,8.3467 302.1066,158.44 302.5466,341.7067 v 6 c -0.44,183.28 -133.3333,333.3467 -302.5333,341.7067 -67.76,3.3466 -136.4667,3.3466 -204.2133,0 -37.4267,-1.8667 -73.5467,-10.6134 -107.5867,-26.0534 -68,73.5334 -169.8133,81.6934 -211.6133,81.6934"
         style="fill:#650000;fill-opacity:1;fill-rule:nonzero;stroke:none;stroke-width:0.133333" />
    </g>
  </g>
</svg>
