<?xml version="1.0" encoding="UTF-8" standalone="no"?>
<!-- Created with Inkscape (http://www.inkscape.org/) -->

<svg
   version="1.1"
   id="svg1"
   width="5333.3335"
   height="5333.3335"
   viewBox="0 0 5333.3335 5333.3335"
   sodipodi:docname="not-found.svg"
   inkscape:version="1.4.2 (f4327f4, 2025-05-13)"
   xmlns:inkscape="http://www.inkscape.org/namespaces/inkscape"
   xmlns:sodipodi="http://sodipodi.sourceforge.net/DTD/sodipodi-0.dtd"
   xmlns="http://www.w3.org/2000/svg"
   xmlns:svg="http://www.w3.org/2000/svg">
  <defs
     id="defs1" />
  <sodipodi:namedview
     id="namedview1"
     pagecolor="#ffffff"
     bordercolor="#000000"
     borderopacity="0.25"
     inkscape:showpageshadow="2"
     inkscape:pageopacity="0.0"
     inkscape:pagecheckerboard="0"
     inkscape:deskcolor="#d1d1d1"
     inkscape:zoom="0.34031249"
     inkscape:cx="2665.1975"
     inkscape:cy="2666.6667"
     inkscape:window-width="3840"
     inkscape:window-height="2054"
     inkscape:window-x="-11"
     inkscape:window-y="-11"
     inkscape:window-maximized="1"
     inkscape:current-layer="g1">
    <inkscape:page
       x="0"
       y="0"
       inkscape:label="1"
       id="page1"
       width="5333.3335"
       height="5333.3335"
       margin="0"
       bleed="0" />
  </sodipodi:namedview>
  <g
     id="g1"
     inkscape:groupmode="layer"
     inkscape:label="1">
    <g
       id="group-R5">
      <path
         id="path2"
         d="M 0,0 H 40000 V 40000 H 0 Z"
         style="fill:#ffd4f4;fill-opacity:1;fill-rule:nonzero;stroke:none"
         transform="matrix(0.13333333,0,0,-0.13333333,0,5333.3333)" />
      <path
         id="path3"
         d="m 18590.7,4543.2 c -5920.7,0 -10720.37,987.3 -10720.37,2205.1 0,704.8 1607.4,1332.4 4109.47,1736.1 395.5,-1522.6 1349.2,-2568.8 3194,-2888.4 40.2,-8.3 80.5,-15.2 120.8,-20.9 654.4,-400.2 1470.5,-569.3 2222,-572.6 21.7,2.7 23.2,0.2 49.7,6.7 56.8,13.7 100.7,57.2 122,108 9.4,22.8 15.6,46.6 20,70.6 24.9,4.4 50.1,9.1 75.3,14.3 410.6,83.6 717.3,339.2 936,693.2 883.3,150.4 1787.3,399.5 2460.2,848.3 610.5,75.5 1165.2,117.8 1568.1,117.8 78.4,0 151.1,-1.6 217.3,-4.9 131.8,-6.4 427.6,-49.9 740.7,-96 517,-76 1093.6,-160.7 1424.4,-160.6 52.2,0 98.4,2.1 137.2,6.7 73.3,8.7 146.6,39.4 216.6,124.8 42.7,-3.1 85.3,-4.6 127.5,-4.6 113.5,0 224.4,10.8 328.4,31.3 129.5,25.3 248.3,65.6 347.9,118.3 113.9,60.4 211.7,148 298.2,255.7 197.4,245.7 335.8,596.3 470.9,969.1 1412.9,-373.5 2254,-843 2254,-1352.9 0,-1217.8 -4799.6,-2205.1 -10720.3,-2205.1"
         style="fill:#e0aac3;fill-opacity:1;fill-rule:nonzero;stroke:none"
         transform="matrix(0.13333333,0,0,-0.13333333,0,5333.3333)" />
      <path
         id="path4"
         d="m 10680.8,10208.1 c 68.2,532.7 416.9,647.5 578.3,635.7 39.7,-2.7 80.5,-15 118.6,-37 18.2,-11.3 35.9,-23.6 52,-37 5.9,-4.8 11.3,-9.7 17.2,-15.6 79.9,-82.1 123.4,-220.5 57.9,-410.9 -164.1,-476.9 -823.4,-550.4 -823.4,-550.4 -17.2,160.4 -15.6,297.7 -0.6,415.2 z m 2256.9,-1025.2 c 0,0 -928,-507.5 -1492.4,-397.5 -564.9,110 -597.6,417.9 -597.6,417.9 0,0 832.6,149.7 1201.1,710.3 62.8,94.9 112.1,201.7 141.6,321.3 203.9,826.7 -454.9,1451.7 -1230.1,1246.2 -516.6,-136.8 -848.7,-525.2 -969.39,-996.2 -61.68,-235 -69.73,-490.8 -21.99,-746.7 0,0 -473.7,108.9 -592.26,532.7 -3.76,11.2 -6.97,23 -9.12,34.8 -102.46,452.8 111.58,803.1 314.37,1053.1 110.51,134.7 34.88,212.5 -1.61,227 -42.91,17.7 -199.03,30 -382.5,-170.1 -197.95,-214.6 -397.52,-580.5 -423.8,-981.2 -16.64,-249.5 33.79,-512.3 193.12,-761.8 373.91,-584.7 1036.48,-540.2 1036.48,-540.2 0,0 304.2,-1140 1586.3,-1068.1 1132.5,62.7 1542.4,483.9 1542.4,483.9 l -294.6,634.6"
         style="fill:#fccaca;fill-opacity:1;fill-rule:nonzero;stroke:none"
         transform="matrix(0.13333333,0,0,-0.13333333,0,5333.3333)" />
      <path
         id="path5"
         d="m 13232.3,8548.3 c 0,0 -409.9,-421.2 -1542.4,-483.9 -1282.1,-71.9 -1586.3,1068.1 -1586.3,1068.1 0,0 -662.57,-44.5 -1036.48,540.2 -159.33,249.5 -209.76,512.3 -193.12,761.8 105.14,-119.6 276.81,-239.3 502.66,-163.6 118.56,-423.8 592.26,-532.7 592.26,-532.7 -47.74,255.9 -39.69,511.7 21.99,746.7 105.69,-155.6 308.99,-323.5 689.89,-276.8 -15,-117.5 -16.6,-254.8 0.6,-415.2 0,0 659.3,73.5 823.4,550.4 65.5,190.4 22,328.8 -57.9,410.9 232.8,-210.3 279,-670 601.9,-840.6 -368.5,-560.6 -1201.1,-710.3 -1201.1,-710.3 0,0 32.7,-307.9 597.6,-417.9 564.4,-110 1492.4,397.5 1492.4,397.5 l 294.6,-634.6"
         style="fill:#f2a5a5;fill-opacity:1;fill-rule:nonzero;stroke:none"
         transform="matrix(0.13333333,0,0,-0.13333333,0,5333.3333)" />
      <path
         id="path6"
         d="m 11429.7,10769.8 c -16.1,13.4 -33.8,25.7 -52,37 18.2,-9.7 35.9,-22 52,-37"
         style="fill:#ffffff;fill-opacity:1;fill-rule:nonzero;stroke:none"
         transform="matrix(0.13333333,0,0,-0.13333333,0,5333.3333)" />
      <path
         id="path7"
         d="m 11013.8,10241 c 24.5,112.4 65.1,176.3 96.2,210.9 39.1,43.5 79.1,59.7 103.2,65.8 -0.1,-13.4 -2.8,-35.7 -14.3,-69.2 -31.2,-90.6 -103,-157.9 -185.1,-207.5 z m -1390.17,1677.4 c -113.13,0 -336.86,-36.9 -563.99,-283.9 -223.43,-243.2 -394.23,-573.6 -468.72,-906.6 -98.68,-441.2 -28.13,-866.4 204.03,-1229.6 317.75,-497.1 793.6,-638 1081.98,-676.2 55.22,-120.5 140.97,-275.1 268.27,-430.4 244.7,-298.5 691.7,-654.4 1430.8,-654.4 43.3,0 87.8,1.2 132.3,3.7 1222.9,68.2 1704.8,529.1 1755.7,581.5 93.4,96 118,239.7 61.7,361.3 l -294.1,635.3 c -37.6,81.2 -107.2,143.2 -192.2,171.2 -33,10.9 -67.2,16.3 -101.2,16.3 -53.7,0 -107.1,-13.4 -155.1,-39.7 -190.6,-103.8 -771.8,-373.5 -1163.4,-373.5 -28.2,0 -54.6,1.4 -78.8,4.3 385.4,183.2 827.9,507.9 963.9,1060.1 107.8,438 24.1,875.1 -229.8,1199.1 -242.4,309.4 -614,486.8 -1019.3,486.9 -125.2,0 -252.5,-16.9 -378.3,-50.4 -628.7,-166.9 -1070.22,-655.7 -1213.24,-1274.1 -6.1,204.6 78.91,402 268.85,635.3 151.79,186 138.19,356.9 116.59,442.2 -32.7,128.9 -127.09,239.4 -246.33,288.3 -53.29,21.8 -115.28,33.3 -179.64,33.3 z M 10681.1,9792.7 c 0,0 659.6,73.7 823.6,550.7 108.8,316.7 -82.5,487.9 -245.6,500.4 -7.3,0.5 -15,0.8 -23,0.8 -208.4,0 -646.2,-193.5 -555,-1051.9 M 9623.63,11595 c 25.81,0 45.27,-4.3 56.79,-9 35.96,-14.7 111.89,-92.4 1.83,-227.3 -203.66,-250.1 -416.89,-600.3 -315.09,-1052.9 101.57,-452.5 602.1,-567.2 602.1,-567.2 -143.23,767.3 216.34,1536.6 991.14,1742.3 101,26.8 199.9,39.6 295.3,39.6 636.5,-0.1 1112.1,-566.6 935.1,-1285.4 -203.5,-826.5 -1342.7,-1032.2 -1342.7,-1032.2 0,0 32.1,-307.4 596.9,-417.3 55.2,-10.7 113.8,-15.6 174.7,-15.6 562.6,0 1318.5,413.2 1318.5,413.2 l 294.1,-635.3 c 0,0 -409.6,-420.9 -1542.1,-484.1 -39,-2.1 -77,-3.2 -114.2,-3.2 -1186,0 -1472,1072.3 -1472,1072.3 0,0 -11.8,-0.8 -33.2,-0.8 -138.65,0 -679.59,33.8 -1003.42,540.3 -415.94,650.7 -89.91,1394.8 230.28,1743.2 134.91,146.8 254.68,179.4 325.97,179.4"
         style="fill:#650000;fill-opacity:1;fill-rule:nonzero;stroke:none"
         transform="matrix(0.13333333,0,0,-0.13333333,0,5333.3333)" />
      <path
         id="path8"
         d="m 9970.68,8706.8 c -425.47,882.8 -340.33,1765.4 -118.78,2297.1 L 10113,10895 c -197.86,-474.9 -272.25,-1266.9 112.6,-2065.3 l -254.92,-122.9"
         style="fill:#650000;fill-opacity:1;fill-rule:nonzero;stroke:none"
         transform="matrix(0.13333333,0,0,-0.13333333,0,5333.3333)" />
      <path
         id="path9"
         d="m 11371.2,8814.4 c -241.2,45.3 -433.2,179.6 -555.4,388.5 -233,398 -165.2,964 -98.5,1161.1 l 268,-90.7 c -50.5,-149.2 -100.7,-627.9 74.7,-927.6 81.8,-139.8 200.7,-222.7 363.4,-253.2 l -52.2,-278.1"
         style="fill:#650000;fill-opacity:1;fill-rule:nonzero;stroke:none"
         transform="matrix(0.13333333,0,0,-0.13333333,0,5333.3333)" />
      <path
         id="path10"
         d="m 25248.4,6767.1 c -415.7,-49.4 -1895,232.2 -2275.3,250.9 -563.6,27.7 -1652.1,-64.2 -2828.2,-262.5 0,0 1327.3,4565.7 1323.7,5093.5 2200.5,527.8 4332.7,-910.6 4332.7,-910.6 0,0 18.5,-4103.3 -552.9,-4171.3"
         style="fill:#777782;fill-opacity:1;fill-rule:nonzero;stroke:none"
         transform="matrix(0.13333333,0,0,-0.13333333,0,5333.3333)" />
      <path
         id="path11"
         d="m 25724.5,8674.1 c -71.5,-962.9 -209,-1875.2 -476.1,-1906.8 -415.6,-49.6 -1895,232.2 -2275.3,250.7 -563.6,27.8 -1652.2,-64.3 -2828.3,-262.4 0,0 1327.5,4565.6 1323.7,5093.5 386.2,92.5 770.6,124.9 1141.2,114.4 1742.3,-47.1 3191.4,-1025.1 3191.4,-1025.1 0,0 5,-1165.6 -76.6,-2264.3"
         style="fill:#f9c9ca;fill-opacity:1;fill-rule:nonzero;stroke:none"
         transform="matrix(0.13333333,0,0,-0.13333333,0,5333.3333)" />
      <path
         id="path12"
         d="m 25724.5,8674.1 c -71.5,-962.9 -209,-1875.2 -476.1,-1906.8 -415.6,-49.6 -1895,232.2 -2275.3,250.7 -563.6,27.8 -1652.2,-64.3 -2828.3,-262.4 0,0 1327.5,4565.6 1323.7,5093.5 386.2,92.5 770.6,124.9 1141.2,114.4 85.8,-497.2 219.6,-1375.9 314.6,-2498.2 91.3,-1078.9 1177.8,-546.8 1320,159 147.2,731.1 513.2,943.1 513.2,943.1 0,0 499.3,-956.5 967,-1893.3"
         style="fill:#f2a5a5;fill-opacity:1;fill-rule:nonzero;stroke:none"
         transform="matrix(0.13333333,0,0,-0.13333333,0,5333.3333)" />
      <path
         id="path13"
         d="m 25229.3,6927.7 -0.1,-0.1 0.1,0.1 m -2476,256.9 c 82.2,0 158.3,-1.7 227.8,-5.1 147.4,-7.3 436.8,-49.8 771.9,-99.1 515.8,-75.8 1220.2,-179.6 1469,-153.5 37.5,27 253.1,259.5 361.8,2057.6 49,811 55.2,1605.3 55.8,1865 -375.8,231 -2175.8,1252.7 -4021,867.4 -110.7,-789.2 -972.6,-3808.8 -1247.3,-4760.7 913.9,143.9 1798.3,228.4 2382,228.4 m 2495.1,-417.5 h 0.5 -0.5 m -5103.5,-173.3 c -45.7,0 -89.8,19.4 -120.7,54.2 -37,41.5 -50.1,99.2 -34.5,152.6 530.9,1826.2 1319.8,4677.4 1317.3,5047.3 -0.5,75.2 50.8,140.8 123.9,158.3 2244,538.2 4371.4,-873.4 4460.8,-933.7 44.4,-29.9 71,-79.9 71.3,-133.3 0,-10.4 3.9,-1043.4 -62.5,-2071.4 -125.1,-1936 -378.2,-2230.9 -633,-2261.2 -284.3,-33.7 -962.9,65.9 -1561.6,153.9 -313.1,46.1 -608.9,89.6 -740.7,96 -587.4,29.1 -1683.9,-73.3 -2793.4,-260.4 -9,-1.5 -18,-2.3 -26.9,-2.3"
         style="fill:#650000;fill-opacity:1;fill-rule:nonzero;stroke:none"
         transform="matrix(0.13333333,0,0,-0.13333333,0,5333.3333)" />
      <path
         id="path14"
         d="m 22681.3,10959.1 c 2.9,3088 -1616.4,4194.7 -1768.7,7227.6 -75.1,1496.8 -4427.3,2207.4 -5959,111.1 -642,-878.7 -3493.1,-5055.8 -2960.8,-8965.1 298.2,-2190.8 1352.2,-3250 3328,-3575.9 418.5,-69 863.2,55.2 1671,114.7 1072,78.8 4346.4,334.5 5084,1961.4 0,0 384,591.1 515.4,1333.7 152.6,863.2 90.1,1792.5 90.1,1792.5"
         style="fill:#f9c9ca;fill-opacity:1;fill-rule:nonzero;stroke:none"
         transform="matrix(0.13333333,0,0,-0.13333333,0,5333.3333)" />
      <path
         id="path15"
         d="m 22588.3,12196.7 c -742.4,-108.3 -2018.8,-757 -4102.8,-443.3 -2138.1,322.1 -3232.2,2421.4 -3232.2,2421.4 l 1449.4,1281.2 c 0,0 3138.4,-624.4 5291.1,-1207.7 247.7,-627.2 473.7,-1276.3 594.5,-2051.6"
         style="fill:#f2a5a5;fill-opacity:1;fill-rule:nonzero;stroke:none"
         transform="matrix(0.13333333,0,0,-0.13333333,0,5333.3333)" />
      <path
         id="path16"
         d="m 16440.9,5817.9 c -481.2,-56.3 -808,-112.3 -1120.2,-60.9 -1013.7,167.4 -1784.7,527.4 -2335.3,1134.8 -522.9,575.9 -847.2,1374.3 -992.8,2441 -2.9,21.5 -5.8,42.9 -7.9,64.4 121.5,-355.5 276.7,-644 471.9,-739.9 221.7,-108.6 456.8,-166.2 775.7,-108.6 535,97.2 2382.9,-1832.7 3208.6,-2730.8"
         style="fill:#f2a5a5;fill-opacity:1;fill-rule:nonzero;stroke:none"
         transform="matrix(0.13333333,0,0,-0.13333333,0,5333.3333)" />
      <path
         id="path17"
         d="M 22591.2,9166.6 C 22459.8,8423.8 22075.8,7832.9 22075.8,7832.9 21338.2,6206 18064.8,5950.2 16992.1,5871.4 16183.8,5812 15739.2,5687.9 15320.8,5757 c -154.4,25.5 -303.1,55.4 -446.2,90.1 -19,4.5 -37.2,8.9 -55.8,13.8 -14.5,3.6 -28.6,7.3 -42.8,10.9 -28.7,7.7 -57.4,15.3 -85.7,23.4 -28.7,7.7 -56.6,15.8 -84.5,24.3 -27,8.1 -53.7,16.1 -80.4,24.6 -31.1,10.1 -62.2,20.2 -92.5,30.8 -51.4,17.3 -101.9,35.5 -151.2,54.5 -26.3,10.1 -52.1,20.2 -77.6,30.7 -25.9,10.5 -51.3,21.1 -76.4,32 -25.1,10.9 -50.1,21.8 -74.8,33.1 -24.6,11.3 -49.3,22.6 -73.5,34.4 -24.3,11.7 -48.1,23.4 -72,35.5 -23.8,12.2 -47.7,24.7 -70.7,37.2 -23.4,12.5 -46.5,25.1 -69.5,38 -45.7,26.3 -91,53 -135,80.8 -21.8,13.8 -43.7,27.9 -65.1,42.1 -21.8,14.1 -43.2,28.7 -64.3,43.6 -21,15 -42,29.9 -62.6,44.9 -41.6,30.7 -82,61.8 -121.7,94.2 -118.8,97 -229.9,202.1 -333,316 419.9,1821.2 1210.5,4604.4 2114.7,4582.6 1342.6,-32.4 3096.4,-1982.5 4665.8,-2065 1915.8,-101 2975.9,998.8 2882.9,2292.1 21.5,-234.8 32.8,-481.8 32.4,-742.4 0,0 62.6,-929.2 -90.1,-1792.6"
         style="fill:#f2a5a5;fill-opacity:1;fill-rule:nonzero;stroke:none"
         transform="matrix(0.13333333,0,0,-0.13333333,0,5333.3333)" />
      <path
         id="path18"
         d="m 21677.3,15032.4 c -856.8,-102.2 -1748,-157.2 -2170.4,-111.1 -2649.8,289 -2476.4,2313.5 -3303.8,2650.2 -292.2,118.8 -899.6,158.8 -1503.1,367 l 0.4,0.4 c 102.7,150.3 188.8,271.2 253,358.9 1531.9,2096.4 5884,1385.5 5959.2,-111.2 65.5,-1303.8 402.2,-2251.6 764.7,-3154.2"
         style="fill:#f2a5a5;fill-opacity:1;fill-rule:nonzero;stroke:none"
         transform="matrix(0.13333333,0,0,-0.13333333,0,5333.3333)" />
      <path
         id="path19"
         d="m 22681.3,10959.1 c -155.3,764 -268.2,1496 -484.8,2218 -328.3,1084.3 -896,2123.8 -1189.6,3237.2 -153.4,566.1 -248.1,1149.4 -278.7,1735.5 -11.2,337.6 -268.9,579.3 -545,754.1 -786.6,466.5 -1758.6,571.9 -2659.5,492.7 -940.7,-91.8 -1917.8,-463.5 -2471.2,-1261.2 C 13315,15669 11748.6,12398.7 12167.6,9316.9 c 145.8,-1078.7 575.6,-2197.4 1533,-2793 459.4,-294.9 999.8,-468.3 1539.5,-565.5 176.7,-37 343.3,-45.1 525.1,-29.9 371.9,32.2 761.5,91.6 1140.2,117 383.8,26.6 759.1,57.2 1136,101.3 1220.8,155.1 2719,440.7 3668.5,1254.5 138.1,125.3 260.8,269.1 365.9,431.6 -54.6,-185.6 -149.2,-362.3 -269,-519.7 -985.2,-1263.4 -3368.6,-1500.9 -4872.6,-1627.4 -582.4,-35.1 -1173.7,-210.9 -1760.4,-89.8 -2355.9,408.1 -3258.5,2001.1 -3401.2,4257.9 -141.4,3011.8 1314.4,6062.6 2995.4,8486.6 608.3,886.2 1683.2,1318.8 2718.6,1422.3 985.5,87.5 2028.2,-30 2893.9,-544.2 361.9,-218.1 711.5,-595.9 720.1,-1048.9 31.1,-560.7 114.6,-1117.5 258.8,-1660.9 472.9,-1819.7 1719.7,-3587.4 1321.9,-5549.7"
         style="fill:#650000;fill-opacity:1;fill-rule:nonzero;stroke:none"
         transform="matrix(0.13333333,0,0,-0.13333333,0,5333.3333)" />
      <path
         id="path20"
         d="m 17836.1,7655.9 c 0,0 -1.1,-1.6 -2.7,-5.3 1.6,3.2 2.7,5.3 2.7,5.3"
         style="fill:#f9d3b7;fill-opacity:1;fill-rule:nonzero;stroke:none"
         transform="matrix(0.13333333,0,0,-0.13333333,0,5333.3333)" />
      <path
         id="path21"
         d="m 17525.7,5165.5 c -168.6,-21.8 -2037.5,52.2 -3135,1304.4 0,0 -938.9,870.3 -1158.4,2078.8 -357.6,1968.2 830.3,2784.2 830.3,2784.2 2017,721.4 3160.7,-1372.1 3160.7,-1372.1 0,0 33.6,-341.1 79.9,-841.3 126.2,-1370.8 346.6,-3938 222.5,-3954"
         style="fill:#f9c9ca;fill-opacity:1;fill-rule:nonzero;stroke:none"
         transform="matrix(0.13333333,0,0,-0.13333333,0,5333.3333)" />
      <path
         id="path22"
         d="m 17525.7,5165.5 c -168.6,-21.8 -2037.5,52.2 -3135,1304.4 0,0 -938.9,870.3 -1158.4,2078.8 0,0 396.2,77.9 878.3,-390.7 378.5,-368.1 725.2,-699.6 956.5,-152.7 231.3,546.8 184.2,851.3 457.7,1327.5 108.5,188.9 883.3,37.9 1778.4,-213.3 126.2,-1370.8 346.6,-3938 222.5,-3954"
         style="fill:#f2a5a5;fill-opacity:1;fill-rule:nonzero;stroke:none"
         transform="matrix(0.13333333,0,0,-0.13333333,0,5333.3333)" />
      <path
         id="path23"
         d="m 14390.7,6470.1 c 551.6,-418.5 1144.9,-710.9 1797.7,-909.5 425.2,-127.5 870,-236.9 1316.2,-234.7 -42.9,-2.8 -101.4,-41.7 -115.7,-87 2.9,19.9 6.9,45.6 7.9,72 -10.9,1542.1 -202.1,3095.4 -334.2,4633.9 l 19,-61.6 c -37.3,54.8 -83.3,118.6 -127.3,177 -483.7,642.7 -1150.3,1203.1 -1974.7,1302 -303.3,42.4 -610.5,18.3 -917.1,-29.4 561.8,336.2 1307.4,353.8 1900.8,68.3 528.7,-241.6 966.1,-657.2 1277.8,-1143 49.2,-86.1 119.9,-178.1 143.2,-281.5 67.3,-690.3 130.3,-1380.1 188.4,-2071.1 63.1,-870.9 160.1,-1735 146.8,-2614.8 -4.2,-56.1 -8.2,-117.7 -31.2,-173.5 -21.3,-50.8 -65.2,-94.3 -122,-108 -26.5,-6.5 -28,-4 -49.7,-6.7 -1170,5.2 -2496.8,412.3 -3125.9,1467.6"
         style="fill:#650000;fill-opacity:1;fill-rule:nonzero;stroke:none"
         transform="matrix(0.13333333,0,0,-0.13333333,0,5333.3333)" />
      <path
         id="path24"
         d="m 23191.5,33878.1 c 0,0 -1614.8,-1120.9 -1464.7,-2792.1 122.6,-1364.2 2557.9,-1655.4 2557.9,-1655.4 l 1771.2,1950.9"
         style="fill:#f9c9ca;fill-opacity:1;fill-rule:nonzero;stroke:none"
         transform="matrix(0.13333333,0,0,-0.13333333,0,5333.3333)" />
      <path
         id="path25"
         d="m 22652.5,30403.7 c 20.2,-221.9 101.3,-415.8 223.2,-584.1 l 0.6,-0.1 c 680,-301.7 1408.2,-389 1408.2,-389 l 1771.6,1950.9 -2015.5,1756.8 c -318.6,-248.1 -1518.4,-1283.8 -1388.1,-2734.5"
         style="fill:#f2a5a5;fill-opacity:1;fill-rule:nonzero;stroke:none"
         transform="matrix(0.13333333,0,0,-0.13333333,0,5333.3333)" />
      <path
         id="path26"
         d="m 24284.7,29268.9 c -6.4,0 -12.8,0.4 -19.2,1.1 -104.7,12.6 -2566.9,323.8 -2699.7,1801.6 -156.7,1744.7 1464.4,2891.3 1533.5,2939.3 73.3,50.8 174.1,32.7 225,-40.7 50.9,-73.3 32.7,-174 -40.6,-224.9 -20.9,-14.6 -1535.3,-1092.2 -1395.9,-2644.8 97.6,-1086 1924.6,-1433.3 2335,-1497.7 l 1713.4,1887.3 c 60.1,66.2 162.3,71.1 228.4,11.1 66.1,-60.1 71,-162.3 11,-228.4 l -1771.2,-1950.9 c -30.8,-34 -74.4,-53 -119.7,-53"
         style="fill:#650000;fill-opacity:1;fill-rule:nonzero;stroke:none"
         transform="matrix(0.13333333,0,0,-0.13333333,0,5333.3333)" />
      <path
         id="path27"
         d="m 10039.4,24161.3 c -163.43,-1990.4 101.7,-4660.8 3914.6,-5773.4 5265.4,-1536.3 11421.1,262.6 12937.8,2692.8 1187.2,1902.1 596.2,3519.3 -38.6,4500 -1162.2,5697.7 -3302.6,7132.9 -5394.5,7654.5 -2894.5,721.8 -8028.4,380 -10245.9,-3443.7 -862,-1486.4 -992.5,-3428 -1173.4,-5630.2"
         style="fill:#f9c9ca;fill-opacity:1;fill-rule:nonzero;stroke:none"
         transform="matrix(0.13333333,0,0,-0.13333333,0,5333.3333)" />
      <path
         id="path28"
         d="m 10039.4,24161.3 c -163.43,-1990.4 101.7,-4660.8 3914.6,-5773.4 5265.4,-1536.3 11421.1,262.6 12937.8,2692.8 1187.2,1902.1 596.2,3519.3 -38.6,4500 -1162.2,5697.7 -3302.6,7132.9 -5394.5,7654.5 -2894.5,721.8 -8028.4,380 -10245.9,-3443.7 -862,-1486.4 -992.5,-3428 -1173.4,-5630.2"
         style="fill:#f9c9ca;fill-opacity:1;fill-rule:nonzero;stroke:none"
         transform="matrix(0.13333333,0,0,-0.13333333,0,5333.3333)" />
      <path
         id="path29"
         d="m 11178.4,19774.2 c 593.1,-575.6 1432.6,-1068.3 2611.1,-1412.3 4628.8,-1350.6 9945.8,-123.7 12194.1,1844.4 -3053.9,-1704.2 -10651.4,-2739.9 -14805.2,-432.1"
         style="fill:#f2a5a5;fill-opacity:1;fill-rule:nonzero;stroke:none"
         transform="matrix(0.13333333,0,0,-0.13333333,0,5333.3333)" />
      <path
         id="path30"
         d="m 23216.9,32501 c 680.4,-1109 162.2,-3212.2 1552.8,-4321.7 458.4,-365.1 1007.4,-422.3 1511.5,-353.2 -815.2,2579.9 -1900.3,3930.5 -3064.3,4674.9"
         style="fill:#f2a5a5;fill-opacity:1;fill-rule:nonzero;stroke:none"
         transform="matrix(0.13333333,0,0,-0.13333333,0,5333.3333)" />
      <path
         id="path31"
         d="m 10437.2,27601.5 c 520.8,-672.5 1205,-1197.4 1999.4,-966.9 2504,727.2 3005.1,4667.4 2775.7,6326.4 -1595.3,-553.3 -3059.4,-1548.3 -3999.3,-3169.3 -376.4,-648.9 -613.2,-1384.6 -775.8,-2190.2"
         style="fill:#f2a5a5;fill-opacity:1;fill-rule:nonzero;stroke:none"
         transform="matrix(0.13333333,0,0,-0.13333333,0,5333.3333)" />
      <path
         id="path32"
         d="m 11810.1,20502.2 c 376,-720.4 1090.1,-1248.9 1958.3,-1351.1 249.6,-29.4 494.6,-21.4 730.1,19.1 -76,24.3 -152.5,48.8 -228.9,74.3 -1035.3,343.5 -1838.9,772.7 -2459.5,1257.7"
         style="fill:#e8496b;fill-opacity:1;fill-rule:nonzero;stroke:none"
         transform="matrix(0.13333333,0,0,-0.13333333,0,5333.3333)" />
      <path
         id="path33"
         d="m 11540.7,21973.5 c -164.2,-1394.5 833.2,-2658.1 2227.7,-2822.2 1394.5,-164.2 2658.1,833.2 2822.2,2227.7 164.2,1394.6 -833.2,2658.1 -2227.7,2822.3 -1394.5,164.1 -2658.1,-833.3 -2822.2,-2227.8"
         style="fill:#ff6982;fill-opacity:1;fill-rule:nonzero;stroke:none"
         transform="matrix(0.13333333,0,0,-0.13333333,0,5333.3333)" />
      <path
         id="path34"
         d="m 25131.7,23528.4 c -138.6,-1177.7 551,-2262.1 1609.1,-2670.2 54.5,73.6 104.3,148.1 150.9,222.6 1187.2,1902 596.5,3519.3 -38.3,4499.8 -4.1,19.7 -8.1,39.3 -12.2,59 -899.6,-304.9 -1591,-1104.8 -1709.5,-2111.2"
         style="fill:#ff6982;fill-opacity:1;fill-rule:nonzero;stroke:none"
         transform="matrix(0.13333333,0,0,-0.13333333,0,5333.3333)" />
      <path
         id="path35"
         d="m 21051.4,18084.8 c 1881.3,608.6 3925.1,1165.5 5325.1,2639.5 517.5,597.2 873.6,1366.8 975.8,2150.7 90.4,680.3 -36.7,1378.1 -311.8,2003.6 -95.3,209.9 -201.2,416.2 -323,614.2 -11.7,17.1 -18.8,36.8 -22.8,55.9 -605.7,2721.7 -1581.1,6058.5 -4394.7,7205.5 -1267.6,502.9 -2671.2,622.6 -4029.5,573.8 -2311.7,-104.8 -4723.4,-905 -6243.5,-2725.1 -494.7,-593.6 -892.4,-1267.1 -1127.5,-2007.6 -367.2,-1122.8 -483.6,-2311.4 -590.6,-3485.4 -81.7,-968.3 -208.3,-1969.5 -21.1,-2929.4 339.5,-1880.4 1674.6,-2968.5 3421.7,-3546.3 1132.2,-371.7 2288.9,-597.4 3471.1,-789.7 -1908.2,-73.3 -4231.3,380 -5727.9,1628 -812.1,676.5 -1324,1605.7 -1519.35,2640.7 -200.63,995.2 -85.71,2029.7 -2.87,3029.6 146.42,1601.1 288.42,3273.4 1087.82,4706.6 1664.1,2961.2 5225.2,4048.3 8449,3871.2 1612.9,-88 3325.6,-454.5 4548.6,-1588.6 1814.7,-1683.1 2502.7,-4178.3 2995.7,-6518.6 0.2,-0.9 -5.6,13.3 -11.4,27.5 -5.6,13.9 -11.3,27.8 -11.2,27.6 136.9,-205.4 261.5,-420.2 369.8,-644.1 503.5,-1044.9 540.4,-2214.1 92,-3286.6 -176,-400 -379,-791.9 -666.3,-1129.3 -437.3,-522.6 -1003.4,-937.7 -1589.2,-1267.2 -1270.6,-708.3 -2690.6,-1161.5 -4143.9,-1256.5"
         style="fill:#650000;fill-opacity:1;fill-rule:nonzero;stroke:none"
         transform="matrix(0.13333333,0,0,-0.13333333,0,5333.3333)" />
      <path
         id="path36"
         d="m 18925.5,22569 c 199.2,-644.3 1221,-1204.7 2539.6,-974.9 1266.7,220.8 1745.7,1069.8 1694,1678.6 -59.4,699 -790.3,1569.7 -2235.6,1450.9 -1255.3,-103.2 -2328.1,-1086.5 -1998,-2154.6"
         style="fill:#ed6882;fill-opacity:1;fill-rule:nonzero;stroke:none"
         transform="matrix(0.13333333,0,0,-0.13333333,0,5333.3333)" />
      <path
         id="path37"
         d="m 18925.4,22568.8 c 199.1,-644.2 1221.1,-1204.6 2539.7,-974.6 1266.9,220.6 1745.7,1069.5 1693.7,1678.3 -3.4,38.7 -8.4,77.7 -15.5,116.9 -198,-477.6 -700.4,-948.6 -1596.9,-1105.2 -1318.6,-229.4 -2340.6,331 -2539.7,975.1 -20.5,65.8 -35.1,131.5 -45.1,196.6 -109.7,-275.9 -132,-578 -36.2,-887.1"
         style="fill:#e8496b;fill-opacity:1;fill-rule:nonzero;stroke:none"
         transform="matrix(0.13333333,0,0,-0.13333333,0,5333.3333)" />
      <path
         id="path38"
         d="m 23116,22853.9 c -0.1,0.1 -0.1,0.1 -0.1,0.2 2.5,8.8 4.9,17.5 7.2,26.3 -2.3,-8.8 -4.7,-17.6 -7.1,-26.5 m -3365.8,1487.9 c 0.5,0.3 0.9,0.6 1.4,0.8 -0.5,-0.2 -0.9,-0.5 -1.4,-0.8 m 2.2,1.4 c 337,208 743.4,345.3 1171.1,380.6 90,7.3 177.1,10.9 261.5,10.9 323.5,0 606.6,-52.2 849.7,-140.8 -243,88.5 -525.9,140.6 -849.3,140.6 -84.6,0 -171.8,-3.5 -261.9,-10.9 -427.6,-35.2 -834.1,-172.5 -1171.1,-380.4"
         style="fill:#fdefef;fill-opacity:1;fill-rule:nonzero;stroke:none"
         transform="matrix(0.13333333,0,0,-0.13333333,0,5333.3333)" />
      <path
         id="path39"
         d="m 23115.9,22854.1 c 0,0.1 0,0.1 0,0.2 9.3,33 17.1,65.8 23.6,98.4 -4.7,-24 -10.2,-48.1 -16.4,-72.3 -2.3,-8.8 -4.7,-17.5 -7.2,-26.3 m -69.2,343.7 c -200.6,575 -828.6,1153 -1904.8,1153 -46.2,0 -93.3,-1 -141.2,-3.2 0.7,-2.8 1.4,-6.1 2.1,-9.3 27.5,-150.9 -126.6,-305.9 -345,-346.3 -35.4,-6.5 -70.4,-9.6 -104.2,-9.6 -174.4,0 -318.1,83.3 -341.6,209.7 -0.3,2.2 -0.6,4.3 -0.9,6.5 -526.9,-183.8 -967.9,-522.9 -1204.3,-939.5 -0.1,0.1 -0.1,0.1 -0.1,0.2 -20.4,65.5 -35,130.8 -44.9,195.6 139.9,352 423.3,661 788.4,886.9 0.5,0.3 0.9,0.6 1.4,0.8 0.2,0.2 0.5,0.4 0.8,0.6 337,207.9 743.5,345.2 1171.1,380.4 90.1,7.4 177.3,10.9 261.9,10.9 323.4,0 606.3,-52.1 849.3,-140.6 656.9,-239.4 1022.8,-744.7 1108.4,-1205.1 -26.6,-64 -58.7,-127.9 -96.4,-191 m 112.1,74.7 c -1.5,16.7 -3.2,33.5 -5.3,50.3 2.1,-16.8 3.9,-33.7 5.3,-50.3"
         style="fill:#fad1d9;fill-opacity:1;fill-rule:nonzero;stroke:none"
         transform="matrix(0.13333333,0,0,-0.13333333,0,5333.3333)" />
      <path
         id="path40"
         d="m 23115.9,22854.3 c -0.2,11.6 -1.4,23.4 -2.2,35.1 -8.4,100.4 -30.7,204.3 -67,308.4 37.7,63.1 69.8,127 96.4,191 4.1,-22.1 7.5,-44.1 10.4,-66 2.1,-16.8 3.8,-33.6 5.3,-50.3 v 0 c 8.7,-101.4 2.6,-209.2 -19.3,-319.8 -6.5,-32.6 -14.3,-65.4 -23.6,-98.4 m -4249.7,66.7 c -6,184.9 28.2,364.4 95.6,533.9 9.9,-64.8 24.5,-130.1 44.9,-195.6 0,-0.1 0,-0.1 0.1,-0.2 -61.3,-107.9 -108.9,-221.1 -140.6,-338.1"
         style="fill:#f8c8d2;fill-opacity:1;fill-rule:nonzero;stroke:none"
         transform="matrix(0.13333333,0,0,-0.13333333,0,5333.3333)" />
      <path
         id="path41"
         d="m 21191.2,24573.1 c -81.7,0 -166.5,-3.4 -254.5,-10.6 -701.3,-57.7 -1346.2,-403.1 -1683.1,-901.3 -155.4,-229.9 -311.7,-597.7 -173.6,-1044.5 179.7,-581.4 1131.9,-1076.9 2357.4,-863.3 1220.7,212.8 1602.1,1017 1560.6,1505.6 -45,530.3 -577.2,1314.1 -1806.8,1314.1 z m -331.8,-3194.4 c -1098.3,0 -1898.1,527.5 -2088.3,1142.6 -139.3,450.5 -65,907.3 214.6,1321 390.5,577.5 1127.9,976.9 1924.6,1042.4 877,71.8 1435.8,-206.4 1750.4,-452.6 377.1,-295.1 623.6,-723.4 659.5,-1145.8 63.7,-750.7 -543.5,-1627.7 -1827.3,-1851.4 -219.9,-38.3 -431.8,-56.2 -633.5,-56.2"
         style="fill:#650000;fill-opacity:1;fill-rule:nonzero;stroke:none"
         transform="matrix(0.13333333,0,0,-0.13333333,0,5333.3333)" />
      <path
         id="path42"
         d="m 21953.3,23188.8 c 46.3,-331.5 194.1,-584.9 330.3,-565.9 136.1,19 209,303.2 162.7,634.8 -46.3,331.5 -194.1,584.9 -330.3,565.9 -136.1,-19 -209,-303.2 -162.7,-634.8"
         style="fill:#650000;fill-opacity:1;fill-rule:nonzero;stroke:none"
         transform="matrix(0.13333333,0,0,-0.13333333,0,5333.3333)" />
      <path
         id="path43"
         d="m 20318.1,22960.6 c 46.3,-331.6 194.1,-584.9 330.3,-565.9 136.1,19 209,303.2 162.7,634.7 -46.3,331.6 -194.2,585 -330.3,566 -136.2,-19.1 -209,-303.2 -162.7,-634.8"
         style="fill:#650000;fill-opacity:1;fill-rule:nonzero;stroke:none"
         transform="matrix(0.13333333,0,0,-0.13333333,0,5333.3333)" />
      <path
         id="path44"
         d="m 12465.6,27822.5 c 2099.4,241.5 3088.8,4237.8 2630.2,5388.8 -289.5,726.8 -1252.5,983.4 -2069.3,539.8 -390.4,-211.9 -747.5,-583.8 -981,-1141.4 -329.7,-53.3 -1006.7,-192.1 -1483.7,-600.6 l -1.1,-0.4 c -231.2,-198.7 -415.4,-460.4 -490.3,-807 -309,-1434.2 1223.2,-3513.5 2395.2,-3379.2"
         style="fill:#fccaca;fill-opacity:1;fill-rule:nonzero;stroke:none"
         transform="matrix(0.13333333,0,0,-0.13333333,0,5333.3333)" />
      <path
         id="path45"
         d="m 10561.8,32009.1 c 301.5,229.9 1142.8,402.1 1456.3,-48.8 344.6,-494.5 198.5,-1885 256.8,-1891.9 37.3,-4.4 119.8,883 149.2,1346 38.5,606.6 -133.6,1593.7 719.3,2182.9 114.5,79.1 -216.6,22.6 -116.9,153.8 -390.4,-211.9 -747.5,-583.8 -981,-1141.4 -329.7,-53.3 -1006.7,-192.1 -1483.7,-600.6"
         style="fill:#f2a5a5;fill-opacity:1;fill-rule:nonzero;stroke:none"
         transform="matrix(0.13333333,0,0,-0.13333333,0,5333.3333)" />
      <path
         id="path46"
         d="m 12045.4,32609.7 h 0.5 z m 1821,1198.4 c -555.1,0 -1282,-330.6 -1671.9,-1260.9 -21.6,-51.5 -68.2,-88.2 -123.3,-97.1 -740.1,-119.7 -1660.6,-439.2 -1842.6,-1282.5 -154.5,-716.1 205.2,-1732.2 874.8,-2470.9 446,-492.1 948.7,-758.9 1344,-713.4 800.2,91.9 1369.5,782.8 1706.2,1346.1 769.3,1287.1 1062.3,3143.2 792.1,3821.9 -159.6,400.7 -568.3,652.3 -1066.8,656.8 -4.1,0 -8.3,0 -12.5,0 z m -1508.9,-6153.2 c -476.3,0 -1013.2,294.5 -1493.7,824.6 -621.5,685.8 -1156.72,1804 -951.23,2756.3 170.23,788.9 867.83,1312.8 2019.63,1518.6 463.4,1022 1305.8,1380.5 1949.6,1377 632.4,-5.6 1155.2,-335.4 1364.3,-860.5 309.5,-777.3 26.8,-2699.1 -814.9,-4107.4 -536.5,-897.6 -1209.7,-1416.7 -1946.9,-1501.4 -41.7,-4.8 -84,-7.2 -126.8,-7.2"
         style="fill:#650000;fill-opacity:1;fill-rule:nonzero;stroke:none"
         transform="matrix(0.13333333,0,0,-0.13333333,0,5333.3333)" />
      <path
         id="path47"
         d="m 22652.7,33397.5 1101.5,-501.5 c 912.3,-4135.5 3343.6,-5094.6 3981.4,-4406.2 358.9,387.2 97.2,784.6 154.2,1490.8 59,736.8 75.4,1237.9 -203.3,1695.3 -178.7,292.3 -477.3,566.7 -962.2,873.6 0,0 -704.2,1201.3 -1760.4,1584.6 -661.1,240.3 -1460.3,159.6 -2311.2,-736.6"
         style="fill:#f9c9ca;fill-opacity:1;fill-rule:nonzero;stroke:none"
         transform="matrix(0.13333333,0,0,-0.13333333,0,5333.3333)" />
      <path
         id="path48"
         d="m 23762.6,32858.7 c 918.7,-4104.2 3337,-5055.4 3973,-4368.9 149.6,161.4 191.7,324.8 192.9,511.7 -415.4,-812.9 -1632.5,-222.6 -2545.4,1061.3 -1150.4,1619.4 -1128.3,3519.6 -1620.5,2795.9"
         style="fill:#f2a5a5;fill-opacity:1;fill-rule:nonzero;stroke:none"
         transform="matrix(0.13333333,0,0,-0.13333333,0,5333.3333)" />
      <path
         id="path49"
         d="m 24963.9,34134.1 c 0,0 857.9,-687 1332.1,-1746.7 322.7,-721.1 504.7,-1948.3 538,-1887.8 33.7,60 -89.1,521.8 37.8,1080.4 160,704.7 814.1,94.9 814.1,94.9 l 0.6,1 c -178.7,292.3 -477.3,566.7 -962.2,873.6 0,0 -704.2,1201.3 -1760.4,1584.6"
         style="fill:#f2a5a5;fill-opacity:1;fill-rule:nonzero;stroke:none"
         transform="matrix(0.13333333,0,0,-0.13333333,0,5333.3333)" />
      <path
         id="path50"
         d="m 23754.2,32896.1 c 576.9,-1479.9 1131.6,-3100.5 2459.2,-4071.5 405.8,-300.4 1332,-672.1 1535.2,13 56.2,280.1 -50.2,698 -27.6,1021.8 29.6,554.6 124.5,1181.8 -129.5,1653.5 -205.5,388.2 -586.2,660.8 -953.9,900 -22.1,14.4 -40.2,33.8 -53,54.9 -48.3,79.6 -106.6,166 -165,246.5 -507.8,688.2 -1244.2,1392.5 -2147.4,1371.6 -188.4,-7.3 -374.6,-49.1 -553.5,-116.8 -354.8,-147.2 -673.3,-392.7 -948.7,-682.7 -61.4,-64.8 -163.7,-67.6 -228.6,-6.2 -64.9,61.5 -67.6,164.1 -5.9,228.8 296.5,311.6 648.3,588.7 1064.2,760.7 262.2,100.9 548.8,153 831.7,138.4 1054.4,-72.8 1896.3,-936.1 2432.1,-1776.8 l -53.1,54.9 c 202.1,-131.9 402.7,-268.8 588.9,-433.3 672.1,-583.2 732.8,-1223.5 668.5,-2057.7 -19.5,-237 -35.1,-447.8 -14.4,-681 16,-249 68.8,-489.9 9.4,-752.7 -163.2,-638 -826.2,-741.5 -1370.4,-555.7 -1773.1,623.6 -2818.9,2932.4 -2938.2,4690.3"
         style="fill:#650000;fill-opacity:1;fill-rule:nonzero;stroke:none"
         transform="matrix(0.13333333,0,0,-0.13333333,0,5333.3333)" />
      <path
         id="path51"
         d="m 21418.1,14595.7 c -155.5,1243.5 -547.8,2258.2 -662.4,3127.2 -63.4,481.4 -37,1478.6 962.6,1642 1368.2,536.8 2695.2,-2113.6 2368.5,-3531.5 -324.3,-1407.6 -1732.9,-1572.4 -2668.7,-1237.7"
         style="fill:#f9c9ca;fill-opacity:1;fill-rule:nonzero;stroke:none"
         transform="matrix(0.13333333,0,0,-0.13333333,0,5333.3333)" />
      <path
         id="path52"
         d="m 24086.8,15833.4 c -324.1,-1407.8 -1733.1,-1572.3 -2668.8,-1237.6 -73.5,588.9 -200.4,1126.4 -325.7,1621.5 -139.1,550.1 -276.1,1048.1 -336.7,1505.6 -63.5,481.4 -36.8,1478.5 962.7,1641.8 1368.2,537.1 2695.1,-2113.5 2368.5,-3531.3"
         style="fill:#f9c9ca;fill-opacity:1;fill-rule:nonzero;stroke:none"
         transform="matrix(0.13333333,0,0,-0.13333333,0,5333.3333)" />
      <path
         id="path53"
         d="m 24086.8,15833.4 c -324.1,-1407.8 -1733.1,-1572.3 -2668.8,-1237.6 -73.5,588.9 -200.4,1126.4 -325.7,1621.5 377.1,-12.1 892.4,-90.1 1352,-369 614.7,-372.6 1160.7,-611.1 1642.5,-14.9"
         style="fill:#f2a5a5;fill-opacity:1;fill-rule:nonzero;stroke:none"
         transform="matrix(0.13333333,0,0,-0.13333333,0,5333.3333)" />
      <path
         id="path54"
         d="m 23788.9,17841.3 c -100.6,-259.5 -264.7,-495.5 -520.5,-670.9 -894.9,-613.1 -1936,-392.1 -2349.9,-265.6 -69.9,287 -128.5,559 -162.9,818.1 -63.5,481.4 -36.8,1478.5 962.7,1641.8 821.7,322.5 1628.1,-504.4 2070.6,-1523.4"
         style="fill:#f2a5a5;fill-opacity:1;fill-rule:nonzero;stroke:none"
         transform="matrix(0.13333333,0,0,-0.13333333,0,5333.3333)" />
      <path
         id="path55"
         d="m 20909.4,17798.8 c -45,415.7 -27.1,1265.6 834.9,1406.5 11.3,1.9 22.4,4.9 33,9.1 102.1,40 205.4,60 309.8,60 194.2,0 392.1,-69.1 591.8,-207 -136.6,57.4 -277.3,88.7 -420.1,88.7 -121.1,0 -243.7,-22.5 -366.7,-70.7 -791.6,-129.3 -973,-781.6 -982.7,-1286.6"
         style="fill:#f9d2d2;fill-opacity:1;fill-rule:nonzero;stroke:none"
         transform="matrix(0.13333333,0,0,-0.13333333,0,5333.3333)" />
      <path
         id="path56"
         d="m 21565.3,14717.1 c 454.9,-140 1090.9,-179.1 1613.9,106.9 386.5,211.3 638.9,563.2 750.1,1045.7 210.7,914.5 -322.2,2410.4 -1096.4,3078.2 -360,310.4 -715.2,400.1 -1055.6,266.5 -10.6,-4.2 -21.7,-7.2 -33,-9.1 -901.9,-147.4 -879.7,-1071 -828.3,-1461.3 50.2,-380.4 157.9,-801.2 271.9,-1246.6 135.4,-528.9 287.9,-1124.8 377.4,-1780.3 m 712.6,-429.6 c -337.3,0 -657.9,64.3 -914.2,156 -57.5,20.5 -98.4,71.6 -106,132.2 -84.5,675.2 -243.1,1294.8 -383,1841.5 -116.5,455.1 -226.6,885 -279.2,1284.6 -101.9,773.2 129,1654.6 1079.9,1819.8 449.6,169.4 922.5,55.9 1368.7,-328.9 865.6,-746.5 1437.7,-2365 1200.3,-3395.6 -131,-568.3 -445.6,-1002.9 -910,-1256.8 -333.9,-182.6 -704.3,-252.8 -1056.5,-252.8"
         style="fill:#650000;fill-opacity:1;fill-rule:nonzero;stroke:none"
         transform="matrix(0.13333333,0,0,-0.13333333,0,5333.3333)" />
      <path
         id="path57"
         d="m 22922.7,12899 c -182.1,-227.2 -416,-270.1 -857.7,-286 -780.7,-27.8 -1879.4,-490.5 -3352,-292.4 -1466.8,196.9 -2887.3,1183.3 -3404.3,1786.5 -19.7,23.1 -38.2,45.8 -55.5,67.7 l 949.8,3396.7 c 120.7,-54.7 288.6,-170.8 494.3,-319.7 l 0.4,-0.5 c 670.5,-486.2 1739.3,-1318.2 2860.3,-1476.4 307.6,-43.4 640.5,-23.2 981.6,-2.9 607.2,36 1240.1,72.1 1801.4,-251.2 322.6,-185.9 538,-531.2 661.6,-915.7 v -0.8 c 209.1,-649.1 156.9,-1410.4 -79.9,-1705.3"
         style="fill:#ffad40;fill-opacity:1;fill-rule:nonzero;stroke:none"
         transform="matrix(0.13333333,0,0,-0.13333333,0,5333.3333)" />
      <path
         id="path58"
         d="m 22922.8,12898.8 c -182.3,-227.1 -415.9,-270 -857.7,-285.8 -97.4,-3.6 -199.6,-13.7 -307.2,-28.6 v -0.5 c -753.7,-103.8 -1756.1,-436.9 -3045,-263.5 -1466.8,197.3 -2887,1183.5 -3404,1786.5 -19.8,23.4 -38.4,46.1 -55.8,67.9 l 949.9,3396.7 c 120.8,-54.6 288.5,-171 494.3,-319.7 l 0.4,-0.4 c 670.5,-486.3 1739.1,-1318.5 2860.3,-1476.5 307.4,-43.3 640,-23.2 980.8,-3 284.8,16.9 575.3,33.8 861.5,13.5 h 0.4 c 323.7,-22.6 642.2,-92.9 940.5,-264.7 322.5,-185.9 537.9,-531.1 661.6,-915.5 v -0.8 c 209,-649.1 156.8,-1410.5 -80,-1705.6"
         style="fill:#f9c9ca;fill-opacity:1;fill-rule:nonzero;stroke:none"
         transform="matrix(0.13333333,0,0,-0.13333333,0,5333.3333)" />
      <path
         id="path59"
         d="m 22922.8,12898.7 c -182.3,-227.2 -415.9,-270 -857.7,-285.8 -97.4,-3.6 -199.6,-13.7 -307.1,-28.7 v -0.4 c -753.8,-103.9 -1756.2,-436.9 -3045.1,-263.5 -1466.8,197.2 -2887,1183.4 -3404,1786.4 -19.8,23.5 -38.4,46.1 -55.8,67.9 l 949.9,3396.7 c 120.8,-54.5 288.5,-170.9 494.3,-319.7 l 0.4,-0.4 c 670.5,-486.2 1739.1,-1318.4 2860.3,-1476.4 307.4,-43.4 640,-23.2 980.8,-3 284.8,16.9 575.3,33.7 861.5,13.5 h 0.4 c 92.9,-6.5 185.1,-17 276.4,-32.4 v -0.4 c 228,-38.4 451.1,-109.5 664.1,-232 322.5,-185.9 537.9,-531 661.6,-915.4 v -0.8 c 209,-649.1 156.8,-1410.6 -80,-1705.6"
         style="fill:#f9c9ca;fill-opacity:1;fill-rule:nonzero;stroke:none"
         transform="matrix(0.13333333,0,0,-0.13333333,0,5333.3333)" />
      <path
         id="path60"
         d="m 22922.8,12898.7 c -182.3,-227.2 -415.9,-270 -857.7,-285.8 0,0 616.4,1754.9 -388,3139.6 228,-38.4 451.1,-109.5 664.1,-232 322.5,-185.9 537.9,-531 661.6,-915.4 v -0.8 c 209,-649.1 156.8,-1410.6 -80,-1705.6"
         style="fill:#f2a5a5;fill-opacity:1;fill-rule:nonzero;stroke:none"
         transform="matrix(0.13333333,0,0,-0.13333333,0,5333.3333)" />
      <path
         id="path61"
         d="m 22922.8,12899.1 c -17,-21.5 -34.8,-40.9 -52.6,-59 -156.8,-158.1 -357.6,-203.8 -686.2,-221.9 -37.6,-2.1 -77.2,-3.7 -118.9,-5.3 0,0 50.2,143.1 98.7,379.9 766.3,-15.7 901.7,955.1 839,1611.5 209,-649.1 156.8,-1410.6 -80,-1705.2"
         style="fill:#d87979;fill-opacity:1;fill-rule:nonzero;stroke:none"
         transform="matrix(0.13333333,0,0,-0.13333333,0,5333.3333)" />
      <path
         id="path62"
         d="m 22514.6,15397.3 c -53.9,46.4 -111.7,87.8 -173.4,123.4 -298.3,171.8 -616.8,242.1 -940.5,264.7 h -0.4 c -93.3,6.6 -187,9.3 -280.8,9.3 -194.1,0 -388.7,-11.4 -580.7,-22.8 -3.6,-0.2 -7.1,-0.4 -10.6,-0.6 3.8,0.2 7.6,0.5 11.4,0.7 192.3,11.4 387.2,22.8 581.6,22.8 419.3,0 836.2,-53.1 1219.8,-274 61.8,-35.6 119.6,-77 173.6,-123.5 m -3034.7,389.7 c -779.1,131.5 -1528.8,578.7 -2132.4,996.6 603.6,-417.9 1353.4,-865 2132.4,-996.6"
         style="fill:#ffc67a;fill-opacity:1;fill-rule:nonzero;stroke:none"
         transform="matrix(0.13333333,0,0,-0.13333333,0,5333.3333)" />
      <path
         id="path63"
         d="m 22720.6,15173.5 c -104.7,141.7 -230.7,261.3 -379.4,347 -213,122.5 -436.1,193.6 -664.1,232 v 0.4 c -91.3,15.4 -183.5,25.9 -276.4,32.4 h -0.4 c -93.3,6.6 -187,9.2 -280.8,9.2 -194.1,0 -388.7,-11.3 -580.7,-22.7 -192.1,-11.4 -381.5,-22.8 -565.4,-22.8 -142.3,0 -281.3,6.9 -415.4,25.8 -1121,158 -2189.5,990 -2860.1,1476.2 -0.1,0.2 -0.1,0.3 -0.2,0.3 187.9,-136.2 407,-299.6 649.8,-467.7 603.6,-417.9 1353.3,-865.1 2132.4,-996.6 26,-4.4 52.1,-8.4 78.1,-12.1 134.1,-18.9 273.1,-25.8 415.4,-25.8 180.5,0 366.4,11 554.8,22.2 3.5,0.2 7,0.4 10.6,0.6 192,11.4 386.6,22.8 580.7,22.8 93.8,0 187.5,-2.7 280.8,-9.3 h 0.4 c 323.7,-22.6 642.2,-92.9 940.5,-264.7 61.7,-35.6 119.5,-77 173.4,-123.4 76.2,-65.4 144.7,-140.9 206,-223.8"
         style="fill:#fbd9da;fill-opacity:1;fill-rule:nonzero;stroke:none"
         transform="matrix(0.13333333,0,0,-0.13333333,0,5333.3333)" />
      <path
         id="path64"
         d="m 22720.6,15173.5 c -104.7,141.7 -230.7,261.3 -379.4,347 -213,122.5 -436.1,193.6 -664.1,232 83.8,-115.5 156.3,-233.5 218.8,-352.9 -245.3,62.5 -502.3,79 -772,79 -151,0 -305.8,-5.2 -464.9,-10.3 -159,-5.2 -322.2,-10.4 -489.7,-10.4 -247.8,0 -505.1,11.3 -772.4,50.7 -1448.5,213.1 -2664.9,1700.2 -2699,1742.4 670.6,-486.2 1739.1,-1318.2 2860.1,-1476.2 134.1,-18.9 273.1,-25.8 415.4,-25.8 183.9,0 373.3,11.4 565.4,22.8 192,11.4 386.6,22.7 580.7,22.7 93.8,0 187.5,-2.6 280.8,-9.2 h 0.4 c 92.9,-6.5 185.1,-17 276.4,-32.4 v -0.4 c 228,-38.4 451.1,-109.5 664.1,-232 148.7,-85.7 274.7,-205.3 379.4,-347 v 0"
         style="fill:#fbd9da;fill-opacity:1;fill-rule:nonzero;stroke:none"
         transform="matrix(0.13333333,0,0,-0.13333333,0,5333.3333)" />
      <path
         id="path65"
         d="m 23002.6,14604.3 c -340.7,470.7 -708.3,693.7 -1106.7,795.3 -62.5,119.4 -135,237.4 -218.8,352.9 228,-38.4 451.1,-109.5 664.1,-232 148.7,-85.7 274.7,-205.3 379.4,-347 122.2,-165.6 215.4,-361.3 282,-568.4 v -0.8"
         style="fill:#f6c0c0;fill-opacity:1;fill-rule:nonzero;stroke:none"
         transform="matrix(0.13333333,0,0,-0.13333333,0,5333.3333)" />
      <path
         id="path66"
         d="m 22922.7,12899 c -182.1,-227.2 -416,-270.1 -857.7,-286 -780.7,-27.8 -1879.4,-490.5 -3352,-292.4 -1466.8,196.9 -2887.3,1183.3 -3404.3,1786.5 533.4,-74.9 2133.5,-1229.1 3520.4,-1343.1 1403.6,-115.7 2250.4,276.7 3312.5,229.2 785.8,-35.3 924.1,948.1 861,1611.1 209.1,-649.1 156.9,-1410.4 -79.9,-1705.3"
         style="fill:#f2a5a5;fill-opacity:1;fill-rule:nonzero;stroke:none"
         transform="matrix(0.13333333,0,0,-0.13333333,0,5333.3333)" />
      <path
         id="path67"
         d="m 22922.8,12899.1 c -17,-21.5 -34.8,-40.9 -52.5,-59.1 -157.3,-157.6 -357.7,-203.3 -686.3,-221.8 -37.6,-2.1 -77.2,-3.7 -118.9,-5.3 0,0 50.2,143.1 98.7,379.9 766.3,-15.7 901.7,955.1 839,1611.5 209,-649.1 156.8,-1410.6 -80,-1705.2"
         style="fill:#d87979;fill-opacity:1;fill-rule:nonzero;stroke:none"
         transform="matrix(0.13333333,0,0,-0.13333333,0,5333.3333)" />
      <path
         id="path68"
         d="m 16203.1,17571.4 c 352.8,-128.7 664.7,-354.2 986,-542.7 472.3,-292.8 943.7,-562.3 1443.7,-793.2 489,-231.2 1008.8,-360.3 1552.3,-318.7 914.8,56.8 2141.4,187 2723.8,-718.8 397.1,-604.6 558.2,-1675.1 207,-2328.3 -226.4,-388.7 -678.1,-430.1 -1078.2,-440.5 -198.5,-10.8 -394.7,-45.6 -598.6,-83.7 -920.5,-193 -1891.4,-353.4 -2836,-190.9 -944.3,163.1 -1847,575.1 -2596,1168.3 -291.2,242.4 -572.7,515.5 -754,851.8 282.3,-240.6 591.7,-445 905.2,-640.2 918,-576.1 1939.6,-1043.1 3037.5,-1073.7 360.5,-14.9 722.5,3.6 1083.8,51.4 552.5,65.8 1099,223.1 1664.5,276.2 613.2,28.8 924,10.4 1003,724.5 49.1,507.7 -42.5,1064.9 -319.6,1499.2 -282.4,451.2 -823.7,589.4 -1325.6,613.5 -544.6,27.3 -1124.5,-79.4 -1687,-20.6 -197.8,23.5 -389.4,62 -576.9,116.7 -742.5,201.1 -1393.8,645.3 -1975.7,1130.1 -292.5,234.7 -552.1,504.7 -859.2,719.6"
         style="fill:#650000;fill-opacity:1;fill-rule:nonzero;stroke:none"
         transform="matrix(0.13333333,0,0,-0.13333333,0,5333.3333)" />
      <path
         id="path69"
         d="m 21653.8,19519.6 c 437.2,-43.5 845.7,-703.5 912.3,-1099.5 -88,208.4 -243,380.6 -407.4,529.7 -131.9,113.5 -342.8,269.2 -504.9,246.5 v 323.3"
         style="fill:#650000;fill-opacity:1;fill-rule:nonzero;stroke:none"
         transform="matrix(0.13333333,0,0,-0.13333333,0,5333.3333)" />
      <path
         id="path70"
         d="m 22196.7,20011 c -296.2,206.5 -637.3,254.3 -977.7,171.9 -459,-124.5 -816.7,-451.6 -1178.7,-761.9 90.9,205 205.6,404.2 361.7,574 227.5,264.3 554.3,478.8 911.1,535.1 366.2,63.9 823.6,-118.2 883.6,-519.1"
         style="fill:#650000;fill-opacity:1;fill-rule:nonzero;stroke:none"
         transform="matrix(0.13333333,0,0,-0.13333333,0,5333.3333)" />
      <path
         id="path71"
         d="m 17783.6,5202.1 c 1739,354.2 1615.8,3793.1 824.4,4739 -535.7,640.3 -1397.6,642.8 -1820.4,-279 -643.5,744.8 -1635.6,470.9 -1895.3,-443.1 -371.8,-1308.9 484.9,-4507.1 2891.3,-4016.9"
         style="fill:#ed9696;fill-opacity:1;fill-rule:nonzero;stroke:none"
         transform="matrix(0.13333333,0,0,-0.13333333,0,5333.3333)" />
      <path
         id="path72"
         d="m 16787.6,9662.1 v 0 c 1.9,4.1 3.7,8.1 5.6,12.1 -1.9,-4 -3.7,-8 -5.6,-12.1"
         style="fill:#fce4e5;fill-opacity:1;fill-rule:nonzero;stroke:none"
         transform="matrix(0.13333333,0,0,-0.13333333,0,5333.3333)" />
      <path
         id="path73"
         d="m 14893.4,7705.9 c -113.3,573.5 -110.8,1125.8 -1,1513 157.3,553.3 583,872.1 1037.3,872.1 296,0 604,-135.3 857.8,-429 l 0.1,0.1 v 0 c 1.9,4.1 3.7,8.1 5.6,12.1 230.5,493.5 588.2,717.7 952.3,717.7 307.1,0 618.7,-159.3 862.6,-451 255.3,-305.1 441.1,-870 516.6,-1507 -94.6,481.9 -254.7,893.2 -459.2,1137.9 -243.9,291.7 -555.5,451.1 -862.3,451.1 -367.1,0 -727.4,-227.9 -957.8,-730 -253.8,293.7 -562,429 -857.9,429 -454.5,0 -880.2,-318.7 -1037.2,-872.1 -86.1,-303.1 -106.3,-707.4 -56.9,-1143.9"
         style="fill:#f6cbcb;fill-opacity:1;fill-rule:nonzero;stroke:none"
         transform="matrix(0.13333333,0,0,-0.13333333,0,5333.3333)" />
      <path
         id="path74"
         d="m 17783.4,5202 c -1565.3,-318.7 -2475.2,923.9 -2817,2191.2 444.1,-1021.1 1305.5,-1835.7 2684.1,-1565.8 1114.2,218 1496.4,1449.5 1469.2,2648.3 171.7,-1343.8 -146,-3031 -1336.3,-3273.7"
         style="fill:#d87979;fill-opacity:1;fill-rule:nonzero;stroke:none"
         transform="matrix(0.13333333,0,0,-0.13333333,0,5333.3333)" />
      <path
         id="path75"
         d="m 17751.3,5360.5 32.3,-158.4 -32.3,158.4 c 594,120.9 895.6,651.8 1044,1075.8 402.4,1150.2 165.2,2831.5 -311.3,3401.1 -238.2,284.7 -542,425.8 -833.5,386.6 -293.6,-39.4 -547.9,-262.8 -715.9,-629.3 -23,-50 -69.8,-84.9 -124.2,-92.6 -54.4,-7.7 -109.1,12.7 -145.1,54.3 -256.1,296.4 -587.9,425.3 -910.1,354 -333,-73.7 -597.4,-348.7 -707.3,-735.6 -209.7,-738 10.8,-2320.7 846.2,-3221.9 502.2,-541.8 1127.1,-741.1 1857.2,-592.4 z m -449.2,-370.4 c -628.4,0 -1190,251.9 -1645.2,743 -867.3,935.7 -1181,2611.4 -920.1,3530 143,503.1 497.5,863.1 948.5,963 374,82.9 751.3,-24 1062.3,-294.8 214.8,351.6 514.3,566.8 859.9,613.2 403.9,54 813.6,-128 1124.5,-499.7 604.7,-722.8 783.8,-2528.3 368.5,-3715.3 -252.5,-721.5 -696.7,-1166.1 -1284.6,-1285.9 -175.4,-35.7 -347,-53.4 -513.8,-53.5"
         style="fill:#650000;fill-opacity:1;fill-rule:nonzero;stroke:none"
         transform="matrix(0.13333333,0,0,-0.13333333,0,5333.3333)" />
      <path
         id="path76"
         d="m 17043.9,8460.3 -414.4,1168.1 316.2,67.5 z"
         style="fill:#650000;fill-opacity:1;fill-rule:nonzero;stroke:none"
         transform="matrix(0.13333333,0,0,-0.13333333,0,5333.3333)" />
      <path
         id="path77"
         d="m 24322.2,7500.3 c 320.7,-828.4 1424.8,-910.3 1965.6,-623.7 469.6,248.8 667,959.8 920.4,1642.9 278.1,749.4 960.7,1843.8 634.3,2409.9 -169.8,294.5 -628.8,439 -1049.6,233.8 -93.8,507.5 -410.5,696.4 -704.4,718 -446.1,32.7 -1552.5,-332 -1899.9,-2733.1 0,0 -32.5,-474.4 0,-872.6 43.6,-533.2 133.6,-775.2 133.6,-775.2"
         style="fill:#ed9696;fill-opacity:1;fill-rule:nonzero;stroke:none"
         transform="matrix(0.13333333,0,0,-0.13333333,0,5333.3333)" />
      <path
         id="path78"
         d="m 27336.4,8832.1 c -0.5,-0.9 -0.9,-1.9 -1.4,-2.8 -47.1,-107.8 -90.4,-211.9 -126.6,-309.8 -253.8,-683.1 -451.1,-1394 -920.5,-1643.1 -540.9,-286.2 -1644.9,-204.3 -1965.5,623.8 0,0 -90.4,242 -133.7,775.4 -32.5,398.3 0,872.4 0,872.4 8,54.2 16,106.9 24.4,158.7 372.4,2258.4 1439.3,2606.3 1875.2,2574.3 294.3,-21.2 610.7,-210.4 704.8,-718 420.4,205.3 879.5,60.8 1049.4,-233.5 283.4,-491.5 -194,-1380.8 -506.1,-2097.4"
         style="fill:#ed9696;fill-opacity:1;fill-rule:nonzero;stroke:none"
         transform="matrix(0.13333333,0,0,-0.13333333,0,5333.3333)" />
      <path
         id="path79"
         d="m 24386.2,10079.1 c 60.9,207.6 128.8,392.1 201.8,556.3 -72.9,-164 -140.8,-348.5 -201.7,-556 0,-0.1 -0.1,-0.2 -0.1,-0.3"
         style="fill:#fce4e5;fill-opacity:1;fill-rule:nonzero;stroke:none"
         transform="matrix(0.13333333,0,0,-0.13333333,0,5333.3333)" />
      <path
         id="path80"
         d="m 24211.1,9294.3 c 0.7,4.1 1.3,8.3 2,12.5 47.3,287.2 106,543.7 173.1,772.3 0,0.1 0.1,0.2 0.1,0.3 -61.8,-210.6 -116.4,-444.8 -161.7,-705 -3.9,-22.4 -7.7,-45 -11.5,-67.7 -0.3,-1.9 -0.6,-3.8 -0.9,-5.7 -0.4,-2.3 -0.7,-4.5 -1.1,-6.7"
         style="fill:#f9d2d2;fill-opacity:1;fill-rule:nonzero;stroke:none"
         transform="matrix(0.13333333,0,0,-0.13333333,0,5333.3333)" />
      <path
         id="path81"
         d="m 24588.2,10636 c 0.1,0.2 0.3,0.7 0.4,0.9 -0.1,-0.3 -0.3,-0.6 -0.4,-0.9"
         style="fill:#fce4e5;fill-opacity:1;fill-rule:nonzero;stroke:none"
         transform="matrix(0.13333333,0,0,-0.13333333,0,5333.3333)" />
      <path
         id="path82"
         d="m 27798.4,10994.5 c -25.1,31.9 -53.9,61.6 -85.8,88.5 -85.4,72.3 -193.5,125.7 -313.7,153.8 165.1,-38.6 307.3,-124.8 399.5,-242.3 m -1005.3,168.8 c -18.6,99.7 -45.7,187.2 -79.5,263.5 -103.1,232.5 -268.8,361.3 -444.3,418.9 233.2,-76.2 448.8,-278.5 523.9,-682.3 0,-0.1 -0.1,-0.1 -0.1,-0.1 m 605.6,73.6 c -0.1,0 -0.2,0 -0.3,0 0.1,0 0.2,0 0.3,0"
         style="fill:#ffeafa;fill-opacity:1;fill-rule:nonzero;stroke:none"
         transform="matrix(0.13333333,0,0,-0.13333333,0,5333.3333)" />
      <path
         id="path83"
         d="m 24210.9,9292.8 c 0.1,0.5 0.1,1 0.2,1.5 0.4,2.2 0.7,4.4 1.1,6.7 -0.4,-2.7 -0.9,-5.4 -1.3,-8.2 m 13.7,81.6 c 45.3,260.2 99.9,494.4 161.7,705 60.9,207.5 128.8,392 201.7,556 0.1,0.2 0.2,0.4 0.2,0.6 0.1,0.3 0.3,0.6 0.4,0.9 240.1,539.7 533.9,857.1 808.8,1036.4 -443.3,-289.3 -936,-938 -1172.8,-2298.9 m 3547.1,472.3 c 48.7,134.2 89.5,265.7 117.4,391.6 -27.8,-125.9 -68.7,-257.4 -117.4,-391.6 m 117.6,392.3 c 0,0.3 0.1,0.6 0.2,0.8 -0.1,-0.2 -0.2,-0.5 -0.2,-0.8 m -176.7,844 c -130.2,110 -312.6,176.2 -510.7,176.2 -132.9,0 -272.9,-29.8 -408.8,-96.2 0,0.1 0,0.2 0,0.3 0,0 0.1,0 0.1,0.1 0,-0.1 0.1,-0.1 0.1,-0.1 135.8,66.2 275.7,96 408.6,96 67.8,0 133.8,-7.8 196.5,-22.4 0.1,0 0.2,0 0.3,0 0.1,-0.1 0.1,-0.1 0.2,-0.1 120.2,-28.1 228.3,-81.5 313.7,-153.8 m -999,343.8 c -110.1,248.1 -291.3,378.2 -479.9,429.6 11.9,-3.3 23.8,-6.8 35.6,-10.7 175.5,-57.6 341.2,-186.4 444.3,-418.9"
         style="fill:#f6cbcb;fill-opacity:1;fill-rule:nonzero;stroke:none"
         transform="matrix(0.13333333,0,0,-0.13333333,0,5333.3333)" />
      <path
         id="path84"
         d="m 24194.7,9186.9 c 5.4,36 10.8,71.2 16.2,105.9 0.4,2.8 0.9,5.5 1.3,8.2 0.3,1.9 0.6,3.8 0.9,5.7 3.8,22.7 7.6,45.3 11.5,67.7 236.8,1360.9 729.5,2009.6 1172.8,2298.9 244.3,159.3 473.6,209.5 636.9,209.5 19,0 37,-0.7 54.1,-1.9 48.2,-3.5 97,-11.4 145.3,-24.5 188.6,-51.4 369.8,-181.5 479.9,-429.6 33.8,-76.3 60.9,-163.8 79.5,-263.5 0,-0.1 0,-0.2 0,-0.3 135.9,66.4 275.9,96.2 408.8,96.2 198.1,0 380.5,-66.2 510.7,-176.2 31.9,-26.9 60.7,-56.6 85.8,-88.5 16.3,-20.6 31,-42.3 44,-64.8 106.1,-184.2 105.6,-424.2 47.1,-689.9 -0.1,-0.2 -0.2,-0.5 -0.2,-0.8 -0.1,-0.2 -0.1,-0.5 -0.2,-0.7 -27.9,-125.9 -68.7,-257.4 -117.4,-391.6 -25.7,-70.8 -53.5,-142.3 -82.8,-214 120.3,368.7 166.2,709.4 26,952.7 -115,199.1 -362.4,329.6 -640.5,329.6 -132.9,0 -272.8,-29.7 -408.6,-96 -94.4,507.5 -410.6,696.7 -704.9,717.6 -15.4,1.1 -31.3,1.7 -47.5,1.7 -441.9,0 -1164.3,-440.6 -1718.7,-2351.4"
         style="fill:#f6cbcb;fill-opacity:1;fill-rule:nonzero;stroke:none"
         transform="matrix(0.13333333,0,0,-0.13333333,0,5333.3333)" />
      <path
         id="path85"
         d="m 27335,8829.3 c -47.1,-107.8 -90.4,-211.9 -126.6,-309.8 -253.8,-683.1 -451.1,-1394 -920.5,-1643.1 -540.9,-286.2 -1644.9,-204.3 -1965.5,623.8 0,0 -90.4,242 -133.7,775.4 -32.5,398.3 0,872.4 0,872.4 8,54.2 16,106.9 24.4,158.7 84.8,-424.7 338.1,-1253.3 1065.5,-1621 1083.3,-548 1694.8,353.1 2056.4,1143.6"
         style="fill:#d87979;fill-opacity:1;fill-rule:nonzero;stroke:none"
         transform="matrix(0.13333333,0,0,-0.13333333,0,5333.3333)" />
      <path
         id="path86"
         d="m 24322.2,7500.3 c 383.9,-587.6 1231.2,-754.1 1838.3,-491.4 195.2,93 315.5,258.4 425.2,453.7 188.7,347.8 312.4,752.3 457.9,1124.9 207.8,531.6 511,1050.8 662.1,1592.1 55.1,213.3 98,429.3 16.4,625.5 -143.2,305.6 -574.1,350.7 -852.8,201.5 -101.1,-53.2 -230.1,12.7 -247.7,124.9 -34.1,168.3 -100.6,321.7 -207.5,422.9 -242,232.1 -603.5,159.6 -876.2,1 -477.5,-281.9 -764.4,-798.9 -978.5,-1299.8 -146.7,-354.6 -260.2,-727.8 -370.8,-1107.5 20.4,984.6 290.7,2135.2 1170.6,2707 684.2,428.6 1464.2,177 1605,-660.3 l -247.6,125 c 442,222 1093.2,104.8 1305.6,-385 220.3,-575.8 -148.6,-1276.6 -361.3,-1794.3 -98.8,-226.8 -200.1,-447.9 -283.6,-677.4 -144,-396.8 -257.2,-790.2 -471.2,-1179.4 -184.8,-341.2 -470.5,-604 -869.4,-679 -675.2,-163 -1596.9,132.2 -1714.5,895.6"
         style="fill:#650000;fill-opacity:1;fill-rule:nonzero;stroke:none"
         transform="matrix(0.13333333,0,0,-0.13333333,0,5333.3333)" />
      <path
         id="path87"
         d="m 26474.7,10274.4 c 10.2,191.1 80.5,379.6 113.6,557.9 35,175 29.5,347 -9.4,518 l 322.6,22.4 c -12.1,-205 -65.9,-413.9 -160.5,-593.5 -90.2,-177.1 -202.6,-324.3 -266.3,-504.8"
         style="fill:#650000;fill-opacity:1;fill-rule:nonzero;stroke:none"
         transform="matrix(0.13333333,0,0,-0.13333333,0,5333.3333)" />
      <path
         id="path88"
         d="m 14821.8,25951.5 c 243.7,-469.2 549.5,-941.9 970.7,-1256 1007.4,-756.1 2459.9,-593.5 3021.9,605.5 117.3,229.5 197.3,489.3 281.3,770 218.5,-570.3 142.4,-1250.9 -239,-1755.7 -648.7,-874.1 -1966.8,-942.3 -2853.1,-412.5 -721.3,420.3 -1149.7,1230.9 -1181.8,2048.7"
         style="fill:#650000;fill-opacity:1;fill-rule:nonzero;stroke:none"
         transform="matrix(0.13333333,0,0,-0.13333333,0,5333.3333)" />
      <path
         id="path89"
         d="m 25322.1,26220.5 c 364.5,-1020.2 -63.9,-2249.4 -1303.5,-2206.6 -1082.1,38.5 -1713.8,1185.3 -1562.5,2169.1 280.7,-695.5 771,-1570.1 1587.5,-1605.7 922.1,-65.1 1155.2,902.9 1278.5,1643.2"
         style="fill:#650000;fill-opacity:1;fill-rule:nonzero;stroke:none"
         transform="matrix(0.13333333,0,0,-0.13333333,0,5333.3333)" />
      <path
         id="path90"
         d="m 20332.3,11393.4 c 199.4,601 808.6,752.4 1230.5,510.1 474,-272.3 549.6,-892.9 317.3,-1318.8 -228.3,-418.3 -796.9,-530.9 -1174.8,-311.3 0,0 -234.6,116.2 -343.7,458.3 -109.2,342.1 -29.3,661.7 -29.3,661.7"
         style="fill:#fccaca;fill-opacity:1;fill-rule:nonzero;stroke:none"
         transform="matrix(0.13333333,0,0,-0.13333333,0,5333.3333)" />
      <path
         id="path91"
         d="m 22007.1,11077.4 c -2.6,-172.4 -45.8,-344.4 -127,-492.8 -228.3,-418.2 -796.7,-530.8 -1174.7,-311.2 0,0 -234.8,116.1 -344,458.3 -31,97.4 -46.7,192.5 -53.2,279.4 -17.1,218.7 24,382.4 24,382.4 199.5,601.1 808.9,752.1 1230.6,509.9 309,-177.3 448.7,-502.9 444.3,-826"
         style="fill:#fccaca;fill-opacity:1;fill-rule:nonzero;stroke:none"
         transform="matrix(0.13333333,0,0,-0.13333333,0,5333.3333)" />
      <path
         id="path92"
         d="m 22007.1,11077.4 c -2.6,-172.4 -45.8,-344.4 -127,-492.8 -228.3,-418.2 -796.7,-530.8 -1174.7,-311.2 0,0 -234.8,116.1 -344,458.3 -31,97.4 -46.7,192.5 -53.2,279.4 v 0.9 c 0,0 295.5,-452.3 944.6,-461 469.3,-6.6 682.3,362.7 754.3,526.4"
         style="fill:#f2a5a5;fill-opacity:1;fill-rule:nonzero;stroke:none"
         transform="matrix(0.13333333,0,0,-0.13333333,0,5333.3333)" />
      <path
         id="path93"
         d="m 20332.3,11393.4 c 175.9,978.5 1491.3,971.3 1781.1,55.6 203.3,-627.5 -165.3,-1369.2 -870.4,-1367.5 -199.9,-1.3 -399.1,64.8 -537.7,191.9 486.2,-155.1 1043.3,104 1121.5,620.9 186.9,1001.1 -1031.8,1400.4 -1494.5,499.1"
         style="fill:#650000;fill-opacity:1;fill-rule:nonzero;stroke:none"
         transform="matrix(0.13333333,0,0,-0.13333333,0,5333.3333)" />
      <path
         id="path94"
         d="m 21412.2,10731.8 c -29.4,4.4 -52,146.1 -164.7,333.6 -220.9,-7.7 -351.1,-68 -370.2,-45.4 -19,22.7 81.6,148.1 296.6,176 -92.8,195 -43.9,347.2 -14.4,342.9 29.4,-4.3 51.7,-145.4 164.8,-333.7 220.9,7.8 351,68.1 370,45.4 19,-22.6 -81,-148.3 -296.5,-175.9 92.9,-194.6 43.8,-347.2 14.4,-342.9"
         style="fill:#650000;fill-opacity:1;fill-rule:nonzero;stroke:none"
         transform="matrix(0.13333333,0,0,-0.13333333,0,5333.3333)" />
      <path
         id="path95"
         d="m 28733.3,25452.7 c 0,0 1090.3,-94.3 1672,647 261,-136.7 550.5,-218.9 856.6,-234.1 505.4,-25 1010.3,-25 1515.7,0 1176.5,58.1 2112.1,1112.2 2115.3,2401.3 v 44.7 c -3.2,1289.1 -938.8,2343.6 -2115.3,2401.7 -505.4,24.5 -1010.3,24.5 -1515.7,0 -1176.5,-58.1 -2112.2,-1112.6 -2115.3,-2401.7 v -44.7 c 0.9,-455.4 118.4,-881.2 322.2,-1244.5 -90.7,-527.7 -291.3,-1214.4 -735.5,-1569.7"
         style="fill:#ffffff;fill-opacity:1;fill-rule:nonzero;stroke:none"
         transform="matrix(0.13333333,0,0,-0.13333333,0,5333.3333)" />
      <path
         id="path96"
         d="m 31878.7,27426.5 c -189.6,15.9 -350.5,-118.5 -366.2,-306.1 -15.4,-184.4 123.8,-347.1 310.3,-362.7 184.4,-15.4 346.9,122.1 362.4,306.4 15.4,184.4 -122.1,347 -306.5,362.4"
         style="fill:#650000;fill-opacity:1;fill-rule:nonzero;stroke:none"
         transform="matrix(0.13333333,0,0,-0.13333333,0,5333.3333)" />
      <path
         id="path97"
         d="m 32090,29721.4 c -381.4,31.9 -723.2,-149.8 -892.8,-475.7 -26.3,-52.5 -28.7,-113.4 -6.6,-167.2 21.7,-52.9 65.3,-93.9 117.8,-111.8 l 126.4,-46.1 3.2,-0.9 c 14.8,-4.3 29.9,-7.1 45.1,-8.3 87.3,-7.3 169.9,36.5 210.8,111.8 40.2,69.1 134.4,181.3 317,166 211.3,-17.7 294.1,-185.1 281.7,-333.3 -13,-155.5 -117.1,-252.4 -249,-375.1 -152.4,-141.9 -342.2,-318.5 -404.5,-636.8 l -0.8,-4.6 c -8.4,-57 7.1,-115.3 42.5,-160 34.7,-43.7 84.3,-70.3 139.7,-75 l 156.7,-13.1 c 98.4,-8.2 190.5,59.6 214.1,157.7 l 0.7,3 c 38.1,183.6 153.6,292.2 287.4,417.9 165.6,155.7 353.2,332.1 381.8,673.1 37.3,445.6 -308.7,839.7 -771.2,878.4"
         style="fill:#650000;fill-opacity:1;fill-rule:nonzero;stroke:none"
         transform="matrix(0.13333333,0,0,-0.13333333,0,5333.3333)" />
      <path
         id="path98"
         d="m 32019.8,30569.9 c -250.6,0 -501.2,-6 -750,-18.1 -1096.9,-54.2 -1958.6,-1038.4 -1961.5,-2240.6 v -44.3 c 0.8,-412 105.1,-815.1 301.5,-1165.4 18.1,-32.3 24.6,-69.9 18.3,-106.5 -73.4,-426.8 -219.9,-967.3 -511.8,-1368.8 341.4,38.3 842.7,166.7 1161.9,573.3 48.1,61.4 133.1,79.6 202.2,43.4 247.2,-129.5 512.8,-202.1 789.5,-215.8 497.6,-24.7 1002.1,-24.7 1499.7,0 1097,54.1 1958.7,1038.1 1961.6,2240.2 v 44.2 c -2.9,1201.9 -864.6,2186.1 -1961.6,2240.3 -248.8,12.1 -499.3,18.1 -749.8,18.1 z m -3286.5,-5117.2 h 0.5 z m 126.6,-165.9 c -80.4,0 -131.1,4 -140.5,4.9 -65.9,5.7 -121.6,50.9 -140.8,114.2 -19.2,63.2 2.1,131.8 53.7,173.1 391.6,313.2 578.6,931.5 667.4,1415.8 -205.2,386 -313.9,824.4 -314.7,1271.8 v 44.9 c 3.3,1374.9 999.9,2500.6 2268.9,2563.2 508.2,24.7 1023.5,24.7 1531.5,0 1269.1,-62.6 2265.8,-1188.3 2269.1,-2562.8 v -45 c -3.3,-1374.6 -1000,-2500.1 -2269,-2562.8 -508.2,-25.1 -1023.5,-25.1 -1531.6,0 -280.7,14 -551.6,79.6 -806.9,195.4 -510,-551.5 -1273.6,-612.7 -1587.1,-612.7"
         style="fill:#650000;fill-opacity:1;fill-rule:nonzero;stroke:none"
         transform="matrix(0.13333333,0,0,-0.13333333,0,5333.3333)" />
    </g>
  </g>
</svg>
